<svg width="19" height="19" viewBox="0 0 19 19" fill="none" xmlns="http://www.w3.org/2000/svg">
<path d="M15.0112 15.0812C13.9823 15.0812 13.1574 15.9089 13.1574 16.9412C13.1574 17.4345 13.3527 17.9076 13.7003 18.2564C14.048 18.6052 14.5195 18.8012 15.0112 18.8012C15.5028 18.8012 15.9744 18.6052 16.322 18.2564C16.6697 17.9076 16.865 17.4345 16.865 16.9412C16.865 15.9089 16.0308 15.0812 15.0112 15.0812ZM0.180664 0.201172V2.06117H2.03448L5.37134 9.11987L4.11075 11.3984C3.97171 11.6588 3.88829 11.9657 3.88829 12.2912C3.88829 12.7845 4.0836 13.2576 4.43126 13.6064C4.77892 13.9552 5.25044 14.1512 5.7421 14.1512H16.865V12.2912H6.13141C6.06995 12.2912 6.01101 12.2667 5.96755 12.2231C5.92409 12.1795 5.89968 12.1203 5.89968 12.0587C5.89968 12.0122 5.90895 11.975 5.92749 11.9471L6.7617 10.4312H13.6672C14.3623 10.4312 14.9741 10.0406 15.2892 9.47327L18.6076 3.45617C18.6725 3.30737 18.7188 3.14927 18.7188 2.99117C18.7188 2.74452 18.6211 2.50797 18.4473 2.33356C18.2735 2.15915 18.0377 2.06117 17.7919 2.06117H4.08294L3.21165 0.201172M5.7421 15.0812C4.71324 15.0812 3.88829 15.9089 3.88829 16.9412C3.88829 17.4345 4.0836 17.9076 4.43126 18.2564C4.77892 18.6052 5.25044 18.8012 5.7421 18.8012C6.23377 18.8012 6.70529 18.6052 7.05295 18.2564C7.40061 17.9076 7.59592 17.4345 7.59592 16.9412C7.59592 15.9089 6.7617 15.0812 5.7421 15.0812Z" fill="#7BAA41"/>
</svg>
