<?xml version="1.0" encoding="UTF-8"?><svg xmlns="http://www.w3.org/2000/svg" viewBox="0 0 77.9 77.9"><defs><style>.d{fill:#2d593a;}.e,.f{fill:#f0efef;}.g{fill:#7baa41;}.h{fill:#dddbdb;}.f{fill-rule:evenodd;}</style></defs><g id="a"/><g id="b"><g id="c"><rect class="e" width="77.9" height="77.9" rx="3.35" ry="3.35"/><g><g><path class="g" d="M26.14,67.19c0-.77,.45-1.23,1.05-1.23,.29,0,.51,.14,.65,.29l-.17,.2c-.12-.13-.28-.22-.48-.22-.45,0-.75,.37-.75,.96s.28,.97,.74,.97c.23,0,.4-.1,.55-.27l.17,.19c-.19,.22-.42,.34-.73,.34-.59,0-1.04-.46-1.04-1.23Z"/><path class="g" d="M28.32,65.8h.3v1.07c.15-.16,.33-.29,.57-.29,.37,0,.54,.24,.54,.69v1.11h-.3v-1.08c0-.33-.1-.47-.33-.47-.18,0-.3,.09-.48,.27v1.27h-.3v-2.58Z"/><path class="g" d="M30.16,67.5c0-.59,.38-.93,.82-.93s.82,.34,.82,.93-.38,.92-.82,.92-.82-.34-.82-.92Zm1.32,0c0-.4-.21-.68-.51-.68s-.51,.27-.51,.68,.21,.67,.51,.67,.51-.27,.51-.67Zm-.7,1.43c0-.11,.08-.19,.2-.19s.2,.08,.2,.19-.08,.2-.2,.2-.2-.08-.2-.2Zm.52-2.27c.21-.04,.33-.14,.33-.35,0-.07-.02-.14-.05-.2l.23-.11c.05,.08,.08,.18,.08,.28,0,.29-.2,.43-.41,.49l-.17-.12Z"/><path class="g" d="M32.72,66.62h.31l.33,1c.05,.17,.11,.35,.16,.52h.01c.05-.17,.11-.35,.16-.52l.33-1h.29l-.62,1.76h-.35l-.63-1.76Z"/><path class="g" d="M34.64,67.73v-1.11h.3v1.08c0,.33,.1,.47,.33,.47,.18,0,.3-.09,.47-.3v-1.25h.3v1.76h-.25l-.03-.28h0c-.16,.19-.34,.32-.58,.32-.37,0-.54-.24-.54-.69Z"/><path class="g" d="M36.58,66.06c0-.12,.09-.19,.21-.19s.21,.08,.21,.19-.09,.19-.21,.19-.21-.08-.21-.19Zm.05,.55h.3v1.76h-.3v-1.76Z"/><path class="g" d="M38.25,66.62h.25l.03,.25h0c.15-.17,.34-.3,.55-.3,.27,0,.41,.13,.49,.34,.18-.2,.37-.34,.58-.34,.36,0,.54,.24,.54,.69v1.11h-.3v-1.08c0-.33-.1-.47-.33-.47-.14,0-.28,.09-.44,.27v1.27h-.3v-1.08c0-.33-.1-.47-.33-.47-.13,0-.28,.09-.44,.27v1.27h-.3v-1.76Z"/><path class="g" d="M41.12,67.5c0-.59,.38-.93,.82-.93s.82,.34,.82,.93-.38,.92-.82,.92-.82-.34-.82-.92Zm1.32,0c0-.4-.21-.68-.51-.68s-.51,.27-.51,.68,.21,.67,.51,.67,.51-.27,.51-.67Zm-.74-2.03c.21,0,.32,.15,.46,.15,.07,0,.1-.05,.12-.15l.16,.02c-.02,.19-.09,.32-.26,.32-.21,0-.32-.15-.46-.15-.07,0-.1,.05-.12,.15l-.16-.02c.02-.19,.09-.32,.26-.32Zm-.25,.72l.36-.32h.25l.36,.32-.1,.12-.37-.25h-.01l-.37,.25-.1-.12Z"/><path class="g" d="M43.16,66.06c0-.12,.09-.19,.21-.19s.21,.08,.21,.19-.09,.19-.21,.19-.21-.08-.21-.19Zm.05,.55h.3v1.76h-.3v-1.76Z"/><path class="g" d="M44.83,66.62h.25l.03,.25h0c.17-.16,.35-.3,.59-.3,.37,0,.54,.24,.54,.69v1.11h-.3v-1.08c0-.33-.1-.47-.33-.47-.18,0-.3,.09-.48,.27v1.27h-.3v-1.76Z"/><path class="g" d="M46.68,68.71c0-.15,.1-.29,.26-.4h0c-.09-.07-.16-.16-.16-.3,0-.15,.1-.26,.19-.33h0c-.12-.11-.23-.28-.23-.49,0-.38,.3-.63,.66-.63,.1,0,.18,.02,.25,.04h.61v.23h-.36c.08,.08,.14,.21,.14,.36,0,.38-.28,.61-.64,.61-.09,0-.18-.02-.26-.06-.06,.05-.11,.11-.11,.21,0,.11,.07,.19,.31,.19h.34c.41,0,.61,.13,.61,.42,0,.33-.35,.61-.89,.61-.43,0-.73-.17-.73-.47Zm1.33-.09c0-.16-.12-.22-.35-.22h-.3c-.07,0-.15,0-.23-.03-.13,.09-.18,.19-.18,.29,0,.19,.19,.31,.51,.31s.56-.17,.56-.36Zm-.23-1.42c0-.26-.17-.41-.37-.41s-.37,.15-.37,.41,.17,.42,.37,.42,.37-.16,.37-.42Z"/><path class="g" d="M48.47,67.92c0-.38,.33-.58,1.08-.66,0-.23-.08-.44-.36-.44-.2,0-.39,.1-.52,.19l-.12-.2c.16-.11,.41-.23,.69-.23,.43,0,.61,.29,.61,.72v1.08h-.25l-.03-.21h0c-.17,.14-.36,.25-.58,.25-.29,0-.52-.18-.52-.5Zm.25-2.17l.21-.2,.51,.6-.15,.15-.57-.55Zm.84,2.2v-.49c-.59,.07-.79,.22-.79,.44,0,.2,.14,.28,.31,.28s.31-.08,.48-.23Z"/><path class="g" d="M50.22,69.1l.06-.24s.09,.03,.13,.03c.2,0,.32-.16,.4-.38l.04-.13-.71-1.76h.31l.36,.97c.06,.15,.11,.33,.17,.5h.01c.05-.16,.1-.34,.15-.5l.31-.97h.29l-.66,1.9c-.12,.35-.31,.61-.66,.61-.08,0-.15-.01-.21-.04Z"/></g><g><path class="d" d="M54.14,21.44c-2.9,2.97-6.46,3.67-10.53,2.85-.02,.42-.06,.78-.06,1.15,0,8.03,0,16.05,0,24.08,0,.4,0,.81-.06,1.21-.16,1.07-.97,1.77-2.01,1.78-1.07,.02-1.94-.7-2.12-1.79-.05-.31-.04-.63-.04-.95,0-4.48,0-8.95,0-13.43,0-.26,.03-.53-.03-.77-.04-.14-.24-.27-.4-.33-.05-.02-.25,.2-.28,.33-.05,.22-.02,.46-.02,.69,0,4.62,0,9.24,0,13.86,0,1.17-.47,1.93-1.39,2.26-1.21,.45-2.52-.3-2.76-1.59-.07-.36-.06-.75-.06-1.12,0-8.08,0-16.17,0-24.25v-1.16c-2.01,.42-3.92,.53-5.82,0-1.87-.51-3.49-1.44-4.77-3.01,1.43-.09,2.8-.75,4.25-.08,2.1,.97,4.26,.84,6.43,.2,.65-.19,1.35-.3,2.03-.33,1.07-.05,2.14,0,3.2-.02,1.53-.01,3.02,.04,4.52,.51,1.98,.62,4,.47,5.9-.49,.18-.09,.38-.21,.56-.2,1.14,.07,2.28,.18,3.42,.28l.04,.31Z"/><path class="g" d="M40.9,19.83c.45-.17,.91-.5,1.36-.5,6.38,.1,12.75,.42,19.03,1.66,.59,.12,1.2,.24,1.76,.45,.32,.12,.58,.43,.87,.65-.29,.16-.58,.31-.96,.52,.54,1.13,1.12,2.34,1.71,3.55,1.27,2.59,2.53,5.19,3.81,7.77,.12,.25,.27,.57,.49,.68,.9,.46,.72,1.05,.28,1.7-1.26,1.88-2.9,3.29-5.05,4.03-2.42,.84-4.59,.16-6.47-1.37-1.03-.84-1.85-1.95-2.72-2.98-.37-.44-.28-.89,.24-1.24,.27-.19,.52-.47,.66-.76,1.88-3.8,3.74-7.62,5.59-11.43,.07-.15,.09-.32,.16-.57-6.86-1.45-13.77-1.66-20.68-1.85-.03-.1-.06-.2-.08-.3m21.88,4.11c-.12,.21-.19,.28-.19,.34,0,2.94,0,5.88-.02,8.82,0,.52,.3,.59,.72,.63,1.15,.09,2.29,.22,3.44,.33,.29,.03,.59,.06,1.06,.1-1.71-3.5-3.34-6.81-5.01-10.23m-.93,.19l-.26-.05c-1.62,3.32-3.25,6.64-4.91,10.05,1.56-.14,2.98-.3,4.41-.39,.6-.03,.79-.25,.78-.83-.02-2.19,0-4.38,0-6.56v-2.21Zm6.61,11.59c-.17-.18-.21-.26-.25-.26-1.73-.22-3.47-.49-5.21-.62-.67-.05-.37,.64-.42,1.02-.06,.47,.17,.7,.66,.66,1.41-.13,2.81-.24,4.22-.4,.32-.04,.61-.23,1-.39m-11.94-.19c0,.08,0,.16,0,.23,.36,.13,.71,.33,1.08,.38,1.17,.15,2.35,.23,3.53,.35,.59,.06,.76-.21,.74-.75-.02-.5,.06-1.03-.72-.94-1.26,.14-2.52,.24-3.78,.4-.29,.04-.55,.21-.83,.33"/><path class="g" d="M16.13,22.01c.79,1.62,1.52,3.12,2.25,4.61,1.19,2.44,2.38,4.88,3.58,7.31,.14,.27,.31,.6,.56,.74,.81,.43,.67,.96,.27,1.56-1.21,1.83-2.79,3.22-4.85,4.03-1.87,.74-3.68,.51-5.43-.42-1.64-.87-2.96-2.09-3.95-3.67-.37-.59-.47-1.11,.3-1.49,.19-.09,.34-.31,.44-.51,1.86-3.78,3.71-7.57,5.56-11.35,.05-.1,.06-.21,.09-.34-.11-.03-.19-.05-.27-.08-.23-.1-.46-.2-.69-.3,.2-.2,.36-.52,.6-.59,.83-.25,1.67-.47,2.52-.62,6.15-1.13,12.38-1.47,18.62-1.55,.42,0,.84,.33,1.24,.65-6.96,.36-13.89,.55-20.84,2.02m-5.99,12.12c1.58-.15,2.95-.32,4.33-.38,.67-.03,.89-.24,.88-.92-.03-2.68-.01-5.36-.02-8.05,0-.24-.04-.47-.06-.71-.07-.01-.13-.03-.2-.04-1.63,3.32-3.25,6.65-4.94,10.09m6.18-10.08l-.24,.05c0,3.04,0,6.08,.02,9.13,0,.16,.23,.44,.38,.46,1.54,.17,3.08,.29,4.77,.44-1.67-3.42-3.3-6.75-4.92-10.07m5.61,11.65c-.21-.19-.26-.29-.33-.3-1.7-.21-3.41-.42-5.12-.56-.12,0-.34,.58-.41,.91-.08,.39,0,.79,.55,.74,1.51-.14,3.03-.28,4.54-.45,.23-.03,.44-.19,.77-.35m-12.1-.26c.26,.3,.3,.41,.37,.42,1.58,.22,3.17,.44,4.75,.58,.1,0,.35-.61,.35-.94,0-.23-.31-.64-.49-.65-.77-.03-1.55,.01-2.32,.11-.83,.11-1.66,.3-2.66,.49"/><path class="d" d="M23.42,19.64c.51-.75,1.08-.83,1.71-.13-.57,.04-1.14,.09-1.71,.13"/><path class="d" d="M54.22,19.63c-.56-.03-1.13-.06-1.76-.1,.58-.74,1.02-.74,1.76,.1"/><path class="d" d="M38.96,12.48c-2.09,0-3.81,1.69-3.83,3.78-.02,2.09,1.68,3.82,3.77,3.85,2.14,.02,3.87-1.69,3.86-3.84,0-2.11-1.68-3.79-3.8-3.8Zm1.67,5.65l-.26,.25-.49,.3-.36,.12s-.35,.08-.65,.05c-.3-.04-.51-.08-.79-.2-.27-.17-.73-.45-.78-.65l.45,.14,.66,.09,.53,.03,.49-.02,.48-.05,.4-.07,.34-.12,.07-.04-.1,.16Z"/><g/><path class="g" d="M29.9,14.98l8.85-6.27,9.22,5.87s1.16,2.34-8.73,2.19c-4.26-.06-9.61-.46-9.34-1.8"/></g><g><rect class="g" x="41.59" y="57.96" width="20.28" height="6.1"/><g><path class="e" d="M45.33,58.79s-.02,.05-.07,.06c-.13,.01-.26,.02-.38,.04-.15,.02-.27,.07-.34,.16-.13,.14-.19,.5-.19,1.07,.09,0,.22,0,.41,0s.33,0,.42,0c.06,0,.09,.02,.09,.07,0,.07,0,.18,0,.33s0,.26,0,.33c0,.05-.03,.08-.08,.08-.09,0-.23,0-.42-.01s-.33-.01-.42-.01v1.19c0,.18,0,.46,.02,.84,.01,.38,.02,.66,.02,.84,0,.07-.03,.11-.08,.11h-.72c-.07,0-.1-.04-.1-.12v-2.73c0-.07-.08-.11-.24-.1-.17,0-.27,0-.28-.02,0,0-.01-.06-.01-.15,0-.06,0-.15,0-.26,0-.11,0-.2,0-.26s.17-.09,.5-.11c0-.17-.01-.31-.01-.41,0-.47,.08-.81,.25-1.03,.15-.2,.36-.35,.65-.46,.26-.1,.52-.15,.8-.15,.03,0,.04,.01,.06,.04,0,0,.03,.12,.07,.33s.07,.33,.07,.34Z"/><path class="e" d="M49.26,61.94c0,.55-.18,1.02-.54,1.42-.37,.4-.83,.61-1.38,.61s-1.01-.2-1.38-.6c-.36-.39-.54-.86-.54-1.41s.18-1.02,.54-1.41c.37-.4,.83-.59,1.38-.59s1,.2,1.37,.59c.36,.39,.55,.85,.55,1.4Zm-.84,0c0-.32-.1-.6-.3-.82-.21-.24-.47-.36-.79-.36s-.58,.12-.79,.36c-.2,.23-.3,.51-.3,.83s.1,.59,.3,.82c.21,.25,.47,.37,.78,.37s.58-.12,.79-.37c.2-.23,.3-.51,.3-.82Z"/><path class="e" d="M53.41,61.94c0,.55-.18,1.02-.54,1.42-.37,.4-.83,.61-1.38,.61s-1.01-.2-1.38-.6c-.36-.39-.54-.86-.54-1.41s.18-1.02,.54-1.41c.37-.4,.83-.59,1.38-.59s1,.2,1.37,.59c.36,.39,.55,.85,.55,1.4Zm-.84,0c0-.32-.1-.6-.3-.82-.21-.24-.47-.36-.79-.36s-.58,.12-.79,.36c-.2,.23-.3,.51-.3,.83s.1,.59,.3,.82c.21,.25,.47,.37,.78,.37s.58-.12,.79-.37c.2-.23,.3-.51,.3-.82Z"/><path class="e" d="M57.78,58.34c0,.34-.02,.85-.05,1.53s-.05,1.19-.05,1.53c0,1.04,.02,1.83,.07,2.37v.05s-.03,.04-.1,.05c-.05,0-.12,0-.21,0-.11,0-.16-.01-.16-.01-.04,0-.1,0-.17,.01-.08,0-.13,.01-.17,.01-.04,0-.06-.09-.07-.28,0-.18-.02-.28-.03-.28-.02,0-.04,.03-.06,.05-.36,.39-.78,.59-1.25,.59-.53,0-.97-.2-1.32-.61-.33-.38-.49-.85-.49-1.39s.16-1.04,.49-1.42c.34-.4,.79-.6,1.34-.6,.33,0,.62,.1,.87,.29,.11,.1,.23,.2,.34,.3,.02,0,.03-.03,.03-.06v-1.28c0-.09,0-.22-.01-.4,0-.18-.01-.31-.01-.4,0-.06,.02-.1,.06-.1,.1,0,.24,0,.44-.03,.19-.02,.34-.03,.43-.03,.04,0,.07,.03,.07,.08Zm-.99,3.61c0-.32-.1-.6-.29-.84-.21-.26-.47-.38-.78-.38-.33,0-.59,.13-.8,.38-.2,.24-.3,.52-.3,.86s.1,.59,.31,.83c.21,.25,.48,.37,.79,.37s.58-.13,.78-.38c.19-.23,.29-.52,.29-.84Z"/></g><path class="h" d="M61.92,64.15c-.34-.48-.67-.93-1-1.39-.55-.79-1.08-1.6-1.51-2.47-.19-.39-.36-.79-.51-1.19-.26-.72-.16-1.43,.16-2.11,.85-1.77,3.05-2.35,4.65-1.21,.89,.64,1.34,1.53,1.31,2.63,0,.45-.18,.86-.35,1.27-.44,1.03-1.03,1.98-1.65,2.9-.33,.49-.67,.96-1.01,1.43-.02,.04-.05,.07-.1,.13m-.03-7.33c-.84,0-1.51,.68-1.51,1.51,0,.84,.68,1.52,1.52,1.52,.83,0,1.51-.68,1.51-1.51,0-.85-.67-1.52-1.53-1.52"/><path class="f" d="M63.41,58.35c0,.84-.68,1.52-1.52,1.52s-1.52-.68-1.52-1.52,.68-1.52,1.52-1.52,1.52,.68,1.52,1.52"/><path class="g" d="M62.85,64.15c-.34-.48-.67-.93-1-1.39-.55-.79-1.08-1.6-1.51-2.47-.19-.39-.36-.79-.51-1.19-.26-.72-.16-1.43,.16-2.11,.85-1.77,3.05-2.35,4.65-1.21,.89,.64,1.34,1.53,1.31,2.63,0,.45-.18,.86-.35,1.27-.44,1.03-1.03,1.98-1.65,2.9-.33,.49-.67,.96-1.01,1.43-.02,.04-.05,.07-.1,.13m-.03-7.33c-.84,0-1.51,.68-1.51,1.51,0,.84,.68,1.52,1.52,1.52,.83,0,1.51-.68,1.51-1.51,0-.85-.67-1.52-1.53-1.52"/><g><path class="d" d="M14.56,64.06c-1.78,0-2.62-1.06-2.62-2.52v-3.35c0-.15,.07-.23,.23-.23h3.43c.16,0,.24,.08,.24,.23v3.5c0,.93,.27,1.31,1.06,1.31h3.51c.15,0,.23,.08,.23,.24v.57c0,.16-.08,.24-.23,.24h-5.85Z"/><path class="d" d="M25.34,61.91c-.15,0-.23-.08-.23-.24v-.57c0-.16,.08-.24,.23-.24h1.14c.56,0,1.01-.23,1.01-.92,0-.64-.45-.92-1.01-.92h-1.91v4.81c0,.16-.08,.24-.24,.24h-3.07c-.15,0-.23-.08-.23-.24v-5.63c0-.15,.08-.23,.23-.23h7.65c1.17,0,2.09,.73,2.09,2s-1.01,1.94-2.33,1.94h-3.34Z"/><path class="d" d="M34.4,64.06c-1.69,0-2.93-1.28-2.93-3.05s1.17-3.05,2.93-3.05h6.09c.16,0,.24,.08,.24,.23v.57c0,.16-.08,.24-.24,.24h-4c-.78,0-1.06,.3-1.06,1.4v.98c0,1.22,.32,1.63,1.06,1.63h4.03c.15,0,.23,.08,.23,.24v.57c0,.16-.08,.24-.23,.24h-6.13Z"/></g></g></g></g></g></svg>