<svg width="762" height="449" viewBox="0 0 762 449" fill="none" xmlns="http://www.w3.org/2000/svg">
<path opacity="0.2" d="M34.7607 448H733.865C733.865 448 847.077 103.852 619.301 155.806C452.01 193.963 406.382 -43.4765 234.361 7.10281C95.7887 47.8482 253.711 232.325 91.6241 232.325C-30.7226 232.325 -9.45095 428.162 34.7638 448H34.7607Z" fill="#ABC7F2"/>
<path d="M634.806 181.891H537.27C529.301 181.891 521.926 184.151 515.992 187.944C510.058 184.148 502.683 181.891 494.714 181.891H397.178C388.148 181.891 379.882 184.792 373.609 189.543C367.337 184.792 359.071 181.891 350.041 181.891H252.504C233.031 181.891 217.096 195.366 217.096 211.835V361.524C217.096 377.993 670.218 364.85 670.218 348.378V211.835C670.218 195.366 654.283 181.891 634.809 181.891H634.806Z" fill="#FFCFA2"/>
<path d="M645.758 348.112H241.55C239.722 348.112 238.241 349.594 238.241 351.422V395.768C238.241 397.595 239.722 399.077 241.55 399.077H645.758C647.585 399.077 649.066 397.595 649.066 395.768V351.422C649.066 349.594 647.585 348.112 645.758 348.112Z" fill="#ABC7F2"/>
<path d="M232.677 399.077L220.502 440.47C219.396 444.232 222.215 448.003 226.136 448.003C228.288 448.003 230.266 446.827 231.293 444.937L256.227 399.08H232.68L232.677 399.077Z" fill="#FFB684"/>
<path d="M654.631 399.077L666.806 440.47C667.911 444.232 665.093 448.003 661.172 448.003C659.02 448.003 657.042 446.827 656.015 444.937L631.081 399.08H654.628L654.631 399.077Z" fill="#FFB684"/>
<path d="M654.299 399.795H231.7C219.621 399.795 209.257 391.178 207.048 379.296L184.806 259.572C182.275 245.952 191.262 232.859 204.877 230.327C218.489 227.795 231.58 236.785 234.111 250.405L247.313 321.468L639.183 322.682L651.961 259.127C654.691 245.544 667.908 236.747 681.486 239.481C695.063 242.212 703.854 255.438 701.124 269.017L678.882 379.656C676.528 391.367 666.243 399.795 654.299 399.795Z" fill="#FFE5CE"/>
<path d="M635.255 363.272H247.149C243.904 363.272 241.262 360.63 241.262 357.383V326.703C241.262 323.456 243.904 320.814 247.149 320.814H635.255C638.5 320.814 641.142 323.456 641.142 326.703V357.383C641.142 360.63 638.5 363.272 635.255 363.272ZM247.149 322.122C244.624 322.122 242.57 324.177 242.57 326.703V357.383C242.57 359.909 244.624 361.964 247.149 361.964H635.255C637.78 361.964 639.834 359.909 639.834 357.383V326.703C639.834 324.177 637.78 322.122 635.255 322.122H247.149Z" fill="#FFB684"/>
<path d="M251.601 335.272C252.726 341.683 255.724 347.556 260.221 352.253C260.815 352.876 261.756 351.931 261.162 351.311C256.808 346.766 253.971 341.114 252.884 334.918C252.735 334.074 251.449 334.431 251.598 335.272H251.601Z" fill="#FFB684"/>
<path d="M256.495 329.538C257.772 332.87 259.045 336.202 260.322 339.533C260.625 340.327 261.914 339.982 261.608 339.179C260.331 335.847 259.058 332.516 257.781 329.184C257.478 328.391 256.189 328.735 256.495 329.538Z" fill="#FFB684"/>
<path d="M339.281 329.421C333.578 332.513 329.066 337.384 326.44 343.32C326.096 344.098 327.246 344.777 327.59 343.993C330.134 338.244 334.428 333.568 339.954 330.575C340.71 330.167 340.037 329.013 339.281 329.424V329.421Z" fill="#FFB684"/>
<path d="M338.656 330.755C336.457 334.362 335.145 338.316 334.716 342.517C334.627 343.371 335.964 343.364 336.049 342.517C336.457 338.553 337.736 334.826 339.806 331.428C340.255 330.695 339.101 330.022 338.656 330.755Z" fill="#FFB684"/>
<path d="M505.281 333.723C508.937 338.076 511.755 343.017 513.648 348.381C513.932 349.184 515.221 348.839 514.934 348.027C512.962 342.438 510.033 337.321 506.222 332.781C505.669 332.124 504.731 333.072 505.281 333.723Z" fill="#FFB684"/>
<path d="M505.925 333.869C512.754 336.094 518.956 339.764 524.198 344.676C524.824 345.264 525.769 344.322 525.14 343.734C519.73 338.667 513.325 334.88 506.279 332.585C505.461 332.32 505.11 333.606 505.925 333.872V333.869Z" fill="#FFB684"/>
<path d="M601.812 330.569C608.119 334.099 613.058 339.653 615.769 346.364C616.085 347.151 617.377 346.807 617.055 346.01C614.211 338.971 609.114 333.129 602.485 329.418C601.736 328.998 601.063 330.151 601.812 330.569Z" fill="#FFB684"/>
<path d="M612.751 333.208C617.573 336.066 621.308 340.377 623.406 345.583C623.722 346.37 625.014 346.026 624.692 345.229C622.461 339.691 618.565 335.105 613.424 332.057C612.685 331.618 612.012 332.772 612.751 333.208Z" fill="#FFB684"/>
<path d="M653.796 320.134C654.631 306.501 657.06 292.991 661.089 279.936C662.944 273.927 664.859 267.586 668.433 262.341C671.848 257.331 677.865 253.137 684.209 254.467C689.711 255.618 693.834 262.414 690.463 267.488C689.985 268.205 691.142 268.872 691.613 268.161C694.374 264.004 692.703 258.393 689.047 255.343C684.611 251.638 678.143 252.587 673.539 255.457C667.895 258.975 664.865 265.199 662.622 271.224C659.885 278.57 657.734 286.153 656.075 293.809C654.198 302.477 653.003 311.283 652.463 320.134C652.409 320.991 653.746 320.988 653.796 320.134Z" fill="#FFB684"/>
<path d="M205.872 244.21C216.006 244.833 218.837 257.809 221.153 265.623C223.934 275.011 226.057 284.585 227.549 294.264C227.678 295.112 228.964 294.751 228.835 293.91C227.173 283.119 224.721 272.46 221.453 262.041C219.005 254.224 215.674 243.48 205.872 242.876C205.016 242.822 205.019 244.156 205.872 244.21Z" fill="#FFB684"/>
<path opacity="0.2" d="M275.831 95.6325C288.816 82.6424 288.816 61.5812 275.831 48.5911C262.846 35.601 241.793 35.601 228.808 48.5911C215.823 61.5812 215.823 82.6424 228.808 95.6325C241.793 108.623 262.846 108.623 275.831 95.6325Z" fill="#718097"/>
<path d="M251.73 77.432C251.667 77.432 251.601 77.4162 251.544 77.3846C251.411 77.3151 251.326 77.176 251.326 77.0242V53.5348C251.326 53.3104 251.506 53.1302 251.73 53.1302C251.955 53.1302 252.135 53.3104 252.135 53.5348V76.2498L268.345 64.9492C268.528 64.8228 268.781 64.867 268.907 65.0503C269.033 65.2337 268.989 65.4866 268.806 65.613L251.961 77.3593C251.892 77.4067 251.813 77.432 251.73 77.432Z" fill="#6696DD"/>
<path d="M251.364 44.8547C251.364 44.3236 251.793 43.8937 252.324 43.8937C252.855 43.8937 253.285 44.3236 253.285 44.8547C253.285 45.3857 252.855 45.8156 252.324 45.8156C251.793 45.8156 251.364 45.3857 251.364 44.8547Z" fill="#6696DE"/>
<path d="M251.364 99.3726C251.364 98.8415 251.793 98.4116 252.324 98.4116C252.855 98.4116 253.285 98.8415 253.285 99.3726C253.285 99.9036 252.855 100.334 252.324 100.334C251.793 100.334 251.364 99.9036 251.364 99.3726Z" fill="#6696DE"/>
<path d="M279.571 71.1543C280.102 71.1543 280.532 71.5841 280.532 72.1152C280.532 72.6462 280.102 73.0761 279.571 73.0761C279.04 73.0761 278.611 72.6462 278.611 72.1152C278.611 71.5841 279.04 71.1543 279.571 71.1543Z" fill="#6696DE"/>
<path d="M225.074 71.1543C225.605 71.1543 226.035 71.5841 226.035 72.1152C226.035 72.6462 225.605 73.0761 225.074 73.0761C224.543 73.0761 224.114 72.6462 224.114 72.1152C224.114 71.5841 224.543 71.1543 225.074 71.1543Z" fill="#6696DE"/>
<path d="M265.763 95.8449C266.006 96.3159 265.826 96.8943 265.355 97.1409C264.884 97.3843 264.306 97.2041 264.06 96.7331C263.816 96.2621 263.996 95.6837 264.467 95.4371C264.938 95.1906 265.516 95.3739 265.763 95.8449Z" fill="#6696DE"/>
<path d="M240.583 47.4941C240.826 47.9651 240.646 48.5436 240.175 48.7901C239.704 49.0335 239.126 48.8534 238.879 48.3824C238.636 47.9114 238.816 47.3329 239.287 47.0864C239.758 46.843 240.336 47.0231 240.583 47.4941Z" fill="#6696DE"/>
<path d="M265.763 95.8449C266.006 96.3159 265.826 96.8943 265.355 97.1409C264.884 97.3843 264.306 97.2041 264.06 96.7331C263.816 96.2621 263.996 95.6837 264.467 95.4371C264.938 95.1906 265.516 95.3739 265.763 95.8449Z" fill="#6696DE"/>
<path d="M240.583 47.4941C240.826 47.9651 240.646 48.5436 240.175 48.7901C239.704 49.0335 239.126 48.8534 238.879 48.3824C238.636 47.9114 238.816 47.3329 239.287 47.0864C239.758 46.843 240.336 47.0231 240.583 47.4941Z" fill="#6696DE"/>
<path d="M276.219 85.2429C276.674 85.5147 276.822 86.1026 276.55 86.5578C276.279 87.013 275.691 87.1616 275.236 86.8897C274.781 86.6179 274.632 86.0299 274.904 85.5748C275.176 85.1196 275.764 84.971 276.219 85.2429Z" fill="#6696DE"/>
<path d="M229.406 57.3343C229.861 57.6062 230.01 58.1941 229.738 58.6493C229.466 59.1045 228.879 59.2531 228.424 58.9812C227.969 58.7094 227.82 58.1214 228.092 57.6662C228.364 57.211 228.951 57.0625 229.406 57.3343Z" fill="#6696DE"/>
<path d="M228.424 85.2429C227.969 85.5147 227.82 86.1026 228.092 86.5578C228.364 87.013 228.951 87.1616 229.406 86.8897C229.861 86.6179 230.01 86.0299 229.738 85.5748C229.466 85.1196 228.879 84.971 228.424 85.2429Z" fill="#6696DE"/>
<path d="M275.239 57.3343C274.784 57.6062 274.636 58.1941 274.907 58.6493C275.179 59.1045 275.767 59.2531 276.222 58.9812C276.677 58.7094 276.825 58.1214 276.554 57.6662C276.282 57.211 275.694 57.0625 275.239 57.3343Z" fill="#6696DE"/>
<path d="M238.879 95.8449C238.636 96.3159 238.816 96.8943 239.287 97.1409C239.758 97.3843 240.336 97.2041 240.583 96.7331C240.826 96.2621 240.646 95.6837 240.175 95.4371C239.704 95.1906 239.126 95.3739 238.879 95.8449Z" fill="#6696DE"/>
<path d="M264.063 47.4941C263.82 47.9651 264 48.5436 264.47 48.7901C264.941 49.0335 265.519 48.8534 265.766 48.3824C266.009 47.9114 265.829 47.3329 265.358 47.0864C264.888 46.843 264.309 47.0231 264.063 47.4941Z" fill="#6696DE"/>
<path d="M623.791 54.9478H453.643C447.042 54.9478 441.69 60.3016 441.69 66.9059V309.757C441.69 316.361 447.042 321.715 453.643 321.715H623.791C630.393 321.715 635.745 316.361 635.745 309.757V66.9059C635.745 60.3016 630.393 54.9478 623.791 54.9478Z" fill="white"/>
<path d="M624.259 325.315H452.199C444.016 325.315 437.355 318.655 437.355 310.468V65.7047C437.355 57.5145 444.012 50.8543 452.199 50.8543H624.259C632.443 50.8543 639.104 57.5145 639.104 65.7047V310.468C639.104 318.655 632.446 325.315 624.259 325.315ZM452.196 58.5482C448.253 58.5482 445.046 61.7598 445.046 65.7047V310.468C445.046 314.41 448.253 317.621 452.196 317.621H624.256C628.196 317.621 631.406 314.41 631.406 310.468V65.7047C631.406 61.7598 628.199 58.5482 624.256 58.5482H452.196Z" fill="#51497A"/>
<path d="M529.759 67.8131H463.834C461.253 67.8131 459.16 69.9062 459.16 72.4882V138.439C459.16 141.021 461.253 143.115 463.834 143.115H529.759C532.34 143.115 534.433 141.021 534.433 138.439V72.4882C534.433 69.9062 532.34 67.8131 529.759 67.8131Z" fill="#DDEEFF"/>
<path d="M615.551 67.8131H549.625C547.044 67.8131 544.952 69.9062 544.952 72.4882V138.439C544.952 141.021 547.044 143.115 549.625 143.115H615.551C618.132 143.115 620.224 141.021 620.224 138.439V72.4882C620.224 69.9062 618.132 67.8131 615.551 67.8131Z" fill="#C1DFFF"/>
<path d="M529.393 151.267H463.467C460.886 151.267 458.794 153.36 458.794 155.942V221.893C458.794 224.475 460.886 226.568 463.467 226.568H529.393C531.974 226.568 534.066 224.475 534.066 221.893V155.942C534.066 153.36 531.974 151.267 529.393 151.267Z" fill="#C1DFFF"/>
<path d="M615.551 150.96H549.625C547.044 150.96 544.952 153.053 544.952 155.635V221.587C544.952 224.169 547.044 226.262 549.625 226.262H615.551C618.132 226.262 620.224 224.169 620.224 221.587V155.635C620.224 153.053 618.132 150.96 615.551 150.96Z" fill="#DDEEFF"/>
<path d="M529.759 232.324H463.834C461.253 232.324 459.16 234.418 459.16 237V302.951C459.16 305.533 461.253 307.626 463.834 307.626H529.759C532.34 307.626 534.433 305.533 534.433 302.951V237C534.433 234.418 532.34 232.324 529.759 232.324Z" fill="#DDEEFF"/>
<path d="M615.551 232.324H549.625C547.044 232.324 544.952 234.418 544.952 237V302.951C544.952 305.533 547.044 307.626 549.625 307.626H615.551C618.132 307.626 620.224 305.533 620.224 302.951V237C620.224 234.418 618.132 232.324 615.551 232.324Z" fill="#C1DFFF"/>
<path d="M349.592 111.372C349.592 111.372 379.05 136.284 372.804 159.435C367.46 179.245 309.902 212.126 309.902 212.126C309.902 212.126 295.341 201.4 277.103 208.623C272.041 210.627 267.646 210.77 263.94 209.929C257.263 193.308 262.218 178.385 262.218 178.385C256.356 187.587 257.415 200.683 258.559 207.865C252.451 204.476 249.316 198.922 249.316 198.922C244.194 180.525 254.672 141.6 289.613 132.121C324.554 122.644 320.771 97.9248 320.771 97.9248L349.592 111.372Z" fill="#2D2B4E"/>
<path d="M249.439 194.244C245.035 177.32 249.654 159.112 261.826 146.516C267.728 140.406 275.116 135.828 283.268 133.417C288.074 131.994 293.038 131.169 297.759 129.456C301.964 127.929 306.031 125.874 309.659 123.251C315.975 118.683 321.264 112.083 321.843 104.057C321.862 103.788 321.448 103.782 321.426 104.051C320.822 112.424 314.97 119.233 308.246 123.728C304.075 126.516 299.443 128.625 294.637 130.044C289.935 131.431 285.072 132.238 280.446 133.897C265.595 139.227 253.73 151.956 249.345 167.1C246.779 175.961 246.713 185.425 249.035 194.342C249.101 194.601 249.506 194.5 249.439 194.241V194.244Z" fill="#2D2B4E"/>
<path d="M322.525 108.811C325.328 116.568 318.319 124.265 313.242 129.238C307.156 135.196 300.084 139.995 293.436 145.277C281.322 154.899 270.929 167.47 268.891 183.316C267.788 191.889 269.286 200.752 273.7 208.228C273.836 208.459 274.199 208.257 274.064 208.026C265.466 193.469 268.584 175.442 277.776 161.989C282.475 155.111 288.602 149.563 295.133 144.471C301.819 139.255 308.859 134.4 314.78 128.286C319.549 123.361 325.59 116.078 322.93 108.713C322.838 108.464 322.437 108.562 322.525 108.814V108.811Z" fill="#454370"/>
<path d="M322.509 109.567C329.717 116.271 322.629 126.39 317.823 132.057C312.518 138.316 306.224 143.611 300.223 149.168C290.39 158.278 280.266 169.575 279.482 183.673C279.018 191.99 282.317 200.187 288.222 206.019C288.412 206.205 288.709 205.914 288.519 205.725C282.566 199.842 279.324 191.56 279.931 183.183C280.449 176.059 283.552 169.42 287.606 163.636C296.744 150.6 310.812 142.163 320.395 129.516C324.595 123.975 329.113 115.133 322.809 109.27C322.613 109.089 322.316 109.38 322.512 109.564L322.509 109.567Z" fill="#454370"/>
<path d="M285.192 126.81C299.829 130.376 313.931 121.866 320.961 109.216C321.091 108.982 320.734 108.77 320.604 109.004C313.665 121.487 299.762 129.933 285.306 126.409C285.047 126.345 284.933 126.747 285.192 126.81Z" fill="#2D2B4E"/>
<path d="M319.514 321.563L266.196 321.544C263.355 321.544 261.513 318.535 262.818 316.012C264.512 312.737 267.864 309.257 274.446 309.434C286.747 309.766 291.398 298.459 297.715 298.127C304.031 297.795 309.017 304.446 311.678 304.446C314.338 304.446 330.627 303.065 330.627 303.065L319.514 321.563Z" fill="#8D3A5D"/>
<path d="M387.462 400.781C387.462 400.781 363.549 423.825 375.025 441.571C376.738 444.216 381.613 448.126 371.916 447.911C366.105 447.782 357.438 448.923 354.069 445.588C351.728 443.271 350.887 438.384 352.398 431.869C355.485 418.562 347.08 412.562 352.208 407.764C357.336 402.968 364.057 405.405 371.173 392.913C372.636 390.346 382.621 364.903 382.621 364.903L387.459 400.778L387.462 400.781Z" fill="#8D3A5D"/>
<path d="M402.423 192.929C402.423 192.929 404.973 184.005 409.441 181.236C413.909 178.467 418.314 174.001 420.715 175.48C423.117 176.959 427.193 186.929 426.172 191.273C425.155 195.616 418.545 202.314 413.786 202.418C409.485 202.513 402.42 192.929 402.42 192.929H402.423Z" fill="#EEA490"/>
<path d="M361.492 234.977C361.845 235.15 362.24 235.217 362.632 235.173C366.329 234.752 378.81 235.814 394.413 216.943C407.991 200.522 419.173 193.444 419.173 193.444L410.136 177.592C410.136 177.592 412.844 185.817 382.51 201.622C370.968 207.637 367.429 208.882 367.429 208.882C367.429 208.882 335.73 222.371 361.492 234.977Z" fill="#FA9F89"/>
<path d="M392.995 197.645C392.369 199.33 391.348 208.794 394.837 213.434C396.496 215.634 394.009 218.72 390.217 223.3C389.911 223.667 389.588 224.04 389.247 224.403C388.681 225.016 388.065 225.623 387.402 226.221C387.348 226.268 387.291 226.319 387.237 226.372C383.736 229.489 378.889 232.381 372.658 234.297C370.949 234.828 369.135 235.277 367.214 235.64C363.018 236.434 359.927 235.609 357.671 233.769C348.499 226.29 353.096 202.083 353.096 202.083L358.152 165.011L359.337 156.328L360.951 144.499C360.951 144.499 368.08 148.615 371.524 157.368C374.965 166.12 376.327 185.279 380.096 191.563C383.866 197.847 382.495 197.828 384.283 196.722C386.071 195.616 388.966 196.292 391.724 194.955C394.48 193.615 393.62 195.954 392.998 197.645H392.995Z" fill="#75ACF2"/>
<path opacity="0.5" d="M390.366 223.303L389.247 224.403L387.402 226.221C387.348 226.268 387.291 226.319 387.237 226.372C383.736 229.489 378.889 232.381 372.658 234.297C370.949 234.828 369.135 235.277 367.214 235.64C363.018 236.434 359.927 235.609 357.671 233.769C357.934 224.501 359.087 181.135 358.152 165.011C357.829 159.416 358.092 155.907 359.337 156.328C359.368 156.334 359.406 156.353 359.441 156.369C364.977 159.04 376.684 184.856 377.591 190.109C378.494 195.363 372.548 200.537 379.815 199.491C384.76 198.78 372.544 206.929 374.067 208.377C380.687 214.664 371.853 218.631 375.556 218.963C380.788 219.428 382.798 213.482 383.49 216.396C385.528 224.985 388.77 223.256 390.22 223.303C390.315 223.306 390.369 223.306 390.369 223.306L390.366 223.303Z" fill="#4B83DB"/>
<path d="M304.375 242.291C304.363 220.155 335.316 225.759 352.761 239.38C375.827 257.391 446.016 270.427 456.585 298.355C463.707 317.175 447.953 324.427 418.014 318.421C393.57 313.518 367.944 303.292 322.105 297.432C294.684 293.926 290.431 279.575 303.939 247.937L304.375 242.291Z" fill="#FF4F67"/>
<path d="M431.977 315.93C375.603 338.048 301.092 321.19 301.092 321.19C301.092 321.19 296.242 308.11 303.481 297.46C303.481 297.46 307.276 304.399 326.497 298.661C354.088 290.427 379.663 291.423 388.255 294.995C395.235 297.896 445.551 310.604 431.977 315.93Z" fill="#E7254F"/>
<path d="M300.713 246.524C303.885 224.615 322.901 232.846 342.71 242.715C360.689 251.673 435.165 277.824 452.376 315.513C465.224 343.646 416.592 329.254 407.4 327.831C382.763 324.013 367.931 304.746 321.738 303.365C277.053 302.028 283.868 268.107 300.716 246.524H300.713Z" fill="#FF4F67"/>
<path d="M452.79 328.757C417.606 385.09 384.163 415.075 384.163 415.075C384.163 415.075 362.515 412.685 361.346 399.861C361.346 399.861 375.682 378.575 383.297 357.289C393.544 328.65 400.524 328.726 392.78 323.684C386.444 319.562 460.519 316.388 452.793 328.761L452.79 328.757Z" fill="#FF4F67"/>
<path d="M316.85 219.997C314.24 189.904 300.312 151.159 307.624 147.255C314.935 143.355 318.961 143.194 325.369 139.963C333.284 135.971 333.733 134.899 347.946 140.067C362.146 145.232 360.351 145.466 360.351 145.466C360.351 145.466 372.898 176.634 374.115 184.394C375.989 196.336 369.685 199.804 369.685 199.804C369.685 199.804 361.691 220.597 360.679 229.672C360.386 232.318 353.598 235.182 353.598 235.182L305.933 238.814C305.933 238.814 317.571 228.225 316.856 219.997H316.85Z" fill="#FABBA5"/>
<path d="M306.126 187.245C306.126 187.245 314.439 214.964 315.444 219.333C315.558 219.823 315.488 220.382 315.28 221.008C313.63 225.971 295.863 241.507 297.936 245.974C301.064 252.719 316.187 251.439 322.029 251.126C332.343 250.57 358.483 255.22 363.82 246.151C364.297 245.338 362.468 242.639 362.465 242.633C362.414 242.506 361.921 241.248 361.523 239.184C360.834 235.615 360.424 229.634 363.037 222.886V222.879C367.179 212.17 369.606 200.187 369.679 199.817C369.682 199.81 369.682 199.807 369.682 199.807C369.682 199.807 369.685 199.807 369.694 199.801C369.868 199.731 371.853 198.878 373.606 196.804C375.989 193.991 377.948 188.924 374.383 180.506C370.585 171.542 366.977 151.988 360.954 144.502C359.867 143.153 347.848 139.957 347.848 139.957C347.848 139.957 361.093 171.794 357.45 176.858C353.864 181.846 338.39 166.569 329.666 154.15C328.605 152.639 321.173 143.835 318.809 142.552C318.692 142.489 312.275 144.452 305.039 147.875C301.914 149.354 296.83 156.615 306.129 187.245H306.126Z" fill="#75ACF2"/>
<path d="M321.896 142.248C321.896 142.248 329.625 151.656 342.432 149.051C342.432 149.051 342.419 142.716 343.569 136.723C344.04 134.276 345.108 127.284 346.103 124.819C345.911 124.484 345.677 124.142 345.418 123.801H345.411C341.253 118.354 329.404 112.465 329.29 112.409C329.331 112.513 330.627 115.743 330.38 120.51C330.33 121.493 330.213 122.543 330.007 123.646C329.786 124.841 329.458 126.093 328.99 127.389C325.972 135.762 321.896 142.255 321.896 142.255V142.248Z" fill="#FABBA5"/>
<path d="M330.004 123.643C333.221 130.578 343.396 136.622 343.566 136.723C344.037 134.276 345.105 127.284 346.1 124.819C346.163 124.651 346.233 124.509 346.296 124.386C346.015 124.177 345.721 123.984 345.411 123.801H345.405C340.757 121.022 333.076 120.637 330.374 120.51C330.324 121.493 330.207 122.543 330.001 123.646L330.004 123.643Z" fill="#E58F78"/>
<path d="M303.323 154.959C307.437 150.176 312.613 146.519 318.506 144.259C318.752 144.164 318.661 143.759 318.411 143.854C312.449 146.14 307.203 149.816 303.039 154.655C302.865 154.858 303.149 155.158 303.326 154.956L303.323 154.959Z" fill="#4B83DB"/>
<path d="M369.603 164.442C370.81 170.723 373.543 176.599 375.066 182.801C375.812 185.842 376.409 189.133 375.73 192.243C374.968 195.73 372.589 198.963 368.882 199.482C368.617 199.52 368.715 199.924 368.977 199.886C375.736 198.944 376.997 191.105 376.071 185.576C374.848 178.284 371.401 171.589 370.007 164.344C369.957 164.082 369.552 164.176 369.603 164.439V164.442Z" fill="#4B83DB"/>
<path d="M402.882 192.452C402.882 192.452 403.359 184.391 405.239 182.235C407.119 180.079 413.758 177.819 415.236 175.417C416.715 173.015 418.14 175.411 417.018 178.24C415.897 181.069 408.13 190.093 408.13 190.093L402.882 192.452Z" fill="#EEA490"/>
<path d="M415.995 175.771C416.124 177.715 416.371 179.624 415.6 181.473C414.895 183.168 413.678 184.571 412.478 185.937C412.304 186.136 412.588 186.439 412.765 186.237C413.994 184.837 415.265 183.389 415.988 181.647C416.778 179.747 416.541 177.788 416.409 175.784C416.39 175.518 415.976 175.502 415.995 175.768V175.771Z" fill="#DC826F"/>
<path d="M408.196 181.755C408.281 182.763 408.563 183.702 409.056 184.584C409.185 184.818 409.552 184.619 409.419 184.385C408.964 183.572 408.689 182.703 408.61 181.771C408.588 181.508 408.171 181.489 408.196 181.755Z" fill="#DC826F"/>
<path d="M416.112 192.395C416.977 193.198 418.017 193.735 419.173 193.956C419.433 194.007 419.556 193.608 419.293 193.558C418.207 193.346 417.224 192.859 416.409 192.104C416.213 191.924 415.913 192.208 416.108 192.392L416.112 192.395Z" fill="#DC826F"/>
<path d="M367.542 207.899C367.542 207.899 376.952 203.095 378.624 199.833C386.195 185.048 385.699 185.684 388.659 184.407C395.683 181.375 404.035 183.493 404.284 184.495C404.512 185.406 400.319 185.598 399.052 185.463C396.619 185.2 393.187 186.708 393.187 186.708C393.187 186.708 397.646 186.67 399.842 187.011C401.564 187.28 407.608 190.435 407.618 190.9C407.653 192.562 403.485 191.016 399.949 190.947C397.443 190.9 393.431 192.047 393.431 192.047C393.431 192.047 398.489 191.548 400.654 191.838C403.062 192.164 406.31 197.026 406.237 197.721C406.114 198.916 403.981 196.507 400.654 196.422C397.99 196.352 393.857 196.713 393.857 196.713C393.857 196.713 396.947 197.158 398.818 197.433C401.036 197.756 402.717 202.813 402.152 203.202C401.109 203.926 400.145 201.249 396.726 200.882C394.973 200.695 394.837 205.257 392.726 208.004C389.99 211.566 386.593 211.601 380.968 216.652C376.466 220.698 367.539 207.899 367.539 207.899H367.542Z" fill="#FABBA5"/>
<path d="M319.081 262.462C318.019 265.765 316.976 269.488 317.969 272.937C319.018 276.582 322.316 278.355 325.723 279.338C329.044 280.299 332.482 280.881 335.837 281.699C339.597 282.616 343.332 283.624 347.045 284.718C354.164 286.82 361.365 289.068 368.045 292.346C374.481 295.507 379.793 300.163 385.499 304.414C391.462 308.859 398.126 311.789 404.761 315.048C407.501 316.395 410.961 317.748 413.125 319.963C414.727 321.601 414.285 323.229 412.923 324.822C412.298 325.552 411.798 325.814 412.108 326.854C412.38 327.768 412.809 327.768 413.356 328.4C413.956 329.092 414.073 329.959 413.884 330.837C413.634 331.991 412.92 333.018 412.231 333.945C411.018 335.569 409.852 337.153 408.876 338.936C405.529 345.046 403.693 351.924 401.131 358.379C395.927 371.478 389.038 384.325 377.692 393.093C377.227 393.454 376.772 392.66 377.23 392.303C387.806 384.129 394.476 372.212 399.478 360.042C401.946 354.036 403.801 347.774 406.436 341.838C407.808 338.746 409.542 336.037 411.546 333.331C412.067 332.63 412.778 331.719 412.93 330.84C413.227 329.14 412.307 328.887 411.451 328.09C410.948 327.626 410.667 327.038 410.8 326.346C410.951 325.549 411.637 324.917 412.14 324.329C412.743 323.621 413.479 322.897 413.268 321.828C413.05 320.741 411.729 319.932 410.872 319.398C407.836 317.504 404.594 315.955 401.365 314.422C395.014 311.41 388.997 308.271 383.411 303.966C377.581 299.471 371.988 295.036 365.211 292.023C358.218 288.916 350.78 286.681 343.421 284.623C339.357 283.485 335.262 282.455 331.142 281.532C327.966 280.821 324.62 280.312 321.726 278.734C315.368 275.276 316.31 268.094 318.199 262.212C318.379 261.656 319.261 261.893 319.081 262.455V262.462Z" fill="#E7254F"/>
<path d="M334.418 256.696C333.015 258.769 330.857 259.832 328.535 260.597C325.261 261.674 321.843 262.209 318.408 262.326C317.82 262.345 317.82 261.431 318.408 261.412C321.318 261.311 324.19 260.9 326.993 260.11C329.495 259.405 332.112 258.479 333.632 256.231C333.96 255.748 334.75 256.203 334.422 256.693L334.418 256.696Z" fill="#FF4F67"/>
<path d="M406.165 323.899C402.758 325.916 398.875 326.529 395.011 325.682C394.435 325.555 394.679 324.676 395.254 324.8C398.881 325.593 402.509 324.999 405.703 323.109C406.209 322.808 406.67 323.599 406.165 323.899Z" fill="#E7254F"/>
<path d="M399.763 328.242C398.246 327.651 396.793 326.943 395.402 326.102C394.9 325.799 395.358 325.008 395.864 325.312C397.188 326.115 398.565 326.801 400.006 327.36C400.55 327.572 400.313 328.454 399.763 328.242Z" fill="#E7254F"/>
<path d="M365.486 107.876C365.486 107.876 372.371 102.518 369.025 92.4594C365.675 82.398 362.199 78.5605 354.259 76.4458C346.318 74.3311 337.101 69.9088 329.726 73.427C318.301 78.8798 311.795 92.8546 314.702 107.06C317.605 121.266 327.799 117.289 331.423 121.579C335.047 125.865 365.489 107.876 365.489 107.876H365.486Z" fill="#2D2B4E"/>
<path d="M330.412 122.938C338.583 133.755 348.843 136.002 351.504 135.93C354.164 135.857 354.831 133.657 359.962 128.862C363.498 125.555 365.119 121.977 365.549 119.075C365.742 117.766 365.694 116.594 365.467 115.645C365.397 115.348 365.343 115.08 365.312 114.833C364.999 112.544 366.181 112.171 367.318 108.66C367.584 107.841 367.593 106.697 367.445 105.401C367.378 104.825 367.28 104.218 367.157 103.599C366.257 99.0059 364.083 93.6132 364.083 93.6132C350.322 77.1412 333.758 87.4334 330.785 93.6132C327.812 99.7898 322.241 112.121 330.409 122.941L330.412 122.938Z" fill="#FABBA5"/>
<path d="M342.833 99.3789C342.833 99.3789 345.942 95.4434 353.56 99.9953C358.088 102.701 356.679 104.781 353.981 103.611C351.282 102.445 351.222 99.5211 342.833 99.3789Z" fill="#752D4B"/>
<path d="M363.906 106.605C365.068 106.693 366.446 105.666 367.448 105.401C367.381 104.825 367.283 104.218 367.16 103.599C366.806 103.51 366.38 103.488 365.865 103.558C362.3 104.051 361.959 106.46 363.906 106.605Z" fill="#752D4B"/>
<path d="M359.972 111.865C359.555 113.132 362.49 109.861 363.824 109.94C365.043 110.013 366.269 111.138 367.445 110.891C367.745 110.828 367.742 110.395 367.445 110.325C366.92 110.205 366.219 109.959 365.524 109.45C364.159 108.451 361.116 108.394 359.975 111.865H359.972Z" fill="#752D4B"/>
<path d="M362.016 111.922C362.408 112.295 362.866 112.62 363.406 112.586C363.947 112.551 364.446 112.279 364.857 111.925C365.35 111.501 365.637 110.819 365.362 110.234C365.192 109.87 365.024 109.523 365.024 109.523L363.542 109.434L362.825 109.633L362.37 110.221L361.59 110.746C361.59 110.746 361.46 111.397 362.016 111.925V111.922Z" fill="#752D4B"/>
<path d="M353.323 108.625C353.323 108.625 353.475 105.116 352.211 103.634C350.947 102.151 345.996 100.808 344.802 101.554C343.607 102.3 342.836 103.94 342.836 103.94C342.836 103.94 349.974 101.788 353.323 108.622V108.625Z" fill="#EF9F8A"/>
<path d="M348.031 106.599C347.728 107.733 348.404 108.9 349.538 109.203C350.673 109.507 351.839 108.83 352.142 107.696C352.24 107.323 352.234 106.946 352.142 106.599C352.053 106.26 351.88 105.951 351.639 105.695C350.865 105.483 350.098 105.296 349.374 105.141C348.887 105.315 348.473 105.66 348.221 106.128C348.142 106.273 348.075 106.431 348.031 106.599Z" fill="#752D4B"/>
<path d="M342.71 104.414C342.64 105.356 344.372 105.299 345.314 105.341C345.541 105.35 345.772 105.35 345.999 105.347C346.713 105.334 347.428 105.284 348.138 105.356C348.751 105.416 349.352 105.574 349.917 105.818C351.608 106.539 352.992 107.989 353.548 109.747C353.526 109.63 353.112 105.205 348.938 103.599C345.905 102.432 342.754 103.735 342.707 104.414H342.71Z" fill="#752D4B"/>
<g opacity="0.2">
<path d="M337.932 108.182C339.547 107.604 341.544 107.835 343.127 108.786C343.993 109.308 344.862 109.826 345.728 110.348C347.431 111.372 349.232 112.488 349.933 114.09C350.135 114.549 350.202 115.035 350.063 115.475C349.722 116.572 348.461 116.692 347.307 116.657C344.205 116.565 341.01 115.579 338.435 113.923C338.024 113.657 337.623 113.37 337.25 113.06C335.319 111.457 335.667 108.998 337.929 108.185L337.932 108.182Z" fill="#ED4C62"/>
</g>
<g opacity="0.2">
<path d="M361.065 117.036C360.888 117.782 361.258 118.187 361.64 118.471C362.661 119.233 363.947 119.486 365.211 119.173C365.321 119.148 365.435 119.113 365.549 119.075C365.742 117.766 365.694 116.594 365.467 115.645C365.397 115.348 365.343 115.08 365.312 114.833C365.227 114.833 365.141 114.846 365.056 114.862C364.642 114.944 364.225 115.029 363.808 115.111C362.993 115.272 362.12 115.468 361.47 116.24C361.283 116.461 361.135 116.736 361.065 117.033V117.036Z" fill="#ED4C62"/>
</g>
<path d="M361.804 106.915C360.035 107.285 358.885 108.843 358.572 110.572C358.193 112.687 359.077 114.798 359.899 116.695C360.285 117.586 360.815 118.816 359.937 119.597C358.957 120.469 356.907 120.346 355.715 120.276C355.46 120.26 355.453 119.859 355.712 119.875C356.708 119.932 357.965 119.992 358.91 119.641C360.86 118.914 359.64 117.153 359.147 115.958C358.594 114.621 358.13 113.221 358.092 111.764C358.032 109.459 359.305 107.029 361.697 106.529C361.95 106.475 362.057 106.864 361.804 106.915Z" fill="#E58F78"/>
<g opacity="0.2">
<path d="M358.752 118.383C357.545 118.253 356.348 118.323 355.166 118.591C354.663 118.705 354.815 119.492 355.318 119.379C356.436 119.123 357.552 119.059 358.692 119.179C359.204 119.233 359.267 118.437 358.755 118.38L358.752 118.383Z" fill="#FF6576"/>
</g>
<path d="M356.546 89.1372C356.546 89.1372 350.732 86.9403 346.028 91.9442C341.326 96.9481 332.671 102.948 330.895 103.232C329.12 103.513 329.543 111.659 329.543 111.659C329.543 111.659 326.146 115.285 329.056 120.924C329.056 120.924 322.433 116.486 321.226 110.891C320.019 105.296 329.293 88.6757 335.354 84.1397C341.411 79.6036 352.233 80.7606 354.647 82.5908C357.061 84.421 356.546 89.1372 356.546 89.1372Z" fill="#2D2B4E"/>
<path d="M335.98 104.851C335.98 104.851 333.67 97.8205 329.294 99.5622C324.917 101.304 327.328 107.316 328.226 109.617C329.186 112.08 330.055 112.33 332.889 112.371C335.724 112.415 335.98 104.851 335.98 104.851Z" fill="#FABBA5"/>
<path d="M332.914 111.609C331.038 113.278 329.12 111.252 328.421 109.551C327.868 108.201 327.458 106.633 327.268 105.186C326.999 103.14 327.246 100.311 329.695 99.7234C331.486 99.2935 333.038 100.425 333.875 101.927C334.005 102.161 334.381 101.98 334.248 101.746C333.354 100.144 331.752 98.9522 329.834 99.2809C327.549 99.6729 326.74 101.901 326.756 103.988C326.775 106.213 327.423 109.216 328.744 111.068C329.774 112.513 331.752 113.192 333.18 111.922C333.379 111.745 333.11 111.429 332.908 111.606L332.914 111.609Z" fill="#E58F78"/>
<path d="M331.215 101.762C331.768 102.126 332.14 102.635 332.33 103.286C332.264 103.959 332.036 104.56 331.654 105.088C331.622 105.262 331.55 105.432 331.543 105.616C331.509 106.738 333.588 108.097 332.652 109.229C332.482 109.434 332.823 109.671 332.994 109.466C333.398 108.976 333.458 108.483 333.234 107.888C332.75 106.595 331.67 106.469 332.377 104.759C332.962 103.346 332.706 102.41 331.452 101.421C331.24 101.253 331.006 101.598 331.215 101.762Z" fill="#E58F78"/>
<path d="M356.547 89.1372C356.547 89.1372 362.863 91.2519 365.836 98.8794C366.121 99.6128 366.427 100.299 366.55 101C367.539 106.608 370.472 84.2187 354.647 82.5939C338.823 80.9692 356.547 89.1404 356.547 89.1404V89.1372Z" fill="#2D2B4E"/>
<path d="M356.142 86.9909C343.402 82.8658 334.223 98.7846 321.562 95.494C321.306 95.4276 321.16 95.8164 321.419 95.886C334.144 99.1924 343.348 83.2862 356 87.3829C356.253 87.4651 356.395 87.0731 356.142 86.9909Z" fill="#454370"/>
<path d="M356.152 86.8487C351.358 82.4074 344.637 85.0279 339.528 87.3513C335.92 88.9918 332.333 90.3226 328.314 90.3005C324.326 90.2784 320.452 89.0993 317.094 86.9688C316.869 86.8265 316.629 87.1679 316.857 87.3102C322.187 90.6893 328.823 91.6534 334.855 89.7094C341.184 87.6705 349.611 81.3453 355.836 87.1173C356.028 87.2975 356.348 87.0288 356.152 86.8455V86.8487Z" fill="#454370"/>
<path d="M359.052 85.8719C362.553 86.7696 365.571 89.0266 367.416 92.1497C368.291 93.6322 368.873 95.2759 369.11 96.9828C369.378 98.9174 369.265 100.865 369.871 102.745C370.977 106.172 373.031 109.055 373.742 112.658C374.545 116.726 374.206 120.905 372.841 124.816C372.753 125.068 373.145 125.211 373.233 124.958C374.529 121.247 374.924 117.286 374.298 113.398C373.988 111.467 373.432 109.576 372.642 107.79C371.739 105.745 370.491 103.836 369.991 101.63C369.536 99.616 369.754 97.5202 369.249 95.5098C368.854 93.942 368.162 92.4594 367.252 91.1287C365.334 88.3312 362.474 86.3271 359.194 85.4863C358.938 85.4199 358.793 85.8118 359.052 85.8782V85.8719Z" fill="#2D2B4E"/>
<path d="M358.904 88.4165C355.204 87.7938 351.361 88.9191 348.707 91.6155C347.194 93.1549 346.081 95.0831 344.29 96.338C342.729 97.4317 340.877 98.007 339.209 98.9079C337.948 99.5907 336.76 100.466 336.09 101.769C335.183 103.526 335.445 105.53 335.49 107.43C335.6 112.045 332.51 116.031 332.956 120.637C332.981 120.902 333.388 120.823 333.363 120.558C332.959 116.357 335.755 112.753 335.91 108.612C335.992 106.428 335.43 104.101 336.435 102.053C337.269 100.359 338.924 99.4706 340.571 98.7024C341.793 98.1303 343.054 97.6277 344.195 96.8975C345.585 96.0061 346.596 94.7512 347.626 93.4868C350.464 90.0033 354.319 88.072 358.869 88.8369C359.131 88.8812 359.163 88.4671 358.901 88.4228L358.904 88.4165Z" fill="#2D2B4E"/>
<path d="M351.207 76.8377C355.558 76.038 360.49 77.8619 363.612 80.9534C367.085 84.3894 366.487 89.0013 365.584 93.3667C365.53 93.629 365.944 93.6575 365.998 93.3983C366.974 88.682 367.438 83.8836 363.568 80.3401C360.319 77.3688 355.498 75.6239 351.124 76.4268C350.862 76.4742 350.941 76.882 351.203 76.8346L351.207 76.8377Z" fill="#2D2B4E"/>
<path d="M348.714 120.453C348.575 121.636 348.379 125.675 351.782 127.562C355.128 129.424 356.948 125.34 357.466 124.19C357.567 123.959 357.621 123.813 357.621 123.813C357.618 123.813 357.621 123.81 357.621 123.81C357.593 123.715 357.141 122.29 356.262 121.838C355.918 121.658 355.504 121.629 355.03 121.895C355.024 121.895 355.021 121.901 355.021 121.901C355.021 121.901 354.177 120.422 352.903 120.836C351.775 121.196 350.047 121.174 349.099 120.45C349.099 120.45 349.09 120.444 349.086 120.441C349.042 120.403 348.992 120.368 348.951 120.324C348.919 120.336 348.894 120.352 348.868 120.368C348.815 120.393 348.764 120.425 348.717 120.456L348.714 120.453Z" fill="#FF676D"/>
<path d="M351.2 124.91L351.311 124.936C351.728 125.331 352.151 125.732 352.663 125.979C352.856 126.074 353.064 126.146 353.213 126.304C353.362 126.462 353.428 126.744 353.289 126.93C353.156 127.11 352.907 127.12 352.704 127.082C352.044 126.962 351.472 126.541 351.007 126.039C350.834 125.852 350.666 125.615 350.704 125.347C350.739 125.103 350.973 124.898 351.2 124.914V124.91Z" fill="#FF8091"/>
<path d="M348.954 120.314C348.998 120.355 349.039 120.396 349.083 120.438C349.086 120.438 349.093 120.444 349.096 120.447C352.025 123.115 357.618 123.81 357.618 123.81C357.618 123.81 356.18 126.149 353.567 125.739C351.292 125.384 349.336 121.392 348.865 120.365C348.891 120.349 348.916 120.336 348.947 120.321L348.954 120.314Z" fill="white"/>
<path d="M349.21 120.298C348.872 120.431 348.556 120.64 348.277 120.89C348.189 120.969 348.082 120.829 348.17 120.75C348.461 120.491 348.789 120.27 349.14 120.131C349.244 120.09 349.314 120.254 349.21 120.295V120.298Z" fill="#F13A56"/>
<path d="M357.871 123.437C357.668 123.665 357.643 123.99 357.779 124.243C357.833 124.345 357.675 124.427 357.621 124.326C357.444 123.997 357.51 123.583 357.763 123.298C357.842 123.21 357.95 123.349 357.871 123.437Z" fill="#F13A56"/>
<path d="M452.828 316.486C449.223 306.693 441.674 299.252 433.569 293C424.109 285.701 413.887 279.316 403.311 273.772C397.412 270.68 391.37 267.873 385.218 265.325C384.672 265.098 384.435 265.989 384.975 266.214C395.743 270.674 406.155 275.981 416.074 282.104C425.25 287.765 434.571 293.945 442.113 301.721C446.325 306.061 449.845 311.03 451.943 316.736C452.146 317.286 453.037 317.049 452.831 316.493L452.828 316.486Z" fill="#E7254F"/>
<g opacity="0.2">
<path d="M353.722 129.785C352.347 128.972 350.834 128.637 349.244 128.836C348.732 128.9 348.837 129.696 349.352 129.63C350.717 129.459 352.05 129.718 353.235 130.42C353.674 130.679 354.167 130.047 353.722 129.785Z" fill="#FF6576"/>
</g>
<path d="M419.543 210.668L401.535 214.13C400.407 214.348 399.491 213.343 399.491 211.885V170.508C399.491 169.051 400.407 167.695 401.535 167.48L419.543 164.018C420.671 163.8 421.587 164.805 421.587 166.263V207.64C421.587 209.097 420.671 210.454 419.543 210.668Z" fill="#413F66"/>
<path d="M423.135 165.194L420.661 164.233C420.661 164.233 400.571 214.003 400.66 214.038C400.745 214.073 403.434 215.148 403.434 215.148L423.135 165.194Z" fill="#413F66"/>
<path d="M422.21 211.737L404.202 215.198C403.074 215.416 402.158 214.411 402.158 212.954V171.576C402.158 170.119 403.074 168.763 404.202 168.548L422.21 165.087C423.338 164.869 424.254 165.874 424.254 167.331V208.709C424.254 210.166 423.338 211.522 422.21 211.737Z" fill="#2D2B4E"/>
<path d="M405.88 172.212C405.88 172.891 405.447 173.441 404.913 173.441C404.379 173.441 403.946 172.891 403.946 172.212C403.946 171.532 404.379 170.982 404.913 170.982C405.447 170.982 405.88 171.532 405.88 172.212Z" fill="#413F66"/>
<path d="M421.129 175.575C425.18 174.453 426.811 174.829 427.364 176.827C427.917 178.824 427.092 179.425 423.041 180.547C418.99 181.669 414.494 182.548 413.941 180.547C413.388 178.549 417.079 176.697 421.126 175.575H421.129Z" fill="#F8B3A4"/>
<path d="M419.493 181.625C423.998 179.141 425.961 178.97 426.962 180.787C427.964 182.605 427.111 183.481 422.605 185.965C418.099 188.45 413.031 190.836 412.032 189.019C411.031 187.201 414.99 184.11 419.496 181.625H419.493Z" fill="#F8B3A4"/>
<path d="M422.504 184.644C427.209 183.338 429.067 183.651 429.623 185.649C430.176 187.647 429.203 188.289 424.498 189.591C419.793 190.896 414.589 191.971 414.033 189.97C413.48 187.972 417.799 185.946 422.504 184.641V184.644Z" fill="#F8B3A4"/>
<path d="M423.733 188.655C427.114 187.716 428.479 188.045 428.95 189.752C429.424 191.456 428.735 191.962 425.354 192.9C421.973 193.839 418.219 194.563 417.748 192.859C417.274 191.156 420.352 189.594 423.733 188.658V188.655Z" fill="#F8B3A4"/>
<path d="M306.442 147.221C306.442 147.221 296.072 151.548 293.888 159.147C291.705 166.743 296.015 185.178 298.858 199.286C301.702 213.393 301.039 228.278 320.402 235.944C339.765 243.609 381.386 224.182 380.972 216.652C380.972 216.652 372.529 212.771 372.036 205.352C372.036 205.352 368.775 204.95 365.584 205.064C362.929 205.156 360.433 206.698 356.942 206.622C350.315 206.477 343.544 204.903 340.413 202.987C326.491 194.468 306.442 147.221 306.442 147.221Z" fill="#75ACF2"/>
<path d="M302.985 149.26C310.663 149.449 313.7 156.995 316.18 163.092C319.062 170.176 321.046 177.535 322.746 184.982C323.606 188.741 324.405 192.512 325.249 196.273C325.884 199.109 326.326 202.333 328.102 204.735C329.818 207.062 332.602 207.729 335.338 207.978C339.193 208.329 343.108 208.313 346.969 208.076C351.105 207.82 355.197 207.229 359.258 206.404C363.406 205.563 367.773 204.612 371.982 205.576C372.269 205.642 372.393 205.2 372.105 205.134C365.267 203.566 357.918 206.496 351.137 207.255C347.096 207.707 343.023 207.865 338.959 207.729C335.145 207.599 330.456 207.631 328.159 204.008C326.254 201.008 325.859 196.909 325.107 193.501C324.253 189.626 323.422 185.744 322.5 181.884C320.749 174.567 318.541 167.448 315.618 160.51C313.232 154.848 309.829 148.972 302.991 148.804C302.694 148.798 302.694 149.256 302.991 149.263L302.985 149.26Z" fill="#4B83DB"/>
<path d="M309.096 229.347C328.526 240.018 351.981 236.797 370.69 226.192C373.192 224.773 375.774 223.284 378.058 221.53C379.686 220.281 380.908 218.795 381.193 216.715C381.234 216.425 380.788 216.301 380.75 216.592C380.327 219.693 377.714 221.289 375.287 222.848C372.614 224.564 369.89 226.183 367.056 227.621C361.062 230.665 354.685 232.979 348.091 234.303C335.003 236.93 321.103 235.416 309.327 228.949C309.068 228.806 308.834 229.205 309.096 229.347Z" fill="#4B83DB"/>
<path d="M371.815 205.314C372.396 207.523 372.902 210.156 374.504 211.885C376.289 213.81 378.7 215.378 380.858 216.848C381.104 217.016 381.332 216.617 381.089 216.45C379.079 215.078 377.031 213.656 375.256 211.983C373.426 210.264 372.873 207.542 372.254 205.187C372.178 204.903 371.736 205.023 371.811 205.311L371.815 205.314Z" fill="#4B83DB"/>
<path d="M313.82 214.67C318.699 210.501 324.412 206.559 331.12 207.046C331.414 207.068 331.414 206.607 331.12 206.588C324.295 206.091 318.465 210.103 313.494 214.348C313.27 214.541 313.596 214.863 313.82 214.673V214.67Z" fill="#4B83DB"/>
<path d="M317.428 207.748C321.779 206.177 326.415 206.234 330.924 207.024C331.214 207.074 331.338 206.632 331.047 206.581C326.459 205.778 321.738 205.706 317.308 207.305C317.033 207.406 317.15 207.849 317.431 207.748H317.428Z" fill="#4B83DB"/>
<path d="M334.305 199.181C339.607 201.495 345.49 201.454 350.761 199.068C351.03 198.944 350.796 198.549 350.53 198.669C345.434 200.98 339.67 201.021 334.539 198.783C334.27 198.666 334.036 199.061 334.308 199.181H334.305Z" fill="#4B83DB"/>
<path opacity="0.5" d="M332.567 246.71C332.567 246.71 344.855 249.53 351.399 247.69C357.943 245.85 358.679 243.031 358.189 241.681C357.7 240.331 352.224 245.123 345.092 244.997C337.961 244.871 329.42 246.094 332.567 246.71Z" fill="#4B83DB"/>
<path opacity="0.5" d="M331.897 240.948C331.897 240.948 340.722 244.504 345.105 243.277C349.488 242.051 341.588 242.696 337.512 240.17C333.436 237.644 330.121 239.231 331.897 240.948Z" fill="#4B83DB"/>
<path d="M419.217 181.647C421.101 180.829 423.044 180.222 425.057 179.814C425.344 179.757 425.224 179.314 424.933 179.371C422.88 179.785 420.908 180.411 418.987 181.249C418.718 181.366 418.949 181.761 419.217 181.644V181.647Z" fill="#FB8671"/>
<path d="M414.285 189.581C414.946 187.533 419.139 186.398 420.889 185.791C422.617 185.194 424.431 184.846 426.106 184.097C426.374 183.977 426.141 183.582 425.875 183.702C423.436 184.792 420.747 185.254 418.276 186.313C416.702 186.986 414.424 187.659 413.843 189.458C413.751 189.739 414.193 189.86 414.285 189.581Z" fill="#FB8671"/>
<path d="M418.478 191.171C421.619 190.109 424.757 189.076 428.005 188.383C428.293 188.323 428.172 187.881 427.882 187.941C424.637 188.63 421.496 189.667 418.355 190.729C418.077 190.824 418.197 191.266 418.478 191.171Z" fill="#FB8671"/>
<path d="M391.058 191.854C392.11 192.079 393.162 192.126 394.233 191.984C394.521 191.946 394.524 191.487 394.233 191.525C393.206 191.661 392.195 191.63 391.181 191.412C390.893 191.352 390.77 191.791 391.058 191.854Z" fill="#FB8671"/>
<path d="M390.435 186.338C391.547 186.724 392.685 186.917 393.86 186.92C394.154 186.92 394.154 186.461 393.86 186.461C392.726 186.461 391.629 186.269 390.558 185.896C390.28 185.798 390.16 186.24 390.435 186.338Z" fill="#FB8671"/>
<path d="M392.306 196.34C393.228 196.722 394.356 197.117 395.361 197.158C395.655 197.171 395.655 196.713 395.361 196.7C394.404 196.659 393.307 196.261 392.426 195.897C392.154 195.783 392.034 196.229 392.303 196.34H392.306Z" fill="#FB8671"/>
<path d="M502.484 98.2378V127.581C502.484 128.482 498.683 129.238 493.539 129.446C492.613 129.484 491.64 129.506 490.641 129.506C484.097 129.506 478.798 128.647 478.798 127.581V102.208C478.798 99.6191 478.912 97.0366 479.146 94.4635C479.598 89.3901 480.495 84.3704 481.835 79.4487L482.034 78.7154H499.252L500.493 83.283C501.511 87.032 502.143 90.8695 502.38 94.7385C502.449 95.9018 502.487 97.0682 502.487 98.2346L502.484 98.2378Z" fill="#94A7E6"/>
<path d="M502.484 98.2378V127.581C502.484 128.482 498.683 129.238 493.539 129.446C488.395 129.238 484.59 128.482 484.59 127.581V102.208C484.59 99.6191 484.704 97.0366 484.938 94.4635C485.39 89.3901 486.287 84.3704 487.627 79.4487L487.826 78.7154H499.252L500.493 83.283C501.511 87.032 502.143 90.8695 502.38 94.7385C502.449 95.9018 502.487 97.0682 502.487 98.2346L502.484 98.2378Z" fill="#ABC7F2"/>
<path d="M502.484 98.2378V116.353C496.582 117.027 488.278 117.435 478.795 116.353V102.211C478.795 99.6223 478.909 97.0397 479.143 94.4667C484.36 94.9219 493.056 95.4055 502.377 94.7417C502.446 95.9049 502.484 97.0714 502.484 98.2378Z" fill="#FF4F67"/>
<path d="M490.638 80.1473C495.495 80.1473 499.432 79.5076 499.432 78.7185C499.432 77.9295 495.495 77.2898 490.638 77.2898C485.782 77.2898 481.845 77.9295 481.845 78.7185C481.845 79.5076 485.782 80.1473 490.638 80.1473Z" fill="#E93A5B"/>
<path d="M499.432 76.5785H481.848V78.7154H499.432V76.5785Z" fill="#E93A5B"/>
<path d="M490.638 78.0073C495.495 78.0073 499.432 77.3676 499.432 76.5785C499.432 75.7895 495.495 75.1498 490.638 75.1498C485.782 75.1498 481.845 75.7895 481.845 76.5785C481.845 77.3676 485.782 78.0073 490.638 78.0073Z" fill="#FF4F67"/>
<path d="M517.073 197.655C504.095 198.647 484.9 196.049 475.885 182.823C471.651 176.612 472.845 171.26 474.608 168.659C475.212 167.77 475.888 167.201 476.432 167.034C477.101 166.825 477.828 166.768 478.609 166.892C478.647 166.898 478.681 166.898 478.719 166.904C478.741 166.914 478.754 166.914 478.767 166.917C478.767 166.917 478.77 166.917 478.776 166.917L478.786 166.923C481.598 167.429 485.149 170.122 489.611 175.749C493.058 180.095 506.254 186.781 516.64 187.571C528.255 188.459 530.233 192.373 530.198 193.627C530.145 195.262 524.678 197.073 517.076 197.658L517.073 197.655Z" fill="#FFB369"/>
<path d="M515.36 200.025C502.348 200.367 483.307 196.807 474.966 183.149C471.047 176.732 472.507 171.447 474.397 168.94C475.045 168.083 475.746 167.549 476.299 167.407C476.978 167.23 477.705 167.214 478.479 167.372C478.517 167.378 478.552 167.382 478.59 167.388C478.612 167.397 478.625 167.401 478.637 167.401C478.637 167.401 478.64 167.401 478.647 167.401L478.656 167.407C481.437 168.055 484.852 170.922 489.027 176.763C492.253 181.277 505.094 188.614 515.43 189.923C526.985 191.389 528.767 195.401 528.666 196.653C528.53 198.28 522.982 199.82 515.36 200.019V200.025Z" fill="#FFD695"/>
<path d="M478.656 167.41C478.656 167.41 478.637 167.426 478.606 167.451C478.043 167.925 472.909 172.174 474.39 168.962C474.394 168.959 474.397 168.946 474.4 168.94C475.383 166.778 475.013 164.11 474.615 162.466C474.387 161.524 474.153 160.914 474.153 160.914C474.084 160.709 474.327 160.74 474.665 160.857C475.209 161.047 476.002 161.461 476.157 161.496C476.277 161.521 476.384 161.667 476.476 162.052H476.473C476.574 162.492 476.653 163.244 476.697 164.511C476.741 165.618 477.158 166.323 477.607 166.756C477.882 167.024 478.16 167.192 478.369 167.29L478.378 167.296C478.473 167.344 478.549 167.375 478.596 167.388C478.618 167.397 478.631 167.401 478.644 167.401C478.656 167.401 478.659 167.407 478.659 167.407L478.656 167.41Z" fill="#FFD695"/>
<path d="M478.249 167.492C479.62 168.415 480.903 169.544 481.538 171.099C481.822 171.794 482.053 172.474 482.41 173.141C483.32 174.845 484.439 176.46 485.598 177.996C488.167 181.398 491.763 184.157 495.406 186.319C502.528 190.549 510.567 192.164 518.672 193.261C521.642 193.662 524.982 193.842 527.712 195.198C527.974 195.328 528.208 194.933 527.942 194.803C525.743 193.713 523.181 193.428 520.779 193.09C517.149 192.578 513.509 192.132 509.922 191.345C500.974 189.385 491.507 185.131 485.876 177.604C484.634 175.948 483.342 174.175 482.486 172.278C482.037 171.289 481.803 170.328 481.124 169.443C480.397 168.497 479.462 167.751 478.479 167.091C478.233 166.926 478.005 167.322 478.249 167.486V167.492Z" fill="#FFC779"/>
<path d="M514.873 199.697C501.861 200.038 482.821 196.479 474.479 182.82C470.561 176.403 472.02 171.118 473.91 168.611C474.893 166.449 477.983 167.979 478.365 168.166C479.797 168.861 480.403 169.253 481.064 170.192C482.204 171.782 483.355 173.855 484.521 176.473C484.713 176.89 484.903 177.329 485.096 177.784C487.251 182.902 498.171 192.875 507.966 196.428C510.965 197.519 513.208 198.628 514.873 199.697Z" fill="#FFB369"/>
<path d="M519.319 206.983C518.649 209.107 508.203 208.854 496.951 205.02H496.948C491.548 203.177 485.961 200.512 481.181 196.883C476.128 193.049 471.979 188.146 469.897 182.011C467.489 174.911 470.052 170.084 472.444 168.042H472.447C473.275 167.331 474.084 166.961 474.659 166.942C475.357 166.92 476.068 167.062 476.789 167.382C476.836 167.404 476.88 167.423 476.925 167.445C476.947 167.454 476.956 167.464 476.956 167.464C479.531 168.706 482.227 172.253 485.02 178.869C487.178 183.99 498.092 193.959 507.887 197.509C518.842 201.483 519.702 205.785 519.322 206.983H519.319Z" fill="#FFD695"/>
<path d="M473.986 160.137C473.986 160.137 474.716 165.071 472.447 168.039C470.178 171.007 476.956 167.464 476.956 167.464C476.956 167.464 475.231 166.563 475.673 164.205C476.116 161.847 476.04 161.252 475.809 161.145C475.578 161.034 473.923 159.577 473.983 160.14L473.986 160.137Z" fill="#FFD695"/>
<path d="M476.533 167.451C477.844 168.839 478.751 170.274 479.032 172.19C479.127 172.825 479.228 173.432 479.405 174.055C479.942 175.929 480.685 177.769 481.5 179.536C483.348 183.544 486.451 187.157 489.696 190.106C495.589 195.467 502.8 198.682 510.181 201.429C513.035 202.491 516.305 203.395 518.706 205.348C518.934 205.532 519.259 205.209 519.029 205.026C517.234 203.566 514.959 202.747 512.823 201.931C509.407 200.629 505.96 199.418 502.636 197.892C494.442 194.133 486.312 188.197 482.195 179.94C481.168 177.879 480.258 175.638 479.702 173.4C479.462 172.433 479.481 171.45 479.13 170.505C478.653 169.218 477.787 168.115 476.855 167.129C476.653 166.914 476.327 167.239 476.533 167.451Z" fill="#FFC779"/>
<path d="M496.948 205.017C491.548 203.174 485.962 200.509 481.181 196.88C480.255 191.434 477.702 175.894 479.253 178.502C481.13 181.65 486.537 191.57 489.832 195.695C493.077 199.75 496.828 204.859 496.948 205.02V205.017Z" fill="#FFB369"/>
<path d="M473.016 169.174C470.823 168.7 463.922 172.594 464.769 182.652C466.899 207.937 504.427 222.563 506.737 218.786C507.391 217.714 507.593 213.33 497.915 206.84C489.263 201.04 481.064 188.731 480.201 183.244C478.748 174.004 476.188 169.857 473.016 169.174Z" fill="#FFD695"/>
<path d="M473.999 162.406C473.999 162.406 473.522 167.372 470.605 169.705C467.689 172.041 475.12 170.233 475.12 170.233C475.12 170.233 473.664 168.943 474.659 166.762C475.654 164.581 475.724 163.987 475.525 163.822C475.329 163.661 474.071 161.847 473.996 162.406H473.999Z" fill="#FFD695"/>
<path d="M474.713 170.113C475.645 171.763 476.188 173.403 476.002 175.313C475.932 176.017 475.891 176.697 475.926 177.411C476.018 179.356 476.29 181.319 476.666 183.225C477.531 187.599 479.743 191.895 482.233 195.556C486.698 202.121 492.932 206.913 499.41 211.339C501.858 213.011 504.724 214.642 506.535 217.051C506.709 217.284 507.107 217.057 506.93 216.82C505.568 215.005 503.606 213.684 501.767 212.401C498.787 210.324 495.747 208.336 492.897 206.079C485.804 200.465 479.342 192.78 477.244 183.765C476.722 181.524 476.391 179.141 476.362 176.836C476.35 175.78 476.621 174.766 476.501 173.71C476.346 172.344 475.774 171.067 475.108 169.882C474.962 169.626 474.567 169.857 474.713 170.113Z" fill="#FFC779"/>
<path d="M610.976 91.3057V127.585L601.126 127.069L593.647 126.681L592.601 126.627L557.856 124.816V89.0898L610.976 91.3057Z" fill="#FFD695"/>
<path d="M610.975 91.3057L573.2 81.8574C573.2 81.8574 558.592 81.1209 557.853 89.0898L610.972 91.3025L610.975 91.3057Z" fill="#FF4F67"/>
<path opacity="0.3" d="M574.868 100.359C574.868 101.298 574.568 102.18 574.069 102.897C573.263 104.041 571.939 104.794 570.435 104.794C567.986 104.794 566.002 102.809 566.002 100.359C566.002 98.8447 566.754 97.5107 567.91 96.711C568.628 96.2052 569.497 95.9176 570.435 95.9176C572.884 95.9176 574.868 97.9027 574.868 100.359Z" fill="#F9A87F"/>
<path opacity="0.3" d="M574.868 100.359C574.868 101.298 574.568 102.18 574.069 102.897C573.352 103.403 572.477 103.697 571.532 103.697C569.083 103.697 567.092 101.712 567.092 99.2619C567.092 98.3105 567.392 97.4349 567.908 96.7142C568.625 96.2084 569.494 95.9208 570.432 95.9208C572.881 95.9208 574.865 97.9059 574.865 100.362L574.868 100.359Z" fill="#F9A87F"/>
<path opacity="0.3" d="M594.014 113.313C594.014 114.251 593.714 115.133 593.214 115.851C592.409 116.995 591.085 117.747 589.581 117.747C587.132 117.747 585.147 115.762 585.147 113.313C585.147 111.798 585.9 110.465 587.056 109.665C587.773 109.159 588.642 108.871 589.581 108.871C592.029 108.871 594.014 110.857 594.014 113.313Z" fill="#F9A87F"/>
<path opacity="0.3" d="M594.014 113.313C594.014 114.251 593.714 115.133 593.215 115.851C592.497 116.357 591.622 116.651 590.677 116.651C588.228 116.651 586.238 114.666 586.238 112.216C586.238 111.264 586.538 110.389 587.053 109.668C587.77 109.162 588.639 108.875 589.578 108.875C592.026 108.875 594.011 110.86 594.011 113.316L594.014 113.313Z" fill="#F9A87F"/>
<path opacity="0.3" d="M579.393 115.481C579.393 116.67 579.014 117.782 578.385 118.689C577.368 120.137 575.693 121.089 573.791 121.089C570.697 121.089 568.188 118.579 568.188 115.484C568.188 113.569 569.14 111.884 570.599 110.875C571.506 110.237 572.603 109.873 573.791 109.873C576.884 109.873 579.393 112.383 579.393 115.484V115.481Z" fill="#F9A87F"/>
<path opacity="0.3" d="M579.393 115.481C579.393 116.67 579.014 117.782 578.385 118.689C577.478 119.328 576.376 119.698 575.178 119.698C572.085 119.698 569.569 117.188 569.569 114.093C569.569 112.892 569.948 111.786 570.599 110.872C571.506 110.234 572.603 109.87 573.791 109.87C576.884 109.87 579.393 112.38 579.393 115.481Z" fill="#F9A87F"/>
<path opacity="0.3" d="M601.129 99.7298C601.129 100.839 600.775 101.882 600.184 102.73C599.233 104.082 597.666 104.971 595.89 104.971C592.996 104.971 590.651 102.625 590.651 99.7298C590.651 97.9375 591.539 96.3633 592.907 95.4181C593.754 94.8207 594.781 94.4825 595.89 94.4825C598.785 94.4825 601.129 96.828 601.129 99.7298Z" fill="#F9A87F"/>
<path opacity="0.3" d="M601.129 99.7298C601.129 100.839 600.775 101.882 600.184 102.73C599.337 103.327 598.304 103.675 597.186 103.675C594.291 103.675 591.94 101.329 591.94 98.4337C591.94 97.3084 592.294 96.2748 592.904 95.4213C593.751 94.8239 594.778 94.4857 595.887 94.4857C598.781 94.4857 601.126 96.8311 601.126 99.7329L601.129 99.7298Z" fill="#F9A87F"/>
<path opacity="0.3" d="M610.975 121.402V113.467C610.122 112.861 609.08 112.507 607.952 112.507C606.824 112.507 605.812 112.848 604.969 113.442C603.601 114.39 602.716 115.962 602.716 117.757C602.716 120.649 605.057 122.995 607.952 122.995C609.076 122.995 610.119 122.641 610.975 122.034V121.405V121.402Z" fill="#F9A87F"/>
<path opacity="0.3" d="M610.975 113.464V121.398C610.435 121.588 609.857 121.689 609.25 121.689C606.359 121.689 604.005 119.341 604.005 116.451C604.005 115.326 604.359 114.289 604.969 113.436C605.815 112.842 606.842 112.5 607.951 112.5C609.061 112.5 610.119 112.854 610.975 113.461V113.464Z" fill="#F9A87F"/>
<path opacity="0.3" d="M606.896 108.34C606.896 108.954 606.7 109.529 606.375 109.997C605.85 110.743 604.985 111.233 604.005 111.233C602.409 111.233 601.114 109.937 601.114 108.34C601.114 107.351 601.604 106.482 602.359 105.96C602.826 105.631 603.392 105.442 604.005 105.442C605.601 105.442 606.896 106.738 606.896 108.337V108.34Z" fill="#F9A87F"/>
<path opacity="0.3" d="M606.896 108.34C606.896 108.954 606.7 109.529 606.375 109.997C605.907 110.325 605.338 110.518 604.719 110.518C603.123 110.518 601.825 109.222 601.825 107.626C601.825 107.006 602.021 106.434 602.356 105.963C602.823 105.635 603.389 105.445 604.002 105.445C605.597 105.445 606.893 106.741 606.893 108.34H606.896Z" fill="#F9A87F"/>
<path opacity="0.3" d="M587.4 97.378C587.4 97.9912 587.204 98.5665 586.879 99.0343C586.354 99.7803 585.488 100.27 584.509 100.27C582.913 100.27 581.618 98.9743 581.618 97.378C581.618 96.3886 582.107 95.5193 582.863 94.9977C583.33 94.669 583.896 94.4793 584.509 94.4793C586.105 94.4793 587.4 95.7753 587.4 97.3748V97.378Z" fill="#F9A87F"/>
<path opacity="0.3" d="M587.4 97.378C587.4 97.9912 587.204 98.5665 586.879 99.0343C586.411 99.3631 585.842 99.5559 585.223 99.5559C583.627 99.5559 582.329 98.2599 582.329 96.6636C582.329 96.044 582.525 95.4719 582.859 95.0009C583.327 94.6722 583.893 94.4825 584.506 94.4825C586.101 94.4825 587.397 95.7785 587.397 97.378H587.4Z" fill="#F9A87F"/>
<path opacity="0.3" d="M601.126 127.069L593.644 126.681L592.598 126.627C592.762 125.41 593.436 124.36 594.399 123.697C595.091 123.203 595.932 122.932 596.839 122.932C599.158 122.932 601.047 124.768 601.123 127.072L601.126 127.069Z" fill="#F9A87F"/>
<path opacity="0.3" d="M601.126 127.069L593.644 126.681C593.622 126.507 593.612 126.336 593.612 126.159C593.612 125.242 593.9 124.392 594.399 123.697C595.091 123.203 595.932 122.932 596.838 122.932C599.158 122.932 601.047 124.768 601.123 127.072L601.126 127.069Z" fill="#F9A87F"/>
<path d="M610.89 197.029C609.863 199.965 608.204 202.314 606.112 204.1C600.661 208.766 592.294 209.584 584.644 206.907C574.059 203.202 568.858 194.2 572.561 183.613C573.863 179.896 576.129 176.798 578.992 174.497C584.278 170.252 591.564 168.747 598.431 171.15C609.016 174.854 614.59 186.439 610.886 197.029H610.89Z" fill="#E9375A"/>
<path d="M610.89 197.029C609.863 199.965 608.204 202.314 606.112 204.1C598.601 205.269 602.339 186.167 588.929 179.39C577.794 173.761 578.157 175.761 578.995 174.497C584.281 170.252 591.567 168.747 598.434 171.15C609.019 174.854 614.593 186.439 610.89 197.029Z" fill="#FF4F67"/>
<path d="M598.589 170.694C598.589 170.694 595.337 165.4 592.038 165.672C588.739 165.94 592.319 170.637 597.22 172.234C597.22 172.234 590.999 171.361 591.94 174.778C592.882 178.195 599.527 174.465 599.527 174.465C599.527 174.465 601.884 180.279 604.633 178.866C607.382 177.453 601.635 173.185 601.635 173.185C601.635 173.185 606.134 175.591 606.412 173.435C606.693 171.276 605.303 169.484 598.589 170.698V170.694Z" fill="#84B884"/>
<path d="M608.318 192.591C608.318 192.591 609.755 184.546 604.864 182.245C599.973 179.943 598.083 188.712 601.556 191.699C605.028 194.683 608.134 194.443 608.314 192.591H608.318Z" fill="#FF718B"/>
<path d="M595.555 195.66C595.555 198.77 594.765 201.536 593.381 203.913C589.776 210.118 582.152 213.656 574.047 213.656C562.833 213.656 554.952 206.878 554.952 195.66C554.952 191.721 556.071 188.048 558.011 184.932C561.597 179.178 567.977 175.351 575.254 175.351C586.468 175.351 595.555 184.442 595.555 195.66Z" fill="#E9375A"/>
<path d="M595.555 195.66C595.555 198.77 594.765 201.536 593.381 203.913C589.226 206.24 584.047 207.498 578.679 207.498C566.204 207.498 557.436 200.721 557.436 189.502C557.436 187.934 557.635 186.405 558.007 184.935C561.594 179.182 567.973 175.354 575.25 175.354C586.464 175.354 595.552 184.445 595.552 195.663L595.555 195.66Z" fill="#FF4F67"/>
<path d="M575.251 174.867C575.251 174.867 570.435 170.944 567.411 172.291C564.387 173.634 569.317 176.884 574.467 176.773C574.467 176.773 568.306 178.006 570.321 180.92C572.337 183.835 577.377 178.12 577.377 178.12C577.377 178.12 581.523 182.826 583.649 180.585C585.779 178.344 578.945 176.213 578.945 176.213C578.945 176.213 583.984 176.997 583.536 174.87C583.087 172.743 581.185 171.51 575.248 174.87L575.251 174.867Z" fill="#84B884"/>
<path d="M591.662 192.319C591.662 192.319 590.364 184.252 584.989 183.696C579.614 183.139 580.723 192.041 584.989 193.713C589.255 195.382 592.105 194.127 591.662 192.322V192.319Z" fill="#FF718B"/>
<path d="M595.534 252.157H569.646V294.941H595.534V252.157Z" fill="#75ACF2"/>
<path d="M572.559 248.872L569.646 252.157H595.534L593.151 248.872H572.559Z" fill="#5D82E6"/>
<path d="M593.151 245.01H572.559V248.876H593.151V245.01Z" fill="#75ACF2"/>
<path d="M595.534 261.08H569.646V282.818H595.534V261.08Z" fill="#5D82E6"/>
<path d="M481.62 248.038C482.296 244.867 480.966 242.279 478.707 240.123C477.696 239.159 476.157 240.692 477.171 241.659C478.833 243.243 480.037 245.07 479.528 247.459C479.238 248.822 481.329 249.407 481.623 248.038H481.62Z" fill="#84B884"/>
<path d="M490.019 247.007C491.526 246.881 493.861 246.808 495.833 247.267C497.311 247.605 498.585 248.243 499.141 249.384C500.901 252.985 497.577 276.054 496.319 281.728C495.738 284.342 494.013 285.414 492.328 285.809C491.479 286.008 490.635 286.036 489.952 286.005C489.813 285.998 489.677 285.989 489.557 285.979C488.875 285.923 488.426 285.815 488.426 285.815C487.346 286.684 485.149 287.035 483.14 286.934C481.475 286.852 479.933 286.46 479.266 285.793C479.266 285.793 478.884 285.97 478.255 286.112C477.582 286.273 476.628 286.397 475.541 286.251C474.947 286.166 474.311 285.998 473.661 285.704C473.13 285.474 472.586 285.151 472.052 284.728C468.548 281.943 461.116 255.081 465.221 249.606C466.974 247.267 469.382 246.498 471.575 246.388C472.416 246.34 473.221 246.394 473.951 246.492C474.735 246.596 475.424 246.755 475.951 246.9C476.637 247.093 477.051 247.257 477.051 247.257C477.86 246.201 480.151 245.547 482.555 245.506C484.802 245.468 487.146 245.971 488.467 247.181H488.477C488.553 247.172 489.143 247.08 490.016 247.007H490.019Z" fill="#FF4F67"/>
<path d="M473.951 246.492C475.762 246.736 477.051 247.26 477.051 247.26C477.051 247.26 475.013 273.775 479.266 285.796C479.266 285.796 477.648 286.545 475.541 286.254C475.901 284.418 476.28 281.598 476.428 277.562C476.722 269.571 476.277 249.789 473.951 246.495V246.492Z" fill="#E7254F"/>
<path d="M490.019 247.007C490.101 248.348 490.357 250.921 491.106 253.355C492.192 256.863 493.453 267.797 491.557 277.375C490.616 282.132 490.167 284.661 489.955 286.005C489.052 285.964 488.429 285.815 488.429 285.815C488.429 285.815 495.362 265.063 488.47 247.181H488.48C488.556 247.172 489.146 247.08 490.019 247.007Z" fill="#E7254F"/>
<path opacity="0.5" d="M488.47 247.181H488.48L488.467 247.311C488.467 247.311 490.575 250.718 490.815 254.467C491.061 258.219 492.35 267.399 491.44 275.257C490.534 283.122 489.715 285.407 489.715 285.407L489.557 285.979C488.875 285.923 488.426 285.815 488.426 285.815C487.345 286.684 485.149 287.035 483.14 286.934C484.615 285.644 487.608 281.63 488.214 269.988C489.02 254.388 484.871 246.619 482.65 245.553C482.615 245.538 482.584 245.522 482.555 245.503C484.802 245.465 487.146 245.967 488.467 247.178L488.47 247.181Z" fill="#E7254F"/>
<path opacity="0.5" d="M473.951 246.492C474.735 246.596 475.424 246.755 475.951 246.9C476.539 248.322 475.904 250.042 476.116 252.005C476.577 256.256 476.618 266.018 477.203 275.453C477.553 281.108 478.498 284.554 478.255 286.115C477.582 286.277 476.627 286.4 475.541 286.254C474.946 286.169 474.311 286.002 473.66 285.708C474.728 282.701 475.676 277.824 475.638 269.978C475.585 258.289 473.588 250.589 471.578 246.388C472.419 246.34 473.224 246.394 473.954 246.492H473.951Z" fill="#E7254F"/>
<path d="M468.09 249.072C468.09 249.072 463.963 252.909 465.992 254.938C468.017 256.965 471.638 250.377 470.624 249.072C469.609 247.766 468.797 248.332 468.09 249.072Z" fill="#FF7A92"/>
<path d="M492.98 249.53C492.98 249.53 493.529 253.263 495.179 252.327C496.828 251.392 494.765 247.377 493.798 247.779C492.831 248.18 492.847 248.869 492.98 249.53Z" fill="#FF7A92"/>
<path d="M522.233 274.091C525.294 274.499 527.759 272.874 529.611 270.57C530.48 269.492 528.95 267.943 528.075 269.033C526.533 270.949 524.801 272.258 522.233 271.916C520.852 271.733 520.864 273.908 522.233 274.088V274.091Z" fill="#84B884"/>
<path d="M523.765 282.36C524.018 283.852 524.286 286.175 523.996 288.179C523.784 289.684 523.253 291.002 522.163 291.657C518.722 293.711 495.469 292.333 489.709 291.555C487.055 291.195 485.844 289.564 485.31 287.917C485.042 287.086 484.941 286.248 484.915 285.565C484.912 285.426 484.906 285.29 484.906 285.17C484.906 284.484 484.975 284.026 484.975 284.026C484.021 283.021 483.487 280.862 483.418 278.851C483.361 277.182 483.623 275.614 484.23 274.894C484.23 274.894 484.021 274.53 483.825 273.911C483.607 273.253 483.405 272.311 483.462 271.218C483.497 270.617 483.61 269.969 483.847 269.296C484.034 268.749 484.309 268.18 484.685 267.611C487.165 263.884 513.3 254.224 519.098 257.856C521.575 259.408 522.542 261.744 522.839 263.922C522.956 264.756 522.969 265.566 522.934 266.299C522.896 267.089 522.795 267.788 522.694 268.328C522.558 269.027 522.428 269.454 522.428 269.454C523.55 270.171 524.391 272.4 524.634 274.793C524.858 277.031 524.555 279.408 523.462 280.827V280.836C523.477 280.909 523.616 281.494 523.765 282.357V282.36Z" fill="#FFB369"/>
<path d="M522.931 266.299C522.839 268.123 522.428 269.454 522.428 269.454C522.428 269.454 495.845 269.643 484.227 274.894C484.227 274.894 483.345 273.342 483.459 271.218C485.317 271.423 488.157 271.565 492.193 271.372C500.174 270.993 519.844 268.891 522.931 266.296V266.299Z" fill="#FF9E51"/>
<path d="M518.69 260.802C518.69 260.802 518.039 258.845 515 258.845C511.96 258.845 504.408 260.293 504.057 261.526C503.707 262.756 519.632 262.828 518.69 260.802Z" fill="#FFC694"/>
<path d="M523.765 282.36C522.435 282.556 519.894 283.024 517.531 283.975C514.125 285.354 503.34 287.525 493.643 286.438C488.827 285.9 486.268 285.663 484.912 285.565C484.878 284.661 484.972 284.026 484.972 284.026C484.972 284.026 506.225 289.197 523.459 280.827V280.836C523.474 280.909 523.613 281.494 523.762 282.357L523.765 282.36Z" fill="#FF9E51"/>
<path opacity="0.6" d="M523.462 280.83V280.84H523.332C523.332 280.84 520.113 283.226 516.4 283.783C512.681 284.342 503.647 286.397 495.741 286.15C487.832 285.907 485.488 285.281 485.488 285.281L484.906 285.173C484.906 284.487 484.976 284.029 484.976 284.029C484.021 283.024 483.487 280.865 483.418 278.855C484.824 280.22 489.077 282.866 500.721 282.493C516.327 281.99 523.721 277.201 524.593 274.897C524.606 274.862 524.618 274.827 524.637 274.796C524.862 277.034 524.558 279.411 523.465 280.83H523.462Z" fill="#FF9E51"/>
<path opacity="0.6" d="M522.931 266.299C522.893 267.089 522.792 267.788 522.691 268.328C521.323 269.033 519.556 268.546 517.619 268.919C513.423 269.735 503.704 270.598 494.354 271.97C488.752 272.792 485.399 274.024 483.822 273.914C483.604 273.256 483.402 272.314 483.459 271.221C483.494 270.62 483.607 269.972 483.844 269.299C486.928 270.111 491.867 270.645 499.675 269.95C511.316 268.916 518.817 266.277 522.833 263.922C522.95 264.756 522.962 265.566 522.928 266.299H522.931Z" fill="#FF9E51"/>
<path opacity="0.6" d="M523.996 288.176C523.784 289.681 523.253 290.999 522.163 291.653C518.722 293.708 495.469 292.33 489.709 291.552C487.055 291.192 485.845 289.561 485.311 287.914C487.627 289.374 492.537 291.211 502.68 291.325C512.76 291.438 519.758 289.909 523.999 288.173L523.996 288.176Z" fill="#FF9E51"/>
<path d="M258.597 293.925L228.688 282.898L210.478 332.33L240.387 343.356L258.597 293.925Z" fill="#75ACF2"/>
<path d="M233.473 280.34L228.708 282.891L258.619 293.914L257.263 289.109L233.473 280.34Z" fill="#5D82E6"/>
<path d="M258.887 284.654L235.097 275.883L233.453 280.347L257.243 289.118L258.887 284.654Z" fill="#75ACF2"/>
<path d="M254.798 304.232L224.888 293.205L215.636 318.321L245.546 329.348L254.798 304.232Z" fill="#5D82E6"/>
<path d="M181.484 292.551L121.153 306.319L129.334 342.195L189.665 328.427L181.484 292.551Z" fill="#75ACF2"/>
<path d="M209.816 303.924L202.972 332.857V332.863C202.76 333.752 198.832 333.609 193.71 332.614C192.788 332.434 191.824 332.228 190.838 331.994C184.386 330.467 179.359 328.378 179.605 327.332V327.325L185.523 302.309C186.127 299.758 186.841 297.236 187.672 294.754C189.299 289.858 191.356 285.116 193.827 280.574L194.194 279.898L211.175 283.918L211.332 288.711C211.462 292.646 211.187 296.578 210.52 300.451C210.318 301.614 210.081 302.774 209.809 303.924H209.816Z" fill="#94A7E6"/>
<path d="M209.816 303.924L202.972 332.857V332.863C202.76 333.752 198.832 333.609 193.71 332.614C188.686 331.207 185.109 329.573 185.318 328.685V328.678L191.236 303.662C191.84 301.111 192.554 298.589 193.385 296.107C195.012 291.211 197.069 286.469 199.54 281.927L199.907 281.251L211.174 283.918L211.332 288.711C211.462 292.646 211.187 296.578 210.52 300.451C210.318 301.614 210.081 302.774 209.809 303.924H209.816Z" fill="#ABC7F2"/>
<path d="M209.816 303.924L205.588 321.79C199.61 321.076 191.325 319.54 182.228 316.259L185.527 302.312C186.13 299.761 186.844 297.239 187.675 294.758C192.715 296.423 201.177 298.93 210.524 300.454C210.321 301.617 210.084 302.777 209.813 303.928L209.816 303.924Z" fill="#5D82E6"/>
<path d="M211.361 283.963C211.178 284.74 207.146 284.453 202.356 283.318C197.565 282.183 193.834 280.634 194.017 279.857C194.2 279.079 198.232 279.367 203.022 280.501C207.813 281.636 211.544 283.185 211.361 283.963Z" fill="#E93A5B"/>
<path d="M194.51 277.727L194.011 279.834L211.354 283.938L211.852 281.831L194.51 277.727Z" fill="#E93A5B"/>
<path d="M211.86 281.854C211.677 282.632 207.645 282.344 202.855 281.209C198.065 280.075 194.333 278.526 194.516 277.748C194.7 276.971 198.731 277.258 203.522 278.393C208.312 279.528 212.044 281.077 211.86 281.854Z" fill="#FF4F67"/>
<path d="M155.272 274.707C149.512 287.124 137.258 303.393 120.502 304.863C112.631 305.552 108.34 301.709 106.864 298.753C106.362 297.742 106.188 296.831 106.311 296.243C106.463 295.519 106.785 294.827 107.3 294.173C107.325 294.141 107.344 294.11 107.366 294.078C107.385 294.062 107.395 294.049 107.401 294.04C107.401 294.04 107.401 294.037 107.401 294.031L107.411 294.024C109.322 291.707 113.616 289.83 121.067 288.632C126.824 287.702 139.732 279.038 145.796 269.918C152.58 259.721 157.187 259.917 158.318 260.597C159.787 261.488 158.64 267.431 155.265 274.704L155.272 274.707Z" fill="#FFB369"/>
<path d="M156.564 277.498C150.188 289.608 137.138 305.246 120.328 305.875C112.432 306.169 108.34 302.113 107.012 299.091C106.561 298.058 106.431 297.138 106.586 296.556C106.772 295.842 107.133 295.165 107.676 294.539C107.701 294.508 107.723 294.479 107.749 294.448C107.768 294.432 107.777 294.422 107.787 294.413C107.787 294.413 107.787 294.41 107.787 294.404L107.796 294.397C109.818 292.178 114.204 290.519 121.705 289.697C127.504 289.058 140.828 281.051 147.341 272.245C154.627 262.398 159.218 262.828 160.315 263.562C161.737 264.526 160.293 270.405 156.561 277.498H156.564Z" fill="#FFD695"/>
<path d="M107.802 294.397C107.802 294.397 107.806 294.422 107.812 294.467C107.957 295.225 109.212 302.12 107.028 299.11C107.028 299.104 107.016 299.098 107.013 299.091C105.537 297.078 102.902 296.047 101.189 295.564C100.21 295.289 99.5302 295.191 99.5302 295.191C99.3058 295.15 99.4607 294.944 99.7419 294.691C100.194 294.29 100.984 293.774 101.094 293.654C101.176 293.556 101.366 293.534 101.767 293.648V293.654C102.219 293.787 102.949 294.1 104.137 294.71C105.174 295.238 106.033 295.216 106.662 295.033C107.05 294.919 107.347 294.748 107.543 294.609L107.556 294.603C107.648 294.543 107.717 294.486 107.752 294.448C107.771 294.432 107.78 294.422 107.79 294.413C107.799 294.404 107.802 294.4 107.802 294.4V294.397Z" fill="#FFD695"/>
<path d="M107.667 294.811C109.234 294.015 110.937 293.427 112.713 293.648C113.585 293.759 114.397 293.895 115.285 293.901C117.389 293.91 119.519 293.711 121.601 293.395C126.17 292.697 130.733 290.617 134.651 288.217C141.783 283.855 147.139 277.536 152.112 270.933C153.995 268.433 155.866 265.477 158.498 263.688C158.754 263.514 158.511 263.097 158.255 263.271C156.232 264.646 154.725 266.71 153.256 268.625C150.971 271.609 148.763 274.65 146.292 277.486C140.051 284.652 131.69 291.053 122.135 292.823C119.734 293.269 117.152 293.512 114.71 293.411C113.5 293.36 112.384 293.003 111.161 293.149C109.844 293.303 108.599 293.8 107.426 294.397C107.152 294.536 107.395 294.954 107.67 294.814L107.667 294.811Z" fill="#FFC779"/>
<path d="M156.014 277.773C149.638 289.883 136.588 305.521 119.778 306.15C111.882 306.444 107.79 302.388 106.463 299.366C104.987 297.353 107.976 295.308 108.343 295.052C109.717 294.097 110.387 293.74 111.588 293.62C113.629 293.392 116.125 293.401 119.121 293.68C119.601 293.718 120.103 293.768 120.618 293.825C126.42 294.479 141.173 289.589 149.464 282.433C152.005 280.242 154.175 278.757 156.011 277.777L156.014 277.773Z" fill="#FFB369"/>
<path d="M164.976 277.442C166.578 279.148 160.978 288.6 151.676 296.951C147.211 300.959 141.896 304.715 136.114 307.234C130.003 309.896 123.374 311.182 116.681 309.937C108.937 308.495 105.831 303.665 105.189 300.422V300.416C104.965 299.294 105.041 298.361 105.322 297.824C105.66 297.169 106.159 296.591 106.82 296.098C106.864 296.066 106.905 296.035 106.946 296.006C106.968 295.99 106.981 295.984 106.981 295.984C109.442 294.261 114.081 293.61 121.579 294.451C127.38 295.105 142.13 290.221 150.418 283.059C159.692 275.055 164.078 276.477 164.979 277.442H164.976Z" fill="#FFD695"/>
<path d="M98.7338 294.941C98.7338 294.941 103.631 296.806 105.186 300.413C106.741 304.019 106.978 295.981 106.978 295.981C106.978 295.981 105.265 297.1 103.331 295.481C101.398 293.863 100.813 293.629 100.595 293.784C100.377 293.939 98.1872 294.707 98.7338 294.941Z" fill="#FFD695"/>
<path d="M106.744 296.363C108.251 295.981 109.938 295.731 111.471 296.158C112.4 296.417 113.231 296.869 114.179 297.097C116.166 297.577 118.236 297.84 120.271 298.007C124.903 298.386 129.807 297.413 134.19 295.962C142.216 293.307 148.917 288.287 155.288 282.878C157.695 280.833 160.179 278.336 163.165 277.157C163.449 277.043 163.326 276.579 163.038 276.692C160.77 277.587 158.845 279.262 156.994 280.808C154.052 283.264 151.177 285.796 148.08 288.056C140.418 293.645 130.701 298.124 120.998 297.577C118.552 297.438 115.958 297.166 113.607 296.449C112.722 296.18 111.939 295.728 111.019 295.57C109.55 295.317 108.052 295.535 106.621 295.899C106.32 295.975 106.447 296.439 106.747 296.363H106.744Z" fill="#FFC779"/>
<path d="M151.673 296.954C147.208 300.959 141.893 304.715 136.111 307.234C130.641 305.284 115.089 299.638 118.274 299.553C122.123 299.452 133.997 299.591 139.47 298.687C144.857 297.795 151.464 296.98 151.673 296.954Z" fill="#FFB369"/>
<path d="M106.516 300.476C104.955 302.243 104.974 310.575 114.631 314.969C138.901 326.017 171.601 299.11 169.323 295.052C168.679 293.901 164.764 291.461 153.837 297.002C144.07 301.955 128.578 303.147 123.102 301.117C113.885 297.7 108.772 297.915 106.513 300.476H106.516Z" fill="#FFD695"/>
<path d="M100.819 296.095C100.819 296.095 105.126 299.085 105.768 302.96C106.409 306.836 108.573 299.088 108.573 299.088C108.573 299.088 106.643 299.761 105.155 297.726C103.666 295.69 103.158 295.323 102.908 295.418C102.658 295.516 100.352 295.734 100.822 296.095H100.819Z" fill="#FFD695"/>
<path d="M108.245 299.404C109.806 299.395 111.496 299.556 112.883 300.34C113.607 300.751 114.22 301.326 114.953 301.728C116.675 302.676 118.555 303.4 120.407 304.057C124.796 305.609 129.693 305.951 134.316 305.669C142.955 305.138 150.857 301.851 158.514 298.051C161.395 296.619 164.445 294.777 167.686 294.337C167.993 294.296 167.863 293.831 167.56 293.872C165.039 294.214 162.656 295.475 160.403 296.578C156.874 298.307 153.379 300.103 149.72 301.554C140.904 305.05 130.319 306.896 121.105 303.792C118.909 303.052 116.571 302.23 114.608 300.975C112.51 299.632 110.817 298.908 108.242 298.924C107.932 298.924 107.932 299.407 108.242 299.404H108.245Z" fill="#FFC779"/>
<path d="M189.502 309.178L190.756 346.073L200.754 345.21L208.35 344.556L209.411 344.464L244.684 341.42L243.449 305.091L189.502 309.178Z" fill="#FFD695"/>
<path d="M189.502 309.181L227.59 298.266C227.59 298.266 242.422 297.011 243.445 305.091L189.499 309.181H189.502Z" fill="#FF4F67"/>
<path opacity="0.3" d="M226.537 317.137C226.569 318.092 226.904 318.98 227.438 319.692C228.294 320.83 229.672 321.547 231.198 321.497C233.688 321.411 235.638 319.325 235.552 316.834C235.498 315.291 234.69 313.964 233.486 313.189C232.74 312.699 231.846 312.437 230.892 312.472C228.402 312.557 226.452 314.643 226.537 317.141V317.137Z" fill="#F9A87F"/>
<path opacity="0.3" d="M226.537 317.137C226.569 318.092 226.904 318.98 227.438 319.692C228.184 320.182 229.084 320.45 230.045 320.415C232.535 320.33 234.491 318.244 234.405 315.753C234.374 314.786 234.039 313.907 233.486 313.189C232.74 312.699 231.846 312.437 230.892 312.472C228.402 312.557 226.452 314.643 226.537 317.141V317.137Z" fill="#F9A87F"/>
<path opacity="0.3" d="M207.512 330.973C207.544 331.928 207.879 332.813 208.413 333.527C209.269 334.665 210.647 335.383 212.173 335.332C214.663 335.247 216.613 333.161 216.527 330.67C216.474 329.127 215.665 327.8 214.461 327.025C213.715 326.535 212.821 326.273 211.867 326.308C209.377 326.393 207.427 328.479 207.512 330.976V330.973Z" fill="#F9A87F"/>
<path opacity="0.3" d="M207.512 330.973C207.544 331.928 207.879 332.813 208.413 333.527C209.159 334.017 210.059 334.286 211.02 334.251C213.51 334.166 215.466 332.08 215.38 329.589C215.349 328.621 215.014 327.743 214.461 327.025C213.715 326.535 212.821 326.273 211.867 326.308C209.377 326.393 207.427 328.479 207.512 330.976V330.973Z" fill="#F9A87F"/>
<path opacity="0.3" d="M222.458 332.674C222.499 333.881 222.923 335 223.596 335.901C224.68 337.339 226.417 338.247 228.351 338.18C231.498 338.073 233.963 335.433 233.856 332.285C233.789 330.338 232.765 328.656 231.242 327.679C230.301 327.063 229.17 326.731 227.963 326.769C224.815 326.877 222.351 329.516 222.458 332.671V332.674Z" fill="#F9A87F"/>
<path opacity="0.3" d="M222.458 332.674C222.499 333.881 222.923 335 223.596 335.901C224.537 336.518 225.675 336.859 226.891 336.818C230.039 336.71 232.509 334.071 232.402 330.923C232.361 329.699 231.938 328.587 231.242 327.683C230.301 327.066 229.17 326.734 227.963 326.772C224.815 326.88 222.351 329.519 222.458 332.674Z" fill="#F9A87F"/>
<path opacity="0.3" d="M199.806 317.406C199.844 318.535 200.239 319.581 200.871 320.422C201.885 321.765 203.509 322.615 205.316 322.552C208.258 322.451 210.562 319.985 210.464 317.043C210.4 315.222 209.443 313.651 208.021 312.737C207.14 312.159 206.084 311.849 204.953 311.887C202.011 311.988 199.708 314.454 199.806 317.406Z" fill="#F9A87F"/>
<path opacity="0.3" d="M199.806 317.406C199.844 318.535 200.239 319.581 200.871 320.422C201.752 321 202.817 321.316 203.951 321.278C206.893 321.177 209.206 318.712 209.105 315.766C209.067 314.621 208.669 313.581 208.021 312.734C207.14 312.156 206.084 311.846 204.953 311.884C202.011 311.985 199.708 314.451 199.806 317.403V317.406Z" fill="#F9A87F"/>
<path opacity="0.3" d="M190.563 340.425C191.454 341.013 192.529 341.335 193.673 341.297C196.618 341.196 198.918 338.73 198.817 335.787C198.754 333.964 197.799 332.396 196.377 331.479C195.496 330.904 194.44 330.594 193.312 330.632C192.165 330.67 191.12 331.068 190.27 331.713L190.544 339.783L190.567 340.421L190.563 340.425Z" fill="#F9A87F"/>
<path opacity="0.3" d="M190.266 331.716L190.541 339.786C191.097 339.96 191.691 340.045 192.308 340.023C195.246 339.922 197.562 337.453 197.461 334.514C197.423 333.369 197.025 332.329 196.374 331.479C195.493 330.904 194.437 330.594 193.309 330.632C192.162 330.67 191.116 331.068 190.266 331.713V331.716Z" fill="#F9A87F"/>
<path opacity="0.3" d="M194.238 326.361C194.26 326.984 194.478 327.562 194.826 328.027C195.385 328.77 196.283 329.238 197.281 329.203C198.905 329.149 200.175 327.787 200.122 326.162C200.087 325.157 199.559 324.291 198.773 323.785C198.286 323.466 197.705 323.295 197.079 323.317C195.455 323.371 194.184 324.733 194.238 326.364V326.361Z" fill="#F9A87F"/>
<path opacity="0.3" d="M194.238 326.361C194.26 326.984 194.478 327.562 194.826 328.027C195.313 328.346 195.9 328.52 196.526 328.501C198.15 328.447 199.427 327.085 199.37 325.46C199.348 324.828 199.13 324.256 198.769 323.788C198.283 323.469 197.701 323.298 197.076 323.32C195.452 323.374 194.181 324.736 194.235 326.368L194.238 326.361Z" fill="#F9A87F"/>
<path opacity="0.3" d="M213.687 314.539C213.709 315.162 213.927 315.74 214.274 316.205C214.834 316.948 215.731 317.416 216.73 317.381C218.354 317.327 219.624 315.965 219.57 314.34C219.535 313.335 219.008 312.469 218.221 311.963C217.734 311.644 217.153 311.473 216.527 311.495C214.903 311.549 213.633 312.911 213.687 314.542V314.539Z" fill="#F9A87F"/>
<path opacity="0.3" d="M213.687 314.539C213.709 315.162 213.927 315.74 214.274 316.205C214.761 316.524 215.349 316.698 215.974 316.679C217.598 316.625 218.875 315.263 218.818 313.638C218.796 313.006 218.578 312.434 218.218 311.966C217.731 311.647 217.15 311.476 216.524 311.498C214.9 311.552 213.63 312.914 213.684 314.545L213.687 314.539Z" fill="#F9A87F"/>
<path opacity="0.3" d="M200.754 345.21L208.35 344.556L209.411 344.464C209.203 343.232 208.482 342.188 207.478 341.547C206.757 341.069 205.895 340.82 204.972 340.851C202.612 340.93 200.754 342.865 200.757 345.21H200.754Z" fill="#F9A87F"/>
<path opacity="0.3" d="M200.754 345.21L208.35 344.556C208.366 344.379 208.369 344.205 208.362 344.025C208.331 343.092 208.009 342.239 207.475 341.547C206.754 341.069 205.891 340.82 204.969 340.851C202.608 340.93 200.751 342.865 200.754 345.21Z" fill="#F9A87F"/>
<path d="M213.156 338.471C212.006 340.542 210.454 342.094 208.653 343.162C203.958 345.96 197.569 345.492 192.172 342.492C184.702 338.338 181.962 330.907 186.111 323.434C187.568 320.811 189.672 318.778 192.118 317.422C196.636 314.918 202.302 314.732 207.149 317.422C214.619 321.576 217.308 330.995 213.156 338.468V338.471Z" fill="#E9375A"/>
<path d="M213.156 338.471C212.006 340.542 210.454 342.094 208.653 343.162C202.861 343.067 208.138 329.209 198.946 322.382C191.312 316.714 191.328 318.263 192.118 317.422C196.636 314.918 202.302 314.732 207.149 317.422C214.619 321.576 217.308 330.995 213.156 338.468V338.471Z" fill="#FF4F67"/>
<path d="M207.326 317.103C207.326 317.103 205.569 312.706 203.057 312.481C200.545 312.257 202.624 316.246 206.1 318.079C206.1 318.079 201.54 316.619 201.806 319.306C202.071 321.993 207.544 320.052 207.544 320.052C207.544 320.052 208.561 324.721 210.811 324.016C213.058 323.311 209.295 319.363 209.295 319.363C209.295 319.363 212.363 321.753 212.849 320.169C213.339 318.585 212.527 317.058 207.329 317.1L207.326 317.103Z" fill="#84B884"/>
<path d="M211.797 334.804C211.797 334.804 213.917 328.95 210.543 326.589C207.168 324.228 204.615 330.569 206.836 333.259C209.058 335.949 211.421 336.17 211.797 334.804Z" fill="#FF718B"/>
<path d="M201.818 335.456C201.417 337.792 200.466 339.767 199.117 341.37C195.606 345.561 189.423 347.233 183.337 346.184C174.916 344.733 169.873 338.623 171.327 330.199C171.835 327.24 173.15 324.626 175.011 322.54C178.449 318.683 183.735 316.635 189.198 317.577C197.619 319.028 203.269 327.031 201.815 335.456H201.818Z" fill="#E9375A"/>
<path d="M201.819 335.456C201.417 337.792 200.466 339.767 199.117 341.37C195.695 342.577 191.644 342.852 187.615 342.157C178.247 340.542 172.54 334.318 173.99 325.893C174.193 324.714 174.54 323.592 175.011 322.536C178.449 318.68 183.735 316.632 189.198 317.574C197.619 319.025 203.269 327.028 201.815 335.452L201.819 335.456Z" fill="#FF4F67"/>
<path d="M189.258 317.217C189.258 317.217 186.149 313.648 183.703 314.267C181.258 314.887 184.538 317.962 188.424 318.547C188.424 318.547 183.637 318.677 184.775 321.124C185.912 323.573 190.437 319.932 190.437 319.932C190.437 319.932 192.939 324.003 194.829 322.593C196.719 321.187 191.862 318.702 191.862 318.702C191.862 318.702 195.546 319.944 195.483 318.288C195.423 316.632 194.153 315.459 189.258 317.217Z" fill="#84B884"/>
<path d="M199.325 332.446C199.325 332.446 199.395 326.219 195.429 325.106C191.464 323.994 191.148 330.821 194.134 332.626C197.12 334.431 199.423 333.859 199.325 332.446Z" fill="#FF718B"/>
<path d="M116.947 310.032C117.193 306.64 115.241 304.174 112.608 302.309C111.408 301.459 110.267 303.438 111.455 304.282C113.462 305.704 114.849 307.455 114.662 310.035C114.555 311.501 116.839 311.495 116.944 310.035L116.947 310.032Z" fill="#84B884"/>
<path d="M125.519 307.835C127.068 307.477 129.488 307.048 131.608 307.228C133.198 307.357 134.616 307.831 135.368 308.935C137.741 312.418 137.754 336.916 137.302 343.01C137.09 345.817 135.457 347.192 133.763 347.856C132.91 348.191 132.035 348.349 131.324 348.419C131.178 348.431 131.036 348.444 130.91 348.454C130.189 348.498 129.706 348.454 129.706 348.454C128.714 349.519 126.483 350.217 124.375 350.417C122.628 350.581 120.966 350.404 120.173 349.813C120.173 349.813 119.803 350.053 119.168 350.3C118.495 350.568 117.519 350.843 116.365 350.853C115.733 350.853 115.048 350.777 114.327 350.568C113.743 350.407 113.127 350.154 112.507 349.794C108.441 347.423 96.6704 320.596 100.115 314.28C101.587 311.584 103.979 310.42 106.241 309.975C107.11 309.798 107.957 309.734 108.728 309.725C109.559 309.715 110.302 309.779 110.87 309.848C111.613 309.946 112.068 310.057 112.068 310.057C112.751 308.837 115.035 307.812 117.531 307.405C119.863 307.029 122.375 307.196 123.936 308.258L123.946 308.252C124.022 308.233 124.625 308.053 125.522 307.841L125.519 307.835Z" fill="#FF4F67"/>
<path d="M108.728 309.719C110.649 309.7 112.068 310.051 112.068 310.051C112.068 310.051 113.939 337.943 120.173 349.81C120.173 349.81 118.603 350.834 116.365 350.846C116.463 348.883 116.435 345.89 115.98 341.667C115.083 333.309 111.642 312.797 108.728 309.719Z" fill="#E7254F"/>
<path d="M125.519 307.835C125.807 309.219 126.461 311.855 127.605 314.277C129.264 317.763 132.218 328.95 131.687 339.198C131.425 344.287 131.34 346.99 131.317 348.419C130.373 348.514 129.7 348.45 129.7 348.45C129.7 348.45 133.788 325.818 123.93 308.249L123.939 308.242C124.015 308.223 124.619 308.043 125.516 307.831L125.519 307.835Z" fill="#E7254F"/>
<path opacity="0.5" d="M123.936 308.249L123.946 308.242L123.955 308.385C123.955 308.385 126.66 311.612 127.475 315.478C128.297 319.347 131.02 328.7 131.254 337.014C131.494 345.331 130.986 347.834 130.986 347.834L130.91 348.45C130.189 348.495 129.706 348.45 129.706 348.45C128.714 349.516 126.483 350.214 124.375 350.413C125.718 348.852 128.227 344.221 127.105 332.019C125.598 315.668 120.11 308.211 117.639 307.436C117.601 307.424 117.563 307.414 117.531 307.398C119.863 307.022 122.375 307.19 123.936 308.252V308.249Z" fill="#E7254F"/>
<path opacity="0.5" d="M108.728 309.719C109.559 309.709 110.302 309.772 110.871 309.842C111.695 311.233 111.294 313.117 111.809 315.127C112.928 319.48 114.441 329.63 116.466 339.359C117.68 345.188 119.184 348.631 119.165 350.293C118.492 350.562 117.516 350.837 116.362 350.846C115.73 350.846 115.045 350.771 114.324 350.562C114.981 347.275 115.234 342.056 114.014 333.9C112.198 321.746 108.962 314.037 106.238 309.968C107.107 309.791 107.954 309.728 108.725 309.719H108.728Z" fill="#E7254F"/>
<path d="M103.015 313.284C103.015 313.284 99.2994 317.899 101.713 319.704C104.128 321.509 106.902 314.106 105.651 312.905C104.399 311.701 103.641 312.412 103.015 313.287V313.284Z" fill="#FF7A92"/>
<path d="M128.979 310.013C128.979 310.013 130.113 313.812 131.69 312.592C133.267 311.372 130.515 307.506 129.57 308.069C128.625 308.631 128.742 309.349 128.982 310.013H128.979Z" fill="#FF7A92"/>
<path d="M175.984 329.665C179.204 330.091 181.792 328.384 183.738 325.963C184.651 324.828 183.046 323.203 182.124 324.348C180.503 326.361 178.683 327.736 175.981 327.379C174.531 327.186 174.543 329.472 175.981 329.665H175.984Z" fill="#84B884"/>
<path d="M177.596 338.354C177.861 339.922 178.142 342.365 177.839 344.471C177.615 346.051 177.058 347.439 175.911 348.125C172.297 350.284 147.849 348.836 141.795 348.021C139.005 347.641 137.732 345.928 137.169 344.199C136.885 343.326 136.781 342.444 136.755 341.727C136.752 341.582 136.746 341.439 136.746 341.313C136.746 340.592 136.819 340.112 136.819 340.112C135.814 339.056 135.251 336.786 135.179 334.672C135.119 332.917 135.394 331.267 136.032 330.512C136.032 330.512 135.814 330.129 135.608 329.478C135.381 328.789 135.166 327.796 135.226 326.646C135.264 326.017 135.381 325.334 135.634 324.626C135.83 324.051 136.117 323.453 136.515 322.853C139.122 318.933 166.596 308.78 172.692 312.598C175.295 314.229 176.313 316.685 176.622 318.974C176.746 319.85 176.758 320.7 176.723 321.471C176.682 322.303 176.578 323.039 176.474 323.605C176.332 324.341 176.196 324.787 176.196 324.787C177.374 325.539 178.259 327.885 178.515 330.401C178.752 332.753 178.433 335.253 177.283 336.745V336.755C177.302 336.834 177.447 337.444 177.602 338.354H177.596Z" fill="#FFB369"/>
<path d="M176.717 321.471C176.622 323.39 176.186 324.787 176.186 324.787C176.186 324.787 148.244 324.989 136.029 330.505C136.029 330.505 135.103 328.874 135.22 326.643C137.172 326.858 140.158 327.009 144.402 326.807C152.794 326.409 173.469 324.199 176.714 321.471H176.717Z" fill="#FF9E51"/>
<path d="M172.259 315.696C172.259 315.696 171.573 313.641 168.378 313.641C165.184 313.641 157.247 315.165 156.877 316.458C156.507 317.751 173.251 317.827 172.259 315.696Z" fill="#FFC694"/>
<path d="M177.595 338.354C176.199 338.56 173.529 339.053 171.042 340.055C167.462 341.503 156.125 343.788 145.931 342.644C140.869 342.078 138.177 341.831 136.755 341.727C136.717 340.775 136.819 340.109 136.819 340.109C136.819 340.109 159.158 345.545 177.276 336.745V336.755C177.295 336.834 177.441 337.444 177.595 338.354Z" fill="#FF9E51"/>
<path opacity="0.6" d="M177.276 336.745V336.755H177.141C177.141 336.755 173.756 339.261 169.854 339.846C165.945 340.434 156.45 342.596 148.14 342.337C139.827 342.081 137.359 341.423 137.359 341.423L136.746 341.31C136.746 340.589 136.819 340.109 136.819 340.109C135.814 339.053 135.251 336.783 135.179 334.668C136.657 336.104 141.129 338.885 153.37 338.49C169.775 337.959 177.545 332.927 178.465 330.505C178.477 330.467 178.493 330.433 178.509 330.401C178.746 332.753 178.427 335.253 177.276 336.745Z" fill="#FF9E51"/>
<path opacity="0.6" d="M176.717 321.471C176.676 322.303 176.572 323.039 176.467 323.605C175.03 324.345 173.172 323.832 171.137 324.228C166.726 325.087 156.507 325.991 146.68 327.433C140.79 328.296 137.264 329.595 135.608 329.475C135.381 328.786 135.166 327.793 135.226 326.643C135.264 326.014 135.381 325.331 135.634 324.623C138.876 325.476 144.067 326.039 152.276 325.309C164.514 324.221 172.398 321.449 176.622 318.974C176.746 319.85 176.758 320.7 176.723 321.471H176.717Z" fill="#FF9E51"/>
<path opacity="0.6" d="M177.836 344.471C177.611 346.051 177.055 347.439 175.908 348.125C172.294 350.284 147.846 348.836 141.792 348.02C139.002 347.641 137.729 345.928 137.166 344.199C139.599 345.735 144.762 347.666 155.423 347.783C166.021 347.904 173.377 346.295 177.833 344.471H177.836Z" fill="#FF9E51"/>
<path d="M107.035 352.844C106.7 352.844 106.4 352.626 106.298 352.304L73.9517 247.463C73.8759 247.219 73.9265 246.954 74.0813 246.758C74.2393 246.562 74.4984 246.505 74.7354 246.467L265.93 258.855C266.149 258.871 266.354 258.978 266.49 259.152C266.626 259.326 266.679 259.547 266.638 259.762L251.62 341.841C251.557 342.188 251.269 342.445 250.918 342.473L107.088 352.844H107.035ZM75.7528 248.076L107.591 351.264L250.214 340.978L264.97 260.337L75.7528 248.076Z" fill="#2D2B4E"/>
<path d="M261.333 285.262H261.314L84.758 280.713C84.3314 280.701 83.9965 280.35 84.0091 279.923C84.0186 279.506 84.363 279.174 84.777 279.174H84.7959L261.352 283.722C261.778 283.735 262.113 284.086 262.101 284.513C262.091 284.93 261.747 285.262 261.333 285.262Z" fill="#2D2B4E"/>
<path d="M97.5079 321.967C97.1003 321.967 96.759 321.648 96.7401 321.237C96.7179 320.811 97.0466 320.447 97.4731 320.428L255.996 312.693C256.404 312.737 256.783 313 256.802 313.423C256.824 313.85 256.495 314.214 256.069 314.233L97.5458 321.967H97.5079Z" fill="#2D2B4E"/>
<path d="M132.31 351.02C131.949 351.02 131.627 350.767 131.554 350.401L111.585 249.821C111.502 249.403 111.771 248.996 112.191 248.913C112.608 248.838 113.013 249.103 113.095 249.52L133.065 350.1C133.147 350.518 132.878 350.925 132.458 351.008C132.408 351.014 132.357 351.02 132.31 351.02Z" fill="#2D2B4E"/>
<path d="M181.956 347.325H181.943C181.52 347.319 181.179 346.965 181.185 346.544L182.784 254.278C182.79 253.854 183.135 253.519 183.555 253.519H183.568C183.991 253.525 184.332 253.879 184.326 254.3L182.727 346.566C182.721 346.99 182.376 347.325 181.956 347.325Z" fill="#2D2B4E"/>
<path d="M156.03 348.669C155.626 348.669 155.287 348.356 155.262 347.948L149.29 252.166C149.265 251.743 149.587 251.376 150.011 251.351C150.418 251.322 150.801 251.648 150.826 252.071L156.798 347.853C156.823 348.277 156.501 348.643 156.077 348.669H156.03Z" fill="#2D2B4E"/>
<path d="M206.185 345.691C206.163 345.691 206.138 345.691 206.116 345.688C205.692 345.65 205.38 345.274 205.421 344.85L213.677 256.222C213.715 255.798 214.072 255.463 214.514 255.526C214.938 255.564 215.251 255.94 215.21 256.364L206.953 344.992C206.915 345.391 206.58 345.691 206.185 345.691Z" fill="#2D2B4E"/>
<path d="M228.364 343.545C228.323 343.545 228.279 343.541 228.234 343.538C227.814 343.469 227.533 343.067 227.602 342.647L241.951 257.995C242.024 257.581 242.412 257.331 242.839 257.363C243.259 257.432 243.54 257.834 243.471 258.254L229.122 342.906C229.059 343.282 228.734 343.545 228.364 343.545Z" fill="#2D2B4E"/>
<path d="M107.035 352.844C106.706 352.844 106.403 352.636 106.298 352.304L66.1123 223.663C64.6777 219.08 60.4879 215.995 55.6818 215.995H23.6037C23.1772 215.995 22.8328 215.65 22.8328 215.227C22.8328 214.803 23.1772 214.459 23.6037 214.459H55.6818C61.1641 214.459 65.9448 217.974 67.5816 223.208L107.768 351.848C107.894 352.256 107.667 352.686 107.262 352.813C107.186 352.835 107.107 352.847 107.031 352.847L107.035 352.844Z" fill="#2D2B4E"/>
<path d="M51.7194 218.403H20.9084C18.5796 218.403 16.6711 216.497 16.6711 214.165C16.6711 211.835 18.5765 209.926 20.9084 209.926H51.7163C54.045 209.926 55.9535 211.832 55.9535 214.165C55.9535 216.494 54.0482 218.403 51.7163 218.403H51.7194Z" fill="#FF6576"/>
<path d="M210.315 430.889H100.677C100.235 430.889 99.8208 430.671 99.5681 430.305C99.3184 429.941 99.2616 429.477 99.4196 429.062L127.918 353.928C128.104 353.435 128.556 353.1 129.08 353.059L207.225 347.42C207.958 347.366 208.612 347.926 208.666 348.665C208.72 349.411 208.16 350.053 207.418 350.11L130.129 355.686L102.63 428.187H210.315C211.061 428.187 211.664 428.791 211.664 429.537C211.664 430.283 211.061 430.886 210.315 430.886V430.889Z" fill="#2D2B4E"/>
<path d="M123.683 448C128.779 448 132.91 443.867 132.91 438.77C132.91 433.672 128.779 429.54 123.683 429.54C118.588 429.54 114.457 433.672 114.457 438.77C114.457 443.867 118.588 448 123.683 448Z" fill="#2D2B4E"/>
<path d="M122.783 436.684L126.341 425.797C126.533 425.209 127.08 424.814 127.696 424.814H142.206C143.653 424.814 144.181 426.72 142.942 427.466L124.874 438.353C123.74 439.035 122.369 437.942 122.78 436.684H122.783Z" fill="#FF6576"/>
<path d="M200.82 448C205.916 448 210.047 443.867 210.047 438.77C210.047 433.672 205.916 429.54 200.82 429.54C195.724 429.54 191.594 433.672 191.594 438.77C191.594 443.867 195.724 448 200.82 448Z" fill="#2D2B4E"/>
<path d="M199.92 436.684L203.478 425.797C203.67 425.209 204.217 424.814 204.833 424.814H219.343C220.79 424.814 221.318 426.72 220.079 427.466L202.011 438.353C200.877 439.035 199.506 437.942 199.916 436.684H199.92Z" fill="#FF6576"/>
<path d="M129.172 355.91C127.873 355.91 126.774 354.905 126.679 353.59C126.578 352.209 127.614 351.011 128.992 350.907L221.984 344.057C223.393 343.949 224.563 344.992 224.664 346.367C224.765 347.749 223.728 348.947 222.351 349.051L129.358 355.901C129.295 355.904 129.235 355.907 129.172 355.907V355.91Z" fill="#2D2B4E"/>
<path d="M265.883 262.126C265.829 262.126 265.776 262.123 265.719 262.117L74.5235 249.729C73.1427 249.644 72.0968 248.452 72.1885 247.071C72.2769 245.692 73.4176 244.618 74.849 244.735L266.044 257.123C267.425 257.208 268.471 258.4 268.379 259.781C268.294 261.105 267.191 262.123 265.883 262.123V262.126Z" fill="#2D2B4E"/>
<path d="M264.689 258.001C258.824 257.774 252.96 257.546 247.095 257.319C245.856 257.271 245.856 259.196 247.095 259.244C252.96 259.471 258.824 259.699 264.689 259.926C265.927 259.974 265.927 258.049 264.689 258.001Z" fill="#454370"/>
</svg>
