<?xml version="1.0" encoding="UTF-8"?><svg xmlns="http://www.w3.org/2000/svg" xmlns:xlink="http://www.w3.org/1999/xlink" viewBox="0 0 177.51 266.33"><defs><style>.e{fill:#dddada;}.f{fill:#2d593a;}.g{fill:#fff;}.h{fill:#7ba941;}.i{clip-path:url(#d);}.j{fill:none;}.k,.l{fill:#efefef;}.l{fill-rule:evenodd;}</style><clipPath id="d"><path class="j" d="M90.65,65l-.38,.13-.44,.07-.53,.06-.54,.02-.58-.03-.73-.1-.5-.15c.05,.22,.57,.53,.86,.72,.31,.13,.55,.17,.87,.22,.32,.03,.72-.06,.72-.06l.4-.13,.55-.34,.29-.28,.11-.17-.08,.04Z"/></clipPath></defs><g id="a"/><g id="b"><g id="c"><path class="h" d="M177.51,88.75C177.51,39.74,137.77,0,88.76,0,39.74,0,0,39.74,0,88.75c0,1.16,.04,2.31,.08,3.46H0C0,147.79,88.75,245.68,88.75,245.68c0,0,88.76-97.88,88.76-153.46h-.09c.04-1.15,.09-2.3,.09-3.46Zm-88.76,53.64c-29.62,0-53.64-24.01-53.64-53.64s24.02-53.64,53.64-53.64,53.64,24.02,53.64,53.64-24.02,53.64-53.64,53.64Z"/><circle class="g" cx="88.76" cy="88.75" r="53.64"/><path class="h" d="M71.86,233.8c-23.49,4.37-28.97,8.12-28.99,10.9-.04,5.87,24.33,11.91,45.88,11.91,21.56,0,45.92-6.05,45.88-11.91-.02-2.77-5.49-6.51-28.92-10.86,2.45-2.94,4.9-5.88,7.36-8.82,2.36,.38,5.55,.98,9.26,1.99,2.24,.61,4.63,1.26,7.64,2.47,3.08,1.23,6.88,2.8,10.53,6.04,1.45,1.29,2.71,2.7,3.59,4.59,.81,1.74,.97,3.18,1.01,3.58,.11,1.15,0,2.09-.09,2.68-.05,.32-.24,1.36-.8,2.64-.99,2.24-2.43,3.64-3.43,4.59-1.08,1.03-2,1.66-2.94,2.3-2.38,1.62-4.42,2.53-6.14,3.28-1.68,.74-2.98,1.19-4.04,1.56-2.63,.92-4.72,1.46-6.06,1.81,0,0-1.9,.49-3.86,.91-13.27,2.81-28.81,2.84-28.81,2.84-5.3,.01-10.18-.25-14.63-.67-4.15-.39-7.15-.85-8.06-.99-2.47-.39-6.05-.96-10.62-2.17-4.12-1.09-6.87-2.12-7.66-2.43-2.5-.96-4.48-1.89-6.36-2.97-.43-.24-.93-.54-1.59-.97-1.27-.84-2.99-1.99-4.65-3.95-1.27-1.51-1.84-2.72-2.02-3.09-.31-.68-.48-1.22-.53-1.4-.38-1.26-.44-2.34-.44-3,0-.74,.08-1.36,.16-1.81,.05-.3,.21-1.11,.61-2.11,.13-.33,.47-1.12,1.13-2.14,.47-.71,1.23-1.73,2.65-3.03,2.12-1.93,4.11-3.03,5.73-3.9,1.6-.87,2.87-1.4,3.82-1.81,1.63-.69,3.65-1.44,6.71-2.33,2.69-.78,6.45-1.73,11.16-2.53,2.51,2.92,5.01,5.84,7.52,8.75Z"/><g><g><path class="h" d="M74.59,119.4c0-.85,.5-1.36,1.17-1.36,.32,0,.57,.16,.72,.32l-.18,.22c-.14-.15-.31-.25-.53-.25-.5,0-.83,.41-.83,1.06s.32,1.07,.81,1.07c.25,0,.44-.11,.61-.3l.18,.21c-.21,.24-.46,.38-.81,.38-.65,0-1.14-.51-1.14-1.36Z"/><path class="h" d="M77,117.86h.33v1.18c.17-.18,.37-.32,.63-.32,.41,0,.59,.26,.59,.76v1.23h-.33v-1.19c0-.36-.11-.52-.37-.52-.2,0-.34,.1-.53,.3v1.41h-.33v-2.85Z"/><path class="h" d="M79.04,119.74c0-.65,.42-1.02,.9-1.02s.9,.37,.9,1.02-.42,1.02-.9,1.02-.9-.37-.9-1.02Zm1.46,0c0-.45-.23-.75-.56-.75s-.56,.3-.56,.75,.23,.74,.56,.74,.56-.3,.56-.74Zm-.78,1.58c0-.12,.09-.21,.22-.21s.22,.09,.22,.21-.09,.22-.22,.22-.22-.09-.22-.22Zm.58-2.51c.23-.04,.36-.16,.36-.39,0-.07-.02-.15-.06-.22l.26-.12c.05,.08,.09,.2,.09,.31,0,.32-.22,.47-.46,.54l-.19-.13Z"/><path class="h" d="M81.87,118.76h.34l.37,1.11c.06,.19,.12,.39,.18,.57h.02c.06-.19,.12-.38,.18-.57l.37-1.11h.32l-.69,1.95h-.38l-.7-1.95Z"/><path class="h" d="M83.99,120v-1.23h.33v1.19c0,.36,.11,.52,.37,.52,.2,0,.34-.1,.52-.33v-1.38h.33v1.95h-.27l-.03-.3h-.01c-.18,.21-.37,.35-.64,.35-.41,0-.59-.26-.59-.76Z"/><path class="h" d="M86.14,118.15c0-.13,.1-.21,.23-.21s.23,.08,.23,.21-.1,.21-.23,.21-.23-.09-.23-.21Zm.06,.61h.33v1.95h-.33v-1.95Z"/><path class="h" d="M87.99,118.76h.27l.03,.28h.01c.17-.18,.37-.33,.61-.33,.3,0,.46,.14,.54,.37,.2-.22,.41-.37,.64-.37,.4,0,.59,.26,.59,.76v1.23h-.33v-1.19c0-.36-.11-.52-.36-.52-.15,0-.31,.1-.49,.3v1.41h-.33v-1.19c0-.36-.11-.52-.36-.52-.15,0-.31,.1-.49,.3v1.41h-.33v-1.95Z"/><path class="h" d="M91.16,119.74c0-.65,.42-1.02,.9-1.02s.9,.37,.9,1.02-.42,1.02-.9,1.02-.9-.37-.9-1.02Zm1.46,0c0-.45-.23-.75-.56-.75s-.56,.3-.56,.75,.23,.74,.56,.74,.56-.3,.56-.74Zm-.82-2.24c.23,0,.35,.17,.5,.17,.08,0,.11-.06,.13-.17l.17,.02c-.02,.21-.1,.35-.29,.35-.23,0-.35-.17-.5-.17-.08,0-.11,.06-.13,.17l-.17-.02c.02-.21,.1-.35,.29-.35Zm-.28,.8l.4-.35h.27l.4,.35-.11,.13-.41-.27h-.02l-.41,.27-.11-.13Z"/><path class="h" d="M93.41,118.15c0-.13,.1-.21,.23-.21s.23,.08,.23,.21-.1,.21-.23,.21-.23-.09-.23-.21Zm.06,.61h.33v1.95h-.33v-1.95Z"/><path class="h" d="M95.26,118.76h.27l.03,.28h.01c.19-.18,.39-.33,.65-.33,.41,0,.59,.26,.59,.76v1.23h-.33v-1.19c0-.36-.11-.52-.37-.52-.2,0-.34,.1-.53,.3v1.41h-.33v-1.95Z"/><path class="h" d="M97.3,121.08c0-.17,.11-.32,.29-.44v-.02c-.1-.06-.17-.17-.17-.32,0-.16,.11-.29,.21-.36v-.02c-.13-.1-.25-.29-.25-.52,0-.43,.34-.69,.73-.69,.11,0,.2,.02,.27,.05h.68v.25h-.4c.09,.09,.16,.23,.16,.4,0,.42-.31,.67-.71,.67-.09,0-.2-.02-.29-.07-.07,.06-.12,.12-.12,.23,0,.12,.08,.21,.34,.21h.38c.45,0,.68,.14,.68,.46,0,.36-.38,.67-.98,.67-.48,0-.81-.19-.81-.52Zm1.47-.1c0-.18-.14-.24-.39-.24h-.34c-.07,0-.17,0-.25-.03-.14,.1-.2,.21-.2,.33,0,.21,.21,.34,.56,.34s.62-.19,.62-.4Zm-.25-1.57c0-.28-.18-.45-.41-.45s-.41,.17-.41,.45,.19,.46,.41,.46,.41-.18,.41-.46Z"/><path class="h" d="M99.28,120.2c0-.42,.37-.64,1.2-.73,0-.25-.08-.49-.4-.49-.23,0-.43,.11-.58,.21l-.13-.23c.18-.12,.45-.25,.76-.25,.47,0,.68,.32,.68,.8v1.19h-.27l-.03-.23h-.01c-.19,.15-.4,.28-.64,.28-.33,0-.57-.2-.57-.55Zm.27-2.4l.23-.22,.57,.67-.17,.16-.63-.61Zm.92,2.43v-.54c-.65,.08-.87,.24-.87,.49,0,.22,.15,.31,.34,.31s.34-.09,.53-.26Z"/><path class="h" d="M101.23,121.51l.06-.26s.1,.03,.15,.03c.22,0,.36-.18,.44-.42l.04-.14-.78-1.95h.34l.4,1.08c.06,.17,.13,.37,.19,.55h.02c.06-.18,.11-.38,.16-.55l.35-1.08h.32l-.73,2.11c-.14,.39-.34,.68-.73,.68-.09,0-.17-.02-.23-.04Z"/></g><g><path class="f" d="M105.56,68.79c-3.21,3.28-7.14,4.05-11.65,3.15-.03,.46-.07,.86-.07,1.27,0,8.88,0,17.76,0,26.64,0,.45,0,.9-.07,1.34-.18,1.18-1.08,1.96-2.23,1.97-1.19,.02-2.15-.78-2.34-1.98-.06-.34-.05-.7-.05-1.05,0-4.95,0-9.9,0-14.85,0-.29,.04-.59-.04-.86-.04-.16-.27-.3-.44-.36-.06-.02-.28,.22-.31,.37-.06,.24-.02,.51-.02,.76,0,5.11,0,10.22,0,15.33,0,1.3-.52,2.13-1.53,2.5-1.34,.49-2.79-.33-3.06-1.76-.08-.4-.07-.83-.07-1.24,0-8.94,0-17.89,0-26.83v-1.28c-2.22,.47-4.34,.58-6.44,0-2.07-.56-3.86-1.59-5.27-3.33,1.58-.1,3.1-.83,4.7-.09,2.33,1.07,4.71,.93,7.11,.22,.72-.21,1.49-.33,2.24-.37,1.18-.06,2.36,0,3.54-.02,1.69-.02,3.34,.05,5,.57,2.19,.69,4.42,.52,6.52-.54,.2-.1,.42-.23,.62-.22,1.26,.08,2.52,.2,3.78,.31l.05,.34Z"/><path class="h" d="M90.92,67.02c.5-.19,1.01-.56,1.5-.55,7.06,.11,14.1,.47,21.05,1.84,.66,.13,1.32,.26,1.95,.49,.36,.13,.64,.47,.96,.72-.32,.17-.64,.35-1.07,.58,.6,1.25,1.24,2.59,1.9,3.93,1.4,2.87,2.8,5.74,4.22,8.6,.14,.28,.3,.63,.54,.76,1,.51,.79,1.16,.31,1.88-1.39,2.07-3.2,3.63-5.58,4.46-2.68,.93-5.08,.17-7.16-1.52-1.14-.93-2.05-2.16-3.01-3.3-.41-.49-.31-.98,.27-1.38,.3-.21,.57-.52,.73-.84,2.08-4.21,4.13-8.42,6.19-12.64,.08-.16,.1-.35,.18-.63-7.59-1.6-15.23-1.83-22.88-2.05-.03-.11-.06-.22-.09-.34m24.2,4.55c-.13,.23-.22,.3-.22,.38,0,3.25,0,6.5-.02,9.75,0,.57,.33,.66,.8,.7,1.27,.1,2.54,.24,3.8,.37,.33,.03,.65,.06,1.17,.11-1.9-3.87-3.7-7.54-5.55-11.31m-1.03,.21l-.29-.06c-1.8,3.67-3.59,7.35-5.44,11.12,1.73-.16,3.3-.34,4.88-.43,.67-.04,.87-.28,.86-.92-.03-2.42-.01-4.84,0-7.26v-2.45Zm7.32,12.82c-.19-.2-.23-.28-.28-.29-1.92-.24-3.83-.55-5.76-.69-.74-.05-.41,.71-.46,1.13-.07,.52,.19,.78,.73,.73,1.56-.14,3.11-.27,4.66-.45,.35-.04,.68-.26,1.11-.43m-13.21-.21c0,.09,0,.17,0,.26,.4,.15,.78,.37,1.19,.42,1.3,.16,2.6,.25,3.9,.39,.65,.07,.85-.23,.82-.83-.03-.55,.07-1.14-.8-1.04-1.39,.16-2.79,.27-4.18,.44-.32,.04-.61,.24-.92,.36"/><path class="h" d="M63.51,69.43c.88,1.8,1.68,3.45,2.49,5.1,1.32,2.7,2.63,5.39,3.96,8.08,.15,.3,.34,.67,.62,.81,.89,.48,.74,1.06,.29,1.73-1.34,2.03-3.09,3.56-5.36,4.46-2.07,.82-4.07,.56-6.01-.47-1.81-.97-3.28-2.31-4.37-4.06-.41-.66-.52-1.23,.33-1.65,.21-.1,.38-.34,.48-.56,2.06-4.18,4.11-8.37,6.16-12.56,.05-.11,.06-.23,.1-.37-.12-.04-.21-.05-.3-.09-.26-.11-.51-.22-.77-.33,.22-.23,.4-.57,.67-.66,.91-.28,1.85-.51,2.79-.69,6.81-1.25,13.69-1.63,20.59-1.71,.46,0,.93,.37,1.37,.72-7.69,.39-15.36,.61-23.05,2.24m-6.63,13.41c1.75-.16,3.27-.35,4.79-.42,.74-.04,.99-.26,.98-1.01-.04-2.97-.01-5.93-.02-8.9,0-.26-.04-.52-.07-.79-.07-.02-.14-.03-.22-.05-1.8,3.68-3.6,7.35-5.46,11.17m6.83-11.15l-.27,.06c0,3.36,0,6.73,.02,10.09,0,.18,.26,.49,.42,.5,1.7,.18,3.4,.32,5.27,.48-1.85-3.78-3.65-7.46-5.45-11.14m6.21,12.89c-.23-.21-.29-.32-.36-.33-1.88-.23-3.77-.47-5.66-.62-.13-.01-.37,.64-.45,1.01-.09,.43,0,.87,.61,.82,1.67-.15,3.35-.31,5.02-.5,.25-.03,.49-.22,.85-.38m-13.38-.28c.28,.33,.34,.45,.4,.46,1.75,.24,3.5,.49,5.26,.64,.11,.01,.39-.68,.39-1.04,0-.25-.34-.71-.54-.72-.85-.04-1.72,.02-2.56,.12-.92,.12-1.83,.33-2.95,.54"/><path class="f" d="M71.58,66.8c.56-.83,1.2-.92,1.89-.15-.63,.05-1.26,.1-1.89,.15"/><path class="f" d="M105.64,66.78c-.62-.04-1.25-.07-1.94-.11,.64-.82,1.12-.82,1.94,.11"/><path class="f" d="M88.77,58.89c-2.32,0-4.21,1.87-4.24,4.19-.02,2.31,1.86,4.23,4.17,4.26,2.37,.03,4.28-1.87,4.27-4.24,0-2.34-1.86-4.19-4.21-4.2Zm1.85,6.25l-.29,.28-.55,.33-.4,.13s-.39,.09-.72,.06c-.33-.04-.57-.08-.87-.22-.3-.18-.81-.5-.86-.72l.5,.15,.73,.1,.58,.03,.54-.02,.53-.06,.44-.07,.38-.13,.08-.04-.11,.17Z"/><g class="i"><path class="k" d="M84.83,.19c-2.47,.1-4.3,1.56-6.17,2.9,1.81-.43,3.41-1.3,4.93-2.33,.38-.26,.84-.4,1.26-.59,.12,.2,.19,.49,.37,.6,1.06,.64,2.12,1.28,3.22,1.84,1.03,.52,2.11,.94,3.17,1.4-2-1.78-4.39-2.81-6.79-3.82"/><path class="k" d="M121.79,32.37c-.04-.38-.13-.94-.15-1.5-.02-.74-.28-1.43-.97-1.59-.62-.14-1.44-.11-1.96,.2-.42,.25-.76,1.07-.69,1.58,.1,.74-.03,1.94,1.38,1.77,.13-.02,.37,.08,.39,.18,.22,.73,.6,.16,.84,.08,.36-.13,.66-.4,1.16-.72"/><path class="k" d="M92.13,3.64l.19,.33c2.27-.95,4.41-2.12,6.31-3.71-.06-.1-.12-.2-.18-.3l-6.32,3.68"/><path class="k" d="M73.01-1.13c1.38,1.68,2.97,3.1,4.94,4.05-1.35-1.72-3.01-3.05-4.94-4.05"/><path class="k" d="M125.66-.98c-.13-.15-.27-.3-.4-.45-1.63,1.37-3.26,2.74-4.89,4.12,.11,.13,.22,.26,.33,.39,1.65-1.35,3.31-2.7,4.96-4.06"/><path class="k" d="M126.39-1.69c-.04,.19-.08,.38-.12,.57,1.8,.42,3.61,.83,5.41,1.25,.04-.17,.08-.35,.12-.52-1.8-.43-3.61-.86-5.41-1.29"/><path class="k" d="M67.83,.54c.04,.17,.09,.34,.14,.51,1.56-.66,3.12-1.31,4.69-1.97-.07-.17-.15-.34-.22-.52-1.53,.66-3.07,1.32-4.6,1.98"/><path class="k" d="M150.7,30.75s-.07,0-.11,0v2.22s.07,0,.11,0v-2.22Z"/></g><path class="h" d="M78.74,61.64l9.79-6.93,10.2,6.49s1.28,2.59-9.66,2.42c-4.71-.07-10.63-.51-10.33-1.99"/></g><g><rect class="h" x="91.67" y="109.19" width="22.43" height="6.75"/><g><path class="k" d="M95.82,110.1s-.03,.06-.08,.06c-.14,.01-.29,.03-.43,.04-.17,.02-.29,.08-.38,.17-.14,.16-.21,.55-.21,1.18,.1,0,.25,0,.46,0s.36,0,.47,0c.07,0,.1,.03,.1,.08,0,.08,0,.2,0,.37s0,.28,0,.36c0,.06-.03,.08-.09,.08-.1,0-.26,0-.46-.02s-.36-.02-.46-.02v1.31c0,.2,0,.51,.02,.93,.02,.42,.02,.72,.02,.93,0,.08-.03,.12-.09,.12h-.8c-.08,0-.11-.05-.11-.14v-3.02c0-.08-.09-.12-.27-.11-.19,0-.3,0-.31-.02,0,0-.01-.06-.01-.16,0-.06,0-.16,0-.29,0-.13,0-.22,0-.29s.19-.1,.56-.12c0-.19-.01-.34-.01-.46,0-.52,.09-.9,.28-1.14,.16-.22,.4-.39,.72-.51,.28-.11,.58-.17,.88-.17,.03,0,.05,.02,.06,.05,0,0,.03,.13,.08,.37s.07,.37,.07,.37Z"/><path class="k" d="M100.17,113.59c0,.61-.2,1.13-.6,1.57-.41,.45-.92,.67-1.52,.67s-1.12-.22-1.53-.67c-.4-.43-.6-.95-.6-1.56s.2-1.13,.6-1.56c.41-.44,.92-.66,1.53-.66s1.11,.22,1.52,.66c.4,.43,.6,.94,.6,1.55Zm-.93,0c0-.36-.11-.66-.33-.91-.23-.27-.52-.4-.87-.4s-.64,.13-.87,.39c-.22,.25-.33,.56-.33,.92s.11,.65,.33,.91c.23,.27,.52,.41,.87,.41s.64-.14,.87-.41c.22-.26,.33-.56,.33-.91Z"/><path class="k" d="M104.75,113.59c0,.61-.2,1.13-.6,1.57-.41,.45-.92,.67-1.52,.67s-1.12-.22-1.53-.67c-.4-.43-.6-.95-.6-1.56s.2-1.13,.6-1.56c.41-.44,.92-.66,1.53-.66s1.11,.22,1.52,.66c.4,.43,.6,.94,.6,1.55Zm-.93,0c0-.36-.11-.66-.33-.91-.23-.27-.52-.4-.87-.4s-.64,.13-.87,.39c-.22,.25-.33,.56-.33,.92s.11,.65,.33,.91c.23,.27,.52,.41,.87,.41s.64-.14,.87-.41c.22-.26,.33-.56,.33-.91Z"/><path class="k" d="M109.59,109.61c0,.38-.02,.94-.05,1.69s-.05,1.32-.05,1.69c0,1.15,.02,2.03,.07,2.62v.06s-.03,.05-.11,.06c-.06,0-.14,0-.24,0-.12,0-.18-.01-.17-.01-.04,0-.11,0-.19,.01-.09,0-.15,.01-.19,.01-.04,0-.06-.1-.07-.3,0-.2-.02-.31-.03-.31-.02,0-.04,.03-.07,.06-.4,.43-.86,.65-1.38,.65-.59,0-1.08-.23-1.46-.68-.36-.42-.54-.93-.54-1.53s.18-1.15,.54-1.57c.38-.44,.87-.67,1.49-.67,.37,0,.69,.11,.96,.32,.13,.11,.25,.22,.37,.33,.02,0,.03-.03,.03-.06v-1.42c0-.1,0-.24-.01-.44,0-.2-.01-.34-.01-.44,0-.07,.02-.11,.07-.11,.11,0,.27,0,.48-.03,.21-.02,.37-.03,.48-.03,.05,0,.07,.03,.07,.09Zm-1.1,3.99c0-.35-.11-.66-.32-.93-.23-.28-.52-.43-.86-.43-.36,0-.66,.14-.89,.42-.22,.26-.33,.58-.33,.95s.12,.66,.35,.92c.24,.27,.53,.41,.88,.41s.64-.14,.87-.42c.21-.26,.32-.57,.32-.93Z"/></g><path class="e" d="M114.16,116.04c-.38-.53-.75-1.03-1.1-1.54-.61-.88-1.19-1.77-1.67-2.73-.21-.43-.4-.87-.57-1.32-.29-.8-.18-1.59,.18-2.34,.94-1.96,3.37-2.6,5.15-1.34,.99,.71,1.48,1.69,1.45,2.91,0,.5-.2,.96-.39,1.41-.49,1.14-1.14,2.19-1.83,3.21-.36,.54-.74,1.06-1.11,1.59-.03,.04-.06,.07-.11,.14m-.03-8.1c-.92,0-1.67,.75-1.67,1.67,0,.93,.76,1.68,1.68,1.68,.92,0,1.68-.76,1.67-1.67,0-.94-.74-1.68-1.69-1.68"/><path class="l" d="M115.82,109.61c0,.93-.75,1.68-1.68,1.68s-1.68-.75-1.68-1.68,.75-1.68,1.68-1.68,1.68,.75,1.68,1.68"/><path class="h" d="M115.19,116.04c-.38-.53-.75-1.03-1.1-1.54-.61-.88-1.19-1.77-1.67-2.73-.21-.43-.4-.87-.57-1.32-.29-.8-.18-1.59,.18-2.34,.94-1.96,3.37-2.6,5.15-1.34,.99,.71,1.48,1.69,1.45,2.91,0,.5-.2,.96-.39,1.41-.49,1.14-1.14,2.19-1.83,3.21-.36,.54-.74,1.06-1.11,1.59-.03,.04-.06,.07-.11,.14m-.03-8.1c-.92,0-1.67,.75-1.67,1.67,0,.93,.76,1.68,1.68,1.68,.92,0,1.68-.76,1.67-1.67,0-.94-.74-1.68-1.69-1.68"/><g><path class="f" d="M61.78,115.94c-1.97,0-2.9-1.17-2.9-2.79v-3.7c0-.17,.08-.26,.26-.26h3.79c.18,0,.27,.09,.27,.26v3.87c0,1.03,.3,1.45,1.17,1.45h3.89c.17,0,.26,.09,.26,.27v.63c0,.18-.09,.27-.26,.27h-6.47Z"/><path class="f" d="M73.7,113.55c-.17,0-.26-.09-.26-.27v-.63c0-.18,.09-.27,.26-.27h1.27c.62,0,1.12-.26,1.12-1.02,0-.7-.49-1.02-1.12-1.02h-2.12v5.32c0,.18-.09,.27-.27,.27h-3.39c-.17,0-.26-.09-.26-.27v-6.22c0-.17,.09-.26,.26-.26h8.46c1.3,0,2.31,.81,2.31,2.22s-1.12,2.15-2.57,2.15h-3.69Z"/><path class="f" d="M83.72,115.94c-1.87,0-3.24-1.41-3.24-3.37s1.3-3.37,3.24-3.37h6.74c.18,0,.27,.09,.27,.26v.63c0,.18-.09,.27-.27,.27h-4.42c-.86,0-1.17,.33-1.17,1.54v1.08c0,1.35,.36,1.8,1.17,1.8h4.46c.17,0,.26,.09,.26,.27v.63c0,.18-.09,.27-.26,.27h-6.78Z"/></g></g></g></g></g></svg>