<svg width="26" height="26" viewBox="0 0 26 26" fill="none" xmlns="http://www.w3.org/2000/svg">
<path d="M13 0C16.4478 0 19.7544 1.36964 22.1924 3.80761C24.6304 6.24559 26 9.55219 26 13C26 14.7072 25.6637 16.3977 25.0104 17.9749C24.3571 19.5521 23.3995 20.9852 22.1924 22.1924C19.7544 24.6304 16.4478 26 13 26C9.55219 26 6.24558 24.6304 3.80761 22.1924C1.36964 19.7544 0 16.4478 0 13C0 11.2928 0.336255 9.60235 0.989566 8.02512C1.64288 6.44788 2.60045 5.01477 3.80761 3.80761C5.01477 2.60045 6.44788 1.64288 8.02512 0.989565C9.60235 0.336254 11.2928 1.90735e-06 13 0ZM13 2.6C10.2417 2.6 7.59647 3.69571 5.64609 5.64609C3.69571 7.59647 2.6 10.2417 2.6 13C2.6 15.7583 3.69571 18.4035 5.64609 20.3539C7.59647 22.3043 10.2417 23.4 13 23.4C15.7583 23.4 18.4035 22.3043 20.3539 20.3539C22.3043 18.4035 23.4 15.7583 23.4 13C23.4 10.2417 22.3043 7.59647 20.3539 5.64609C18.4035 3.69571 15.7583 2.6 13 2.6ZM10.4 20.8L18.2 13L10.4 5.2L8.58 7.02L14.56 13L8.58 18.98L10.4 20.8Z" fill="#2D593A"/>
</svg>
