<?xml version="1.0" encoding="UTF-8"?><svg xmlns="http://www.w3.org/2000/svg" viewBox="0 0 59.65 50.21"><defs><style>.d{fill:#fff;}</style></defs><g id="a"/><g id="b"><g id="c"><g><path class="d" d="M20.12,50.21c-3.71,0-6.72-3.02-6.72-6.72s3.02-6.73,6.72-6.73,6.73,3.02,6.73,6.73-3.02,6.72-6.73,6.72Z"/><path class="d" d="M50.31,50.21c-3.71,0-6.73-3.02-6.73-6.72s3.02-6.73,6.73-6.73,6.72,3.02,6.72,6.73-3.02,6.72-6.72,6.72Z"/><path class="d" d="M50.31,44.52H21.62c-.8,0-1.57-.39-2.04-1.04-.48-.66-.61-1.5-.37-2.27l3.85-9.47c.22-.53,.82-.79,1.35-.57,.53,.22,.78,.82,.57,1.35l-3.83,9.39c-.02,.06,0,.22,.09,.34,.09,.12,.22,.19,.37,.19h28.69c.57,0,1.04,.46,1.04,1.04s-.46,1.04-1.04,1.04Z"/><path class="d" d="M59.16,6.82c-.48-.65-1.24-1.03-2.04-1.03H13.9L11.87,1.15c-.17-.38-.54-.62-.95-.62H1.32C.75,.53,.28,.99,.28,1.56s.46,1.04,1.04,1.04H10.24l12.67,29.04c.4,.93,1.31,1.53,2.33,1.53h24.83c1.11,0,2.08-.71,2.42-1.77l7.04-22.32c.24-.77,.1-1.61-.37-2.26Zm-11.2,20.35H26.75c-.57,0-1.04-.46-1.04-1.04s.46-1.04,1.04-1.04h21.2c.57,0,1.04,.46,1.04,1.04s-.46,1.04-1.04,1.04Zm1.81-6.55H24.95c-.57,0-1.04-.46-1.04-1.04s.46-1.04,1.04-1.04h24.82c.57,0,1.04,.46,1.04,1.04s-.46,1.04-1.04,1.04Zm1.48-6.55H23.46c-.57,0-1.04-.46-1.04-1.04s.46-1.04,1.04-1.04h27.79c.57,0,1.04,.46,1.04,1.04s-.46,1.04-1.04,1.04Z"/><path class="d" d="M3.27,1.64c0,.9-.73,1.63-1.64,1.63S0,2.54,0,1.64,.73,0,1.63,0s1.64,.73,1.64,1.64Z"/></g></g></g></svg>