<svg width="26" height="26" viewBox="0 0 26 26" fill="none" xmlns="http://www.w3.org/2000/svg">
<path d="M13 0C9.55219 0 6.24559 1.36964 3.80761 3.80761C1.36964 6.24559 0 9.55219 0 13C0 14.7072 0.336254 16.3977 0.989565 17.9749C1.64288 19.5521 2.60045 20.9852 3.80761 22.1924C6.24559 24.6304 9.55219 26 13 26C16.4478 26 19.7544 24.6304 22.1924 22.1924C24.6304 19.7544 26 16.4478 26 13C26 11.2928 25.6637 9.60235 25.0104 8.02512C24.3571 6.44788 23.3995 5.01477 22.1924 3.80761C20.9852 2.60045 19.5521 1.64288 17.9749 0.989565C16.3977 0.336254 14.7072 1.90735e-06 13 0ZM13 2.6C15.7583 2.6 18.4035 3.69571 20.3539 5.64609C22.3043 7.59647 23.4 10.2417 23.4 13C23.4 15.7583 22.3043 18.4035 20.3539 20.3539C18.4035 22.3043 15.7583 23.4 13 23.4C10.2417 23.4 7.59647 22.3043 5.64609 20.3539C3.69571 18.4035 2.6 15.7583 2.6 13C2.6 10.2417 3.69571 7.59647 5.64609 5.64609C7.59647 3.69571 10.2417 2.6 13 2.6ZM15.6 20.8L7.8 13L15.6 5.2L17.42 7.02L11.44 13L17.42 18.98L15.6 20.8Z" fill="#2D593A"/>
</svg>
