<?xml version="1.0" encoding="UTF-8"?><svg xmlns="http://www.w3.org/2000/svg" viewBox="0 0 138.72 139.42"><defs><style>.d{fill:#fff;}</style></defs><g id="a"/><g id="b"><g id="c"><g><g><polygon class="d" points="11.51 84.21 11.51 90.4 17.71 90.4 17.71 84.21 17.71 78.02 11.51 78.02 11.51 84.21"/><rect class="d" x="11.51" y="47.07" width="6.19" height="6.19"/><rect class="d" x="49.77" y="115.23" width="6.19" height="6.19"/><polygon class="d" points="17.71 59.45 17.71 65.64 11.51 65.64 11.51 71.83 17.71 71.83 17.71 78.02 23.9 78.02 30.09 78.02 30.09 84.21 36.28 84.21 36.28 78.02 42.47 78.02 42.47 71.83 42.47 65.64 36.28 65.64 36.28 71.83 30.09 71.83 23.9 71.83 23.9 65.64 23.9 59.45 23.9 53.26 17.71 53.26 17.71 59.45"/><polygon class="d" points="30.09 47.07 23.9 47.07 23.9 53.26 30.09 53.26 36.28 53.26 36.28 47.07 30.09 47.07"/><polygon class="d" points="57.95 96.84 61.28 96.84 61.28 90.65 57.95 90.65 54.62 90.65 54.62 96.84 57.95 96.84"/><rect class="d" x="36.28" y="53.26" width="6.19" height="6.19"/><rect class="d" x="79.62" y="78.02" width="6.19" height="6.19"/><rect class="d" x="85.81" y="9.92" width="6.19" height="6.19"/><polygon class="d" points="54.85 59.45 54.85 53.26 61.04 53.26 61.04 47.07 54.85 47.07 54.85 40.87 48.66 40.87 48.66 47.07 42.47 47.07 42.47 53.26 48.66 53.26 48.66 59.45 48.66 65.64 48.66 71.83 48.66 78.02 54.85 78.02 54.85 71.83 54.85 65.64 61.04 65.64 61.04 59.45 54.85 59.45"/><polygon class="d" points="85.81 121.36 92 121.36 92 115.17 85.81 115.17 79.62 115.17 79.62 121.36 85.81 121.36"/><rect class="d" x="73.43" y="9.92" width="6.19" height="6.19"/><polygon class="d" points="78.07 59.45 78.07 53.26 71.88 53.26 71.88 47.07 65.69 47.07 65.69 53.26 65.69 59.45 59.5 59.45 59.5 65.64 65.69 65.64 71.88 65.64 71.88 59.45 78.07 59.45"/><rect class="d" x="106.82" y="47.07" width="6.19" height="6.19"/><rect class="d" x="42.65" y="78.02" width="6.19" height="6.19"/><polygon class="d" points="73.43 40.87 73.43 34.68 79.62 34.68 79.62 28.49 85.81 28.49 92 28.49 92 22.3 85.81 22.3 85.81 16.11 79.62 16.11 79.62 22.3 73.43 22.3 73.43 28.49 67.24 28.49 67.24 34.68 61.04 34.68 61.04 40.87 67.24 40.87 73.43 40.87"/><polygon class="d" points="73.43 84.21 73.43 78.02 79.62 78.02 79.62 71.83 73.43 71.83 67.24 71.83 67.24 78.02 61.04 78.02 61.04 84.21 67.24 84.21 73.43 84.21"/><polygon class="d" points="92 108.97 92 102.78 85.81 102.78 79.62 102.78 79.62 96.59 73.43 96.59 73.43 102.78 67.24 102.78 67.24 108.97 61.04 108.97 54.85 108.97 54.85 115.17 61.04 115.17 67.24 115.17 73.43 115.17 73.43 108.97 79.62 108.97 79.62 115.17 85.81 115.17 85.81 108.97 92 108.97"/><polygon class="d" points="67.24 16.11 67.24 9.92 61.04 9.92 54.85 9.92 54.85 16.11 48.66 16.11 48.66 22.3 54.85 22.3 61.04 22.3 61.04 16.11 67.24 16.11"/><rect class="d" x="61.04" y="22.3" width="6.19" height="6.19"/><polygon class="d" points="82.71 47.07 76.52 47.07 76.52 53.26 76.52 59.45 76.52 65.64 82.71 65.64 88.91 65.64 88.91 59.45 82.71 59.45 82.71 53.26 88.91 53.26 88.91 47.07 95.1 47.07 95.1 40.87 88.91 40.87 88.91 34.68 82.71 34.68 82.71 40.87 82.71 47.07"/><rect class="d" x="54.85" y="28.49" width="6.19" height="6.19"/><polygon class="d" points="79.62 90.4 79.62 96.6 85.81 96.6 92 96.6 92 90.4 98.19 90.4 104.38 90.4 104.38 84.21 98.19 84.21 92 84.21 85.81 84.21 85.81 90.4 79.62 90.4"/><rect class="d" x="106.82" y="65.64" width="6.19" height="6.19"/><rect class="d" x="85.81" y="71.83" width="6.19" height="6.19"/><polygon class="d" points="107.48 53.26 101.29 53.26 95.1 53.26 95.1 59.45 101.29 59.45 101.29 65.64 107.48 65.64 107.48 59.45 107.48 53.26"/><rect class="d" x="98.19" y="71.83" width="6.19" height="6.19"/><path class="d" d="M36.28,109.09h18.58v-24.89H29.97v6.2h-6.07v6.19h6.07v6.19h-6.07v6.19h6.07v.12h.12v6.08h-6.19v12.38h6.19v-6.19h6.19v-12.27Zm13.81-20.12v15.48h-15.48v-15.48h15.48Z"/><polygon class="d" points="116.77 84.21 122.96 84.21 122.96 78.02 116.77 78.02 110.57 78.02 104.38 78.02 104.38 84.21 110.57 84.21 116.77 84.21"/><polygon class="d" points="116.77 59.45 122.96 59.45 122.96 53.26 122.96 47.07 116.77 47.07 116.77 53.26 116.77 59.45"/><polygon class="d" points="67.47 90.65 61.28 90.65 61.28 96.84 61.28 103.03 67.47 103.03 67.47 96.84 67.47 90.65"/><rect class="d" x="122.96" y="84.21" width="6.19" height="6.19"/><polygon class="d" points="129.15 71.83 129.15 65.64 122.96 65.64 122.96 71.83 122.96 78.02 129.15 78.02 129.15 71.83"/><polygon class="d" points="17.71 115.17 11.51 115.17 11.51 121.36 11.51 127.55 17.71 127.55 17.71 121.36 17.71 115.17"/><path class="d" d="M129.15,40.87V9.92h-30.96v30.96h30.96Zm-26.31-4.64V14.56h21.67v21.67h-21.67Z"/><rect class="d" x="107.48" y="19.2" width="12.38" height="12.38"/><path class="d" d="M129.15,96.6h-30.96v30.96h30.96v-30.96Zm-26.31,26.31v-21.67h21.67v21.67h-21.67Z"/><rect class="d" x="107.48" y="105.88" width="12.38" height="12.38"/><path class="d" d="M11.44,9.92v30.96h30.96V9.92H11.44Zm26.31,4.64v21.67H16.08V14.56h21.67Z"/><rect class="d" x="20.72" y="19.2" width="12.38" height="12.38"/></g><path class="d" d="M2.61,31.5V9.51c0-2.05,.34-3.99,1.74-5.6,1.56-1.8,3.71-2.5,6.02-2.5h23.12c.89,0,.89-1.38,0-1.38H10.63C8.67,.03,6.8,.32,5.12,1.42,2.67,3.03,1.28,5.73,1.23,8.64c-.06,3.62,0,7.24,0,10.86v12c0,.89,1.38,.89,1.38,0h0Z"/><path class="d" d="M31.47,138.01H9.48c-2.05,0-3.99-.34-5.6-1.74-1.8-1.56-2.5-3.71-2.5-6.03v-23.12c0-.89-1.38-.89-1.38,0v22.86c0,1.96,.29,3.83,1.39,5.51,1.61,2.45,4.31,3.84,7.22,3.89,3.62,.06,7.24,0,10.86,0h12c.89,0,.89-1.38,0-1.38h0Z"/><path class="d" d="M137.31,106.9v21.99c0,2.05-.34,3.99-1.74,5.6-1.56,1.8-3.71,2.5-6.03,2.5h-23.12c-.89,0-.89,1.38,0,1.38h22.86c1.96,0,3.83-.29,5.51-1.39,2.45-1.61,3.84-4.31,3.89-7.22,.06-3.62,0-7.24,0-10.86v-12c0-.89-1.38-.89-1.38,0h0Z"/><path class="d" d="M106.82,1.41h21.99c2.05,0,3.99,.34,5.6,1.74,1.8,1.56,2.5,3.71,2.5,6.03v23.12c0,.89,1.38,.89,1.38,0V9.43c0-1.96-.29-3.83-1.39-5.51-1.61-2.45-4.31-3.84-7.22-3.89-3.62-.06-7.24,0-10.86,0h-12c-.89,0-.89,1.38,0,1.38h0Z"/></g></g></g></svg>