<?xml version="1.0" encoding="UTF-8"?><svg xmlns="http://www.w3.org/2000/svg" viewBox="0 0 118.62 118.62"><defs><style>.d{fill:#fff;}</style></defs><g id="a"/><g id="b"><g id="c"><g><path class="d" d="M117.36,14.15c-.32-6.99-5.91-12.58-12.9-12.9L77.38,.01c-3.8-.17-7.5,1.26-10.19,3.95L3.96,67.19c-5.28,5.29-5.28,13.85,0,19.13l28.33,28.33c5.28,5.28,13.85,5.28,19.13,0l63.23-63.23c2.69-2.69,4.12-6.39,3.95-10.18l-1.24-27.09ZM52.12,86.73c-2.24,2.24-5.04,3.87-6.75,4.37l-2.77-4.57c1.8-.58,4.25-1.81,6.14-3.7,2.05-2.04,2.28-3.96,1-5.24-1.22-1.22-2.86-.99-6.06,.53-4.4,2.13-8.33,2.45-11.19-.41-3.35-3.35-3.12-8.71,1.51-13.34,2.22-2.22,4.31-3.38,6-4.02l2.59,4.57c-1.16,.41-3.12,1.25-5.04,3.17-1.92,1.92-1.98,3.73-.96,4.75,1.24,1.25,2.91,.69,6.4-.88,4.75-2.18,8.19-2.01,10.95,.76,3.29,3.29,3.55,8.62-1.84,14.01Zm20.89-21.48l-6.55-3.52-5.62,5.62,3.64,6.44-4.6,4.6-13.63-25.64,5.82-5.82,25.72,13.54-4.78,4.78Zm5.96-5.95l-19.63-19.64,4.46-4.45,15.91,15.91,7.81-7.81,3.73,3.73-12.26,12.26Zm13.43-13.44l-19.63-19.63,12.12-12.12,3.64,3.64-7.66,7.66,4.08,4.08,7.22-7.22,3.61,3.61-7.22,7.22,4.66,4.66,8.07-8.07,3.65,3.64-12.53,12.52Z"/><path class="d" d="M58.16,63.39l4.34-4.34-5.39-2.94c-1.51-.81-3.32-1.92-4.78-2.8l-.06,.06c.88,1.46,2.07,3.23,2.89,4.69l3,5.33Z"/></g></g></g></svg>