<svg width="20" height="20"  viewBox="0 0 19 19" fill="none" xmlns="http://www.w3.org/2000/svg">
<path fill-rule="evenodd" clip-rule="evenodd" d="M12.3396 11.5914H13.1721L18.4303 16.8602L16.8602 18.4303L11.5914 13.1721V12.3396L11.3069 12.0445C10.1056 13.0772 8.54603 13.6989 6.84947 13.6989C3.06645 13.6989 0 10.6325 0 6.84947C0 3.06645 3.06645 0 6.84947 0C10.6325 0 13.6989 3.06645 13.6989 6.84947C13.6989 8.54603 13.0772 10.1056 12.0445 11.3069L12.3396 11.5914ZM2.10753 6.84947C2.10753 9.47334 4.22559 11.5914 6.84947 11.5914C9.47334 11.5914 11.5914 9.47334 11.5914 6.84947C11.5914 4.22559 9.47334 2.10753 6.84947 2.10753C4.22559 2.10753 2.10753 4.22559 2.10753 6.84947Z" fill="#7CAB41"/>
</svg>
