<?xml version="1.0" encoding="UTF-8"?><svg xmlns="http://www.w3.org/2000/svg" viewBox="0 0 177.49 45.71"><defs><style>.d,.e{fill:#dddada;}.f{fill:#f0efef;}.g{fill:#7ba840;}.h{fill:none;}.e{fill-rule:evenodd;}</style></defs><g id="a"/><g id="b"><g id="c"><g><g><g><path class="h" d="M164.05,15.31s.07,0,.1,0c2.73,0,4.98-2.25,4.98-4.96,0-2.8-2.21-5-5.01-5-2.32,0-4.25,1.59-4.79,3.73h4.73v6.23Z"/><path class="g" d="M155.99,16.76c-.63-1.27-1.19-2.58-1.68-3.92-.46-1.27-.57-2.52-.43-3.75h-56.46V29.13h66.59c-1.05-1.45-2.07-2.85-3.06-4.27-1.81-2.6-3.54-5.26-4.96-8.1Z"/><path class="d" d="M170.12,1.94c-5.26-3.75-12.49-1.86-15.28,3.97-.5,1.04-.83,2.1-.96,3.18-.15,1.23-.03,2.49,.43,3.75,.48,1.33,1.04,2.65,1.68,3.92,1.42,2.84,3.15,5.5,4.96,8.1,.99,1.42,2.01,2.82,3.06,4.27,.07,.1,.14,.19,.21,.29,.16-.19,.25-.3,.33-.41,1.1-1.57,2.23-3.12,3.3-4.71,2.04-3.04,3.96-6.16,5.42-9.54,.58-1.34,1.13-2.7,1.16-4.17,.07-3.62-1.38-6.55-4.32-8.64Zm-5.97,13.38s-.07,0-.1,0c-2.7-.05-4.88-2.26-4.88-4.99,0-.43,.06-.84,.16-1.24,.54-2.15,2.48-3.73,4.79-3.73,2.8,0,5.01,2.2,5.01,5,0,2.72-2.24,4.95-4.98,4.96Z"/></g><path class="g" d="M167.27,29.42c-1.12-1.56-2.22-3.05-3.27-4.56-1.81-2.6-3.54-5.26-4.96-8.1-.63-1.27-1.19-2.58-1.68-3.92-.86-2.37-.54-4.71,.53-6.94,2.8-5.83,10.03-7.72,15.28-3.97,2.93,2.09,4.39,5.03,4.32,8.64-.03,1.47-.58,2.84-1.16,4.17-1.46,3.38-3.38,6.49-5.42,9.54-1.07,1.59-2.2,3.14-3.3,4.71-.08,.12-.18,.22-.33,.41m-.1-24.07c-2.74,0-4.96,2.22-4.95,4.97,0,2.76,2.24,5,4.99,4.99,2.73,0,4.98-2.25,4.98-4.96,0-2.8-2.21-5-5.01-5"/><g><path class="f" d="M8.61,29.13C2.76,29.13,0,25.66,0,20.84V9.85c0-.5,.23-.76,.77-.76H12.02c.53,0,.79,.26,.79,.76v11.49c0,3.06,.88,4.32,3.47,4.32h11.55c.5,0,.77,.27,.77,.79v1.88c0,.53-.27,.79-.77,.79H8.61Z"/><path class="f" d="M44.04,22.05c-.5,0-.76-.26-.76-.79v-1.88c0-.53,.26-.79,.76-.79h3.76c1.85,0,3.32-.76,3.32-3.03,0-2.09-1.47-3.03-3.32-3.03h-6.29v15.81c0,.53-.27,.79-.79,.79h-10.08c-.5,0-.76-.26-.76-.79V9.85c0-.5,.26-.76,.76-.76h25.13c3.85,0,6.88,2.41,6.88,6.58s-3.32,6.38-7.64,6.38h-10.96Z"/><path class="f" d="M73.79,29.13c-5.56,0-9.64-4.2-9.64-10.02s3.85-10.02,9.64-10.02h20.01c.53,0,.79,.26,.79,.76v1.88c0,.53-.27,.79-.79,.79h-13.14c-2.56,0-3.47,.97-3.47,4.58v3.2c0,4,1.06,5.35,3.47,5.35h13.25c.5,0,.76,.27,.76,.79v1.88c0,.53-.26,.79-.76,.79h-20.13Z"/></g><g><path class="f" d="M109.72,11.79c0,.1-.08,.17-.23,.18-.43,.04-.85,.08-1.26,.12-.49,.07-.87,.24-1.13,.52-.43,.46-.64,1.63-.64,3.5,.29,0,.74,0,1.35,.03,.62,.02,1.08,.03,1.39,.03,.21,0,.31,.08,.31,.23,0,.24,0,.61,.03,1.09,.02,.48,.03,.84,.03,1.07,0,.17-.09,.25-.26,.25-.3,0-.76-.02-1.38-.05-.62-.03-1.07-.05-1.37-.05v3.89c0,.61,.02,1.53,.07,2.76,.04,1.23,.07,2.15,.07,2.76,0,.23-.09,.35-.26,.35h-2.38c-.23,0-.34-.13-.34-.4v-8.96c0-.23-.26-.35-.79-.34-.57,0-.88-.01-.91-.07-.03-.03-.04-.19-.04-.48,0-.19,0-.48-.03-.85-.02-.38-.03-.66-.03-.85s.55-.3,1.65-.36c-.03-.56-.04-1.01-.04-1.35,0-1.54,.27-2.66,.82-3.37,.49-.64,1.2-1.15,2.14-1.51,.84-.33,1.71-.49,2.62-.49,.09,0,.15,.05,.18,.14,0,.02,.08,.38,.23,1.1s.21,1.09,.21,1.11Z"/><path class="f" d="M122.63,22.15c0,1.81-.59,3.36-1.78,4.65-1.22,1.33-2.72,1.99-4.52,1.99s-3.32-.66-4.53-1.98c-1.19-1.28-1.78-2.82-1.78-4.64s.59-3.36,1.78-4.64c1.22-1.3,2.73-1.95,4.53-1.95s3.29,.65,4.51,1.95c1.2,1.27,1.8,2.8,1.8,4.61Zm-2.75,.03c0-1.06-.33-1.96-.98-2.71-.68-.79-1.54-1.18-2.58-1.18s-1.91,.39-2.59,1.17c-.65,.76-.98,1.66-.98,2.72s.33,1.94,.99,2.71c.69,.81,1.55,1.21,2.58,1.21s1.89-.4,2.58-1.21c.65-.76,.98-1.67,.98-2.71Z"/><path class="f" d="M136.27,22.15c0,1.81-.59,3.36-1.78,4.65-1.22,1.33-2.72,1.99-4.52,1.99s-3.32-.66-4.53-1.98c-1.19-1.28-1.78-2.82-1.78-4.64s.59-3.36,1.78-4.64c1.22-1.3,2.73-1.95,4.53-1.95s3.29,.65,4.51,1.95c1.2,1.27,1.8,2.8,1.8,4.61Zm-2.75,.03c0-1.06-.33-1.96-.98-2.71-.68-.79-1.54-1.18-2.58-1.18s-1.91,.39-2.59,1.17c-.65,.76-.98,1.66-.98,2.72s.33,1.94,.99,2.71c.69,.81,1.55,1.21,2.58,1.21s1.89-.4,2.58-1.21c.65-.76,.98-1.67,.98-2.71Z"/><path class="f" d="M150.62,10.32c0,1.12-.05,2.8-.15,5.03-.1,2.24-.15,3.91-.15,5.02,0,3.43,.07,6.02,.22,7.79v.17c.02,.09-.1,.14-.34,.17-.16,.02-.4,.02-.7,0-.36-.03-.53-.04-.51-.04-.13,0-.32,.01-.57,.04-.25,.03-.44,.04-.57,.04-.12,0-.19-.3-.21-.91-.02-.6-.05-.91-.1-.92-.05,.03-.12,.08-.2,.17-1.19,1.28-2.56,1.93-4.1,1.93-1.75,0-3.19-.67-4.32-2.01-1.07-1.26-1.6-2.78-1.6-4.56s.54-3.4,1.61-4.66c1.13-1.32,2.6-1.98,4.41-1.98,1.09,0,2.05,.32,2.86,.96,.37,.32,.74,.65,1.11,.98,.07-.03,.1-.09,.1-.18v-4.22c0-.29-.01-.72-.04-1.3-.03-.58-.04-1.02-.04-1.31,0-.21,.07-.31,.21-.31,.32,0,.8-.03,1.43-.09,.63-.06,1.11-.08,1.42-.08,.15,0,.22,.09,.22,.27Zm-3.26,11.85c0-1.04-.32-1.96-.96-2.75-.69-.84-1.54-1.26-2.55-1.26-1.07,0-1.95,.42-2.64,1.25-.66,.78-.99,1.72-.99,2.81s.34,1.95,1.03,2.72c.7,.82,1.57,1.22,2.6,1.22s1.9-.41,2.58-1.24c.62-.77,.94-1.69,.94-2.76Z"/></g></g><path class="e" d="M171.21,10.34c0,2.75-2.23,4.98-4.98,4.98s-4.98-2.23-4.98-4.98,2.23-4.98,4.98-4.98,4.98,2.23,4.98,4.98"/><g><path class="g" d="M43.25,36.31h-2.31v-.82h5.58v.82h-2.31v6.8h-.97v-6.8Z"/><path class="g" d="M47.27,37.46h.79l.08,1.03h.03c.39-.72,.97-1.17,1.61-1.17,.25,0,.43,.03,.6,.12l-.18,.84c-.19-.06-.32-.09-.55-.09-.48,0-1.05,.34-1.43,1.3v3.62h-.95v-5.64Z"/><path class="g" d="M50.76,40.29c0-1.88,1.23-2.97,2.62-2.97s2.62,1.08,2.62,2.97-1.23,2.95-2.62,2.95-2.62-1.09-2.62-2.95Zm4.24,0c0-1.29-.66-2.17-1.63-2.17s-1.63,.88-1.63,2.17,.66,2.16,1.63,2.16,1.63-.87,1.63-2.16Zm-2.25,4.58c0-.36,.27-.62,.63-.62s.63,.26,.63,.62-.27,.63-.63,.63-.63-.26-.63-.63Z"/><path class="g" d="M57.48,37.46h.79l.08,.81h.03c.54-.53,1.12-.95,1.89-.95,1.19,0,1.72,.77,1.72,2.21v3.58h-.95v-3.45c0-1.05-.32-1.5-1.07-1.5-.58,0-.98,.29-1.54,.87v4.09h-.95v-5.64Z"/><path class="g" d="M63.41,44.19c0-.48,.31-.94,.83-1.28v-.05c-.29-.18-.5-.48-.5-.93,0-.47,.33-.84,.62-1.05v-.05c-.37-.29-.73-.84-.73-1.52,0-1.23,.97-2.01,2.12-2.01,.31,0,.59,.06,.8,.14h1.97v.74h-1.16c.27,.26,.46,.68,.46,1.16,0,1.21-.91,1.96-2.07,1.96-.27,0-.59-.07-.84-.19-.2,.17-.36,.36-.36,.67,0,.36,.23,.61,.99,.61h1.1c1.31,0,1.97,.41,1.97,1.35,0,1.05-1.11,1.95-2.85,1.95-1.38,0-2.34-.54-2.34-1.51Zm4.25-.3c0-.52-.4-.7-1.14-.7h-.97c-.22,0-.48-.02-.73-.08-.4,.29-.58,.62-.58,.95,0,.61,.61,.99,1.64,.99,1.08,0,1.78-.56,1.78-1.15Zm-.72-4.56c0-.82-.53-1.32-1.2-1.32s-1.2,.49-1.2,1.32,.55,1.34,1.2,1.34,1.2-.52,1.2-1.34Z"/><path class="g" d="M71.59,44.19c0-.48,.31-.94,.83-1.28v-.05c-.29-.18-.5-.48-.5-.93,0-.47,.33-.84,.62-1.05v-.05c-.37-.29-.73-.84-.73-1.52,0-1.23,.97-2.01,2.12-2.01,.31,0,.59,.06,.8,.14h1.97v.74h-1.16c.27,.26,.46,.68,.46,1.16,0,1.21-.91,1.96-2.07,1.96-.27,0-.59-.07-.84-.19-.2,.17-.36,.36-.36,.67,0,.36,.23,.61,.99,.61h1.1c1.31,0,1.97,.41,1.97,1.35,0,1.05-1.11,1.95-2.85,1.95-1.38,0-2.34-.54-2.34-1.51Zm4.25-.3c0-.52-.4-.7-1.14-.7h-.97c-.22,0-.48-.02-.73-.08-.4,.29-.58,.62-.58,.95,0,.61,.61,.99,1.64,.99,1.08,0,1.78-.56,1.78-1.15Zm-.72-4.56c0-.82-.53-1.32-1.2-1.32s-1.2,.49-1.2,1.32,.55,1.34,1.2,1.34,1.2-.52,1.2-1.34Z"/><path class="g" d="M77.29,40.29c0-1.88,1.23-2.97,2.62-2.97s2.62,1.08,2.62,2.97-1.23,2.95-2.62,2.95-2.62-1.09-2.62-2.95Zm4.24,0c0-1.29-.66-2.17-1.63-2.17s-1.63,.88-1.63,2.17,.66,2.16,1.63,2.16,1.63-.87,1.63-2.16Zm-3.18-4.2l1.16-1.07h.79l1.16,1.07-.33,.39-1.2-.84h-.05l-1.2,.84-.33-.39Zm3.72-2.11l.56,.39-1.17,1.33-.41-.33,1.01-1.39Z"/><path class="g" d="M83.59,40.29c0-1.88,1.27-2.97,2.72-2.97,.74,0,1.25,.31,1.65,.66l-.49,.63c-.33-.3-.68-.5-1.12-.5-1.02,0-1.77,.88-1.77,2.17s.71,2.16,1.75,2.16c.52,0,.97-.25,1.33-.56l.41,.64c-.51,.45-1.15,.72-1.82,.72-1.5,0-2.65-1.09-2.65-2.95Z"/><path class="g" d="M91.63,37.46h.79l.08,.81h.03c.54-.53,1.12-.95,1.89-.95,1.19,0,1.72,.77,1.72,2.21v3.58h-.95v-3.45c0-1.05-.32-1.5-1.07-1.5-.58,0-.98,.29-1.54,.87v4.09h-.95v-5.64Z"/><path class="g" d="M97.55,44.19c0-.48,.31-.94,.83-1.28v-.05c-.29-.18-.5-.48-.5-.93,0-.47,.33-.84,.62-1.05v-.05c-.37-.29-.73-.84-.73-1.52,0-1.23,.97-2.01,2.12-2.01,.31,0,.59,.06,.8,.14h1.97v.74h-1.16c.27,.26,.46,.68,.46,1.16,0,1.21-.91,1.96-2.07,1.96-.27,0-.59-.07-.84-.19-.2,.17-.36,.36-.36,.67,0,.36,.23,.61,.99,.61h1.1c1.31,0,1.97,.41,1.97,1.35,0,1.05-1.11,1.95-2.85,1.95-1.38,0-2.34-.54-2.34-1.51Zm4.25-.3c0-.52-.4-.7-1.14-.7h-.97c-.22,0-.48-.02-.73-.08-.4,.29-.58,.62-.58,.95,0,.61,.61,.99,1.64,.99,1.08,0,1.78-.56,1.78-1.15Zm-.72-4.56c0-.82-.53-1.32-1.2-1.32s-1.2,.49-1.2,1.32,.55,1.34,1.2,1.34,1.2-.52,1.2-1.34Z"/><path class="g" d="M103.76,41.04v-3.58h.95v3.45c0,1.05,.32,1.5,1.07,1.5,.58,0,.98-.29,1.51-.95v-4h.95v5.64h-.79l-.08-.88h-.03c-.52,.62-1.09,1.02-1.86,1.02-1.19,0-1.72-.77-1.72-2.21Z"/><path class="g" d="M109.59,45.43l.19-.76c.11,.04,.28,.08,.43,.08,.64,0,1.04-.51,1.27-1.21l.13-.42-2.27-5.66h.99l1.15,3.12c.18,.49,.37,1.07,.55,1.59h.05c.16-.51,.32-1.09,.47-1.59l1.01-3.12h.94l-2.13,6.11c-.4,1.12-.98,1.97-2.11,1.97-.26,0-.48-.05-.66-.12Z"/><path class="g" d="M115.12,40.29c0-1.84,1.24-2.97,2.54-2.97,1.44,0,2.25,1.03,2.25,2.65,0,.2-.02,.4-.04,.54h-3.8c.07,1.2,.8,1.97,1.88,1.97,.54,0,.99-.17,1.4-.45l.34,.63c-.49,.32-1.1,.59-1.86,.59-1.5,0-2.7-1.1-2.7-2.95Zm2.06-5.77h.96l1.32,1.62-.41,.37-1.37-1.31h-.05l-1.37,1.31-.41-.37,1.32-1.62Zm1.89,5.31c0-1.13-.51-1.75-1.39-1.75-.79,0-1.5,.64-1.62,1.75h3.01Z"/><path class="g" d="M121.3,37.46h.79l.08,.81h.03c.54-.53,1.12-.95,1.89-.95,1.19,0,1.72,.77,1.72,2.21v3.58h-.95v-3.45c0-1.05-.32-1.5-1.07-1.5-.58,0-.98,.29-1.54,.87v4.09h-.95v-5.64Z"/><path class="g" d="M129.16,37.46h.99l1.07,3.21c.17,.55,.35,1.13,.52,1.66h.05c.17-.54,.35-1.11,.52-1.66l1.07-3.21h.94l-2,5.64h-1.11l-2.04-5.64Z"/><path class="g" d="M135.23,35.69c0-.38,.29-.62,.66-.62s.66,.24,.66,.62-.29,.62-.66,.62-.66-.26-.66-.62Zm.03,9.18c0-.36,.26-.62,.63-.62s.63,.26,.63,.62-.26,.63-.63,.63-.63-.26-.63-.63Zm.14-7.41h.95v5.64h-.95v-5.64Z"/></g></g></g></g></svg>