<?xml version="1.0" encoding="UTF-8"?><svg xmlns="http://www.w3.org/2000/svg" viewBox="0 0 177.49 45.95"><defs><style>.d{fill:#2b5a3a;}.e{fill:#7baa41;}.f{fill:none;}.g{fill:#dddbdb;}</style></defs><g id="a"/><g id="b"><g id="c"><g><g><path class="e" d="M46.68,39.4c0-2.52,1.48-4.05,3.46-4.05,.95,0,1.69,.46,2.15,.96l-.54,.65c-.41-.44-.93-.74-1.58-.74-1.47,0-2.45,1.21-2.45,3.15s.94,3.19,2.42,3.19c.75,0,1.31-.32,1.81-.88l.54,.62c-.62,.72-1.38,1.13-2.39,1.13-1.94,0-3.4-1.5-3.4-4.04Z"/><path class="e" d="M53.83,34.82h.98v2.32l-.03,1.19c.54-.52,1.13-.96,1.92-.96,1.22,0,1.76,.79,1.76,2.26v3.66h-.98v-3.54c0-1.08-.32-1.54-1.09-1.54-.59,0-1,.3-1.58,.89v4.19h-.98v-8.47Z"/><path class="e" d="M59.87,40.41c0-1.93,1.26-3.04,2.68-3.04s2.68,1.11,2.68,3.04-1.26,3.03-2.68,3.03-2.68-1.11-2.68-3.03Zm4.35,0c0-1.32-.67-2.23-1.67-2.23s-1.67,.9-1.67,2.23,.67,2.21,1.67,2.21,1.67-.89,1.67-2.21Zm-2.3,4.69c0-.37,.27-.63,.64-.63s.64,.26,.64,.63-.27,.65-.64,.65-.64-.26-.64-.65Zm1.71-7.47c.69-.13,1.07-.47,1.07-1.14,0-.22-.06-.46-.18-.64l.76-.36c.15,.25,.28,.59,.28,.93,0,.94-.66,1.4-1.36,1.61l-.57-.39Z"/><path class="e" d="M68.29,37.51h1.01l1.09,3.28c.17,.56,.36,1.15,.53,1.7h.05c.17-.55,.36-1.14,.53-1.7l1.09-3.28h.96l-2.04,5.78h-1.14l-2.09-5.78Z"/><path class="e" d="M74.6,41.18v-3.66h.98v3.54c0,1.08,.33,1.54,1.09,1.54,.59,0,1-.29,1.55-.97v-4.1h.98v5.78h-.81l-.08-.91h-.03c-.54,.63-1.11,1.05-1.91,1.05-1.22,0-1.77-.79-1.77-2.26Z"/><path class="e" d="M80.97,35.69c0-.38,.3-.63,.68-.63s.68,.25,.68,.63-.3,.63-.68,.63-.68-.26-.68-.63Zm.18,1.82h.98v5.78h-.98v-5.78Z"/><path class="e" d="M86.46,37.51h.81l.08,.84h.03c.51-.55,1.11-.98,1.8-.98,.88,0,1.36,.42,1.6,1.1,.6-.65,1.2-1.1,1.91-1.1,1.19,0,1.76,.79,1.76,2.26v3.66h-.98v-3.54c0-1.08-.34-1.54-1.08-1.54-.45,0-.91,.29-1.45,.89v4.19h-.98v-3.54c0-1.08-.34-1.54-1.08-1.54-.43,0-.91,.29-1.45,.89v4.19h-.98v-5.78Z"/><path class="e" d="M95.89,40.41c0-1.93,1.26-3.04,2.68-3.04s2.68,1.11,2.68,3.04-1.26,3.03-2.68,3.03-2.68-1.11-2.68-3.03Zm4.35,0c0-1.32-.67-2.23-1.67-2.23s-1.67,.9-1.67,2.23,.67,2.21,1.67,2.21,1.67-.89,1.67-2.21Zm-2.44-6.66c.7,0,1.04,.5,1.5,.5,.23,0,.33-.16,.39-.5l.51,.05c-.05,.61-.3,1.05-.86,1.05-.69,0-1.05-.5-1.5-.5-.23,0-.33,.16-.39,.5l-.51-.05c.05-.61,.3-1.05,.86-1.05Zm-.82,2.37l1.19-1.05h.81l1.19,1.05-.34,.4-1.23-.81h-.05l-1.23,.81-.34-.4Z"/><path class="e" d="M102.59,35.69c0-.38,.3-.63,.68-.63s.68,.25,.68,.63-.3,.63-.68,.63-.68-.26-.68-.63Zm.18,1.82h.98v5.78h-.98v-5.78Z"/><path class="e" d="M108.07,37.51h.81l.08,.83h.03c.55-.54,1.15-.98,1.94-.98,1.22,0,1.76,.79,1.76,2.26v3.66h-.98v-3.54c0-1.08-.33-1.54-1.09-1.54-.59,0-1,.3-1.58,.89v4.19h-.98v-5.78Z"/><path class="e" d="M114.14,44.4c0-.5,.32-.96,.85-1.31v-.05c-.29-.18-.52-.49-.52-.95,0-.48,.34-.86,.64-1.07v-.05c-.38-.3-.75-.86-.75-1.55,0-1.26,1-2.06,2.17-2.06,.32,0,.61,.06,.82,.14h2.02v.75h-1.19c.27,.26,.47,.7,.47,1.19,0,1.24-.93,2-2.12,2-.28,0-.6-.07-.86-.2-.21,.17-.37,.37-.37,.68,0,.37,.24,.63,1.01,.63h1.13c1.34,0,2.02,.42,2.02,1.38,0,1.07-1.14,2-2.92,2-1.42,0-2.39-.55-2.39-1.55Zm4.36-.3c0-.53-.41-.72-1.16-.72h-1c-.22,0-.49-.02-.75-.09-.41,.29-.59,.64-.59,.97,0,.62,.63,1.01,1.68,1.01s1.83-.57,1.83-1.18Zm-.74-4.67c0-.84-.55-1.35-1.23-1.35s-1.23,.5-1.23,1.35,.56,1.37,1.23,1.37,1.23-.53,1.23-1.37Z"/><path class="e" d="M120.02,41.79c0-1.26,1.09-1.89,3.55-2.16,0-.74-.25-1.46-1.19-1.46-.67,0-1.27,.32-1.72,.62l-.38-.67c.53-.35,1.34-.75,2.27-.75,1.41,0,2.01,.94,2.01,2.38v3.55h-.81l-.08-.69h-.03c-.55,.46-1.19,.83-1.91,.83-.97,0-1.69-.6-1.69-1.64Zm.81-7.14l.69-.65,1.68,1.98-.5,.49-1.87-1.82Zm2.74,7.23v-1.61c-1.94,.23-2.59,.71-2.59,1.45,0,.66,.45,.92,1.01,.92s1.02-.27,1.58-.77Z"/><path class="e" d="M125.8,45.67l.19-.78c.11,.04,.29,.09,.44,.09,.65,0,1.06-.52,1.3-1.24l.13-.43-2.32-5.79h1.01l1.18,3.2c.18,.5,.38,1.09,.56,1.63h.05c.16-.53,.33-1.12,.49-1.63l1.03-3.2h.96l-2.18,6.26c-.41,1.15-1.01,2.02-2.16,2.02-.27,0-.49-.05-.68-.12Z"/></g><g><g><path class="f" d="M164.05,15.31s.07,0,.1,0c2.73,0,4.98-2.25,4.98-4.96,0-2.8-2.21-5-5.01-5-2.32,0-4.25,1.59-4.79,3.73h4.73v6.23Z"/><path class="e" d="M155.99,16.76c-.63-1.27-1.19-2.58-1.68-3.92-.46-1.27-.57-2.52-.43-3.75h-56.46V29.13h66.59c-1.05-1.45-2.07-2.85-3.06-4.27-1.81-2.6-3.54-5.26-4.96-8.1Z"/><path class="g" d="M170.12,1.94c-5.26-3.75-12.49-1.86-15.28,3.97-.5,1.04-.83,2.1-.96,3.18-.15,1.23-.03,2.49,.43,3.75,.48,1.33,1.04,2.65,1.68,3.92,1.42,2.84,3.15,5.5,4.96,8.1,.99,1.42,2.01,2.82,3.06,4.27,.07,.1,.14,.19,.21,.29,.16-.19,.25-.3,.33-.41,1.1-1.57,2.23-3.12,3.3-4.71,2.04-3.04,3.96-6.16,5.42-9.54,.58-1.34,1.13-2.7,1.16-4.17,.07-3.62-1.38-6.55-4.32-8.64Zm-5.97,13.38s-.07,0-.1,0c-2.7-.05-4.88-2.26-4.88-4.99,0-.43,.06-.84,.16-1.24,.54-2.15,2.48-3.73,4.79-3.73,2.8,0,5.01,2.2,5.01,5,0,2.72-2.24,4.95-4.98,4.96Z"/></g><path class="e" d="M167.27,29.42c-1.12-1.56-2.22-3.05-3.27-4.56-1.81-2.6-3.54-5.26-4.96-8.1-.63-1.27-1.19-2.58-1.68-3.92-.86-2.37-.54-4.71,.53-6.94,2.8-5.83,10.03-7.72,15.28-3.97,2.93,2.09,4.39,5.03,4.32,8.64-.03,1.47-.58,2.84-1.16,4.17-1.46,3.38-3.38,6.49-5.42,9.54-1.07,1.59-2.2,3.14-3.3,4.71-.08,.12-.18,.22-.33,.41m-.1-24.07c-2.74,0-4.96,2.22-4.95,4.97,0,2.76,2.24,5,4.99,4.99,2.73,0,4.98-2.25,4.98-4.96,0-2.8-2.21-5-5.01-5"/><g><path class="d" d="M8.61,29.13C2.76,29.13,0,25.66,0,20.84V9.85c0-.5,.23-.76,.77-.76H12.02c.53,0,.79,.26,.79,.76v11.49c0,3.06,.88,4.32,3.47,4.32h11.55c.5,0,.77,.27,.77,.79v1.88c0,.53-.27,.79-.77,.79H8.61Z"/><path class="d" d="M44.04,22.05c-.5,0-.76-.26-.76-.79v-1.88c0-.53,.26-.79,.76-.79h3.76c1.85,0,3.32-.76,3.32-3.03,0-2.09-1.47-3.03-3.32-3.03h-6.29v15.81c0,.53-.27,.79-.79,.79h-10.08c-.5,0-.76-.26-.76-.79V9.85c0-.5,.26-.76,.76-.76h25.13c3.85,0,6.88,2.41,6.88,6.58s-3.32,6.38-7.64,6.38h-10.96Z"/><path class="d" d="M73.79,29.13c-5.56,0-9.64-4.2-9.64-10.02s3.85-10.02,9.64-10.02h20.01c.53,0,.79,.26,.79,.76v1.88c0,.53-.27,.79-.79,.79h-13.14c-2.56,0-3.47,.97-3.47,4.58v3.2c0,4,1.06,5.35,3.47,5.35h13.25c.5,0,.76,.27,.76,.79v1.88c0,.53-.26,.79-.76,.79h-20.13Z"/></g><g><path class="d" d="M109.72,11.79c0,.1-.08,.17-.23,.18-.43,.04-.85,.08-1.26,.12-.49,.07-.87,.24-1.13,.52-.43,.46-.64,1.63-.64,3.5,.29,0,.74,0,1.35,.03,.62,.02,1.08,.03,1.39,.03,.21,0,.31,.08,.31,.23,0,.24,0,.61,.03,1.09,.02,.48,.03,.84,.03,1.07,0,.17-.09,.25-.26,.25-.3,0-.76-.02-1.38-.05-.62-.03-1.07-.05-1.37-.05v3.89c0,.61,.02,1.53,.07,2.76,.04,1.23,.07,2.15,.07,2.76,0,.23-.09,.35-.26,.35h-2.38c-.23,0-.34-.13-.34-.4v-8.96c0-.23-.26-.35-.79-.34-.57,0-.88-.01-.91-.07-.03-.03-.04-.19-.04-.48,0-.19,0-.48-.03-.85-.02-.38-.03-.66-.03-.85s.55-.3,1.65-.36c-.03-.56-.04-1.01-.04-1.35,0-1.54,.27-2.66,.82-3.37,.49-.64,1.2-1.15,2.14-1.51,.84-.33,1.71-.49,2.62-.49,.09,0,.15,.05,.18,.14,0,.02,.08,.38,.23,1.1s.21,1.09,.21,1.11Z"/><path class="d" d="M122.63,22.15c0,1.81-.59,3.36-1.78,4.65-1.22,1.33-2.72,1.99-4.52,1.99s-3.32-.66-4.53-1.98c-1.19-1.28-1.78-2.82-1.78-4.64s.59-3.36,1.78-4.64c1.22-1.3,2.73-1.95,4.53-1.95s3.29,.65,4.51,1.95c1.2,1.27,1.8,2.8,1.8,4.61Zm-2.75,.03c0-1.06-.33-1.96-.98-2.71-.68-.79-1.54-1.18-2.58-1.18s-1.91,.39-2.59,1.17c-.65,.76-.98,1.66-.98,2.72s.33,1.94,.99,2.71c.69,.81,1.55,1.21,2.58,1.21s1.89-.4,2.58-1.21c.65-.76,.98-1.67,.98-2.71Z"/><path class="d" d="M136.27,22.15c0,1.81-.59,3.36-1.78,4.65-1.22,1.33-2.72,1.99-4.52,1.99s-3.32-.66-4.53-1.98c-1.19-1.28-1.78-2.82-1.78-4.64s.59-3.36,1.78-4.64c1.22-1.3,2.73-1.95,4.53-1.95s3.29,.65,4.51,1.95c1.2,1.27,1.8,2.8,1.8,4.61Zm-2.75,.03c0-1.06-.33-1.96-.98-2.71-.68-.79-1.54-1.18-2.58-1.18s-1.91,.39-2.59,1.17c-.65,.76-.98,1.66-.98,2.72s.33,1.94,.99,2.71c.69,.81,1.55,1.21,2.58,1.21s1.89-.4,2.58-1.21c.65-.76,.98-1.67,.98-2.71Z"/><path class="d" d="M150.62,10.32c0,1.12-.05,2.8-.15,5.03-.1,2.24-.15,3.91-.15,5.02,0,3.43,.07,6.02,.22,7.79v.17c.02,.09-.1,.14-.34,.17-.16,.02-.4,.02-.7,0-.36-.03-.53-.04-.51-.04-.13,0-.32,.01-.57,.04-.25,.03-.44,.04-.57,.04-.12,0-.19-.3-.21-.91-.02-.6-.05-.91-.1-.92-.05,.03-.12,.08-.2,.17-1.19,1.28-2.56,1.93-4.1,1.93-1.75,0-3.19-.67-4.32-2.01-1.07-1.26-1.6-2.78-1.6-4.56s.54-3.4,1.61-4.66c1.13-1.32,2.6-1.98,4.41-1.98,1.09,0,2.05,.32,2.86,.96,.37,.32,.74,.65,1.11,.98,.07-.03,.1-.09,.1-.18v-4.22c0-.29-.01-.72-.04-1.3-.03-.58-.04-1.02-.04-1.31,0-.21,.07-.31,.21-.31,.32,0,.8-.03,1.43-.09,.63-.06,1.11-.08,1.42-.08,.15,0,.22,.09,.22,.27Zm-3.26,11.85c0-1.04-.32-1.96-.96-2.75-.69-.84-1.54-1.26-2.55-1.26-1.07,0-1.95,.42-2.64,1.25-.66,.78-.99,1.72-.99,2.81s.34,1.95,1.03,2.72c.7,.82,1.57,1.22,2.6,1.22s1.9-.41,2.58-1.24c.62-.77,.94-1.69,.94-2.76Z"/></g></g></g></g></g></svg>